<?xml version="1.0" standalone="no"?>
<!DOCTYPE svg PUBLIC "-//W3C//DTD SVG 1.1//EN" "http://www.w3.org/Graphics/SVG/1.1/DTD/svg11.dtd" >
<svg xmlns="http://www.w3.org/2000/svg">
<metadata>
Created at Thu Mar 20 14:01:56 2014

Copyright 2004 - 2010 by Robert Bosch GmbH
</metadata>
<defs>
<font id="BoschSans-Regular" horiz-adv-x="1233" vert-adv-y="2048" >
  <font-face 
    font-family="Bosch Sans Regular"
    font-weight="400"
    font-stretch="normal"
    units-per-em="2048"
    panose-1="2 11 6 4 2 2 2 2 2 4"
    ascent="1638"
    descent="-410"
    x-height="1071"
    cap-height="1464"
    bbox="-372 -496 2528 2129"
    underline-thickness="137"
    underline-position="-267"
    unicode-range="U+0020-FB04"
  />
<missing-glyph horiz-adv-x="616" vert-adv-y="2457" 
d="M62 0v1464h492v-1464h-492zM492 62v1340h-368v-1340h368z" />
    <glyph glyph-name="fi" unicode="fi" horiz-adv-x="1239" vert-adv-y="2457" 
d="M74 930v141h154v149q0 179 100 270q81 74 217 74q102 0 192 -49l-43 -131q-79 39 -141 39q-73 0 -114 -49t-41 -135v-168h245v-141h-245v-930h-170v930h-154zM869 0v1071h170v-1071h-170zM951 1487q43 0 72.5 -30t29.5 -73q0 -42 -29.5 -72t-72.5 -30q-44 0 -73.5 29.5
t-29.5 72.5q0 44 30 73.5t73 29.5z" />
    <glyph glyph-name="fl" unicode="fl" horiz-adv-x="1241" vert-adv-y="2457" 
d="M74 930v141h154v149q0 179 100 270q81 74 217 74q102 0 192 -49l-43 -131q-79 39 -141 39q-73 0 -114 -49t-41 -135v-168h245v-141h-245v-930h-170v930h-154zM871 0v1542h170v-1542h-170z" />
    <glyph glyph-name="afii61352" unicode="Nr&#x2e;" horiz-adv-x="2626" vert-adv-y="2457" 
d="M197 0v1464h231l687 -1284v1284h160v-1464h-244l-674 1259v-1259h-160zM2012 1376q205 0 346 -142q155 -157 155 -412q0 -254 -156 -411q-141 -143 -351 -143q-205 0 -345 139q-159 159 -159 414q0 252 155 412q140 143 355 143zM2012 1235q-184 0 -273 -152
q-61 -105 -61 -263q0 -222 118 -333q84 -78 210 -78q182 0 270 153q61 106 61 259q0 156 -61 260q-90 154 -264 154zM1491 0v141h1037v-141h-1037z" />
    <glyph glyph-name="ff" unicode="ff" horiz-adv-x="1342" vert-adv-y="2457" 
d="M765 1071v149q0 179 100 270q81 74 217 74q103 0 193 -49l-43 -131q-79 39 -141 39q-73 0 -114.5 -49t-41.5 -135v-168h246v-141h-246v-930h-170v930h-367v-930h-170v930h-154v141h154v149q0 179 100 270q81 74 217 74q102 0 193 -49l-43 -131q-80 39 -141 39
q-73 0 -114.5 -49t-41.5 -135v-168h367z" />
    <glyph glyph-name="ffi" unicode="ffi" horiz-adv-x="1616" vert-adv-y="2457" 
d="M765 1071v149q0 179 100 270q81 74 217 74q103 0 193 -49l-43 -131q-79 39 -141 39q-73 0 -114.5 -49t-41.5 -135v-168h246v-141h-246v-930h-170v930h-367v-930h-170v930h-154v141h154v149q0 179 100 270q81 74 217 74q102 0 193 -49l-43 -131q-80 39 -141 39
q-73 0 -114.5 -49t-41.5 -135v-168h367zM1341 0v1071h170v-1071h-170zM1423 1496q46 0 79 -33.5t33 -79.5q0 -45 -33 -78.5t-79 -33.5q-47 0 -80 33t-33 79q0 47 33.5 80t79.5 33z" />
    <glyph glyph-name="ffl" unicode="ffl" horiz-adv-x="1660" vert-adv-y="2457" 
d="M765 1071v149q0 179 100 270q81 74 217 74q103 0 193 -49l-43 -131q-79 39 -141 39q-73 0 -114.5 -49t-41.5 -135v-168h246v-141h-246v-930h-170v930h-367v-930h-170v930h-154v141h154v149q0 179 100 270q81 74 217 74q102 0 193 -49l-43 -131q-80 39 -141 39
q-73 0 -114.5 -49t-41.5 -135v-168h367zM1369 0v1542h170v-1542h-170z" />
    <glyph glyph-name=".notdef" horiz-adv-x="616" vert-adv-y="2457" 
d="M62 0v1464h492v-1464h-492zM492 62v1340h-368v-1340h368z" />
    <glyph glyph-name="glyph1" horiz-adv-x="0" vert-adv-y="0" 
 />
    <glyph glyph-name="glyph2" horiz-adv-x="616" vert-adv-y="2457" 
 />
    <glyph glyph-name="space" unicode=" " horiz-adv-x="616" vert-adv-y="2457" 
 />
    <glyph glyph-name="exclam" unicode="!" horiz-adv-x="729" vert-adv-y="2457" 
d="M359 440l-48 565v459h188v-459l-48 -565h-92zM406 252q54 0 92 -38.5t38 -92.5t-38.5 -92.5t-92.5 -38.5q-55 0 -93 38t-38 93t38.5 93t93.5 38z" />
    <glyph glyph-name="quotedbl" unicode="&#x22;" horiz-adv-x="817" vert-adv-y="2457" 
d="M515 921l-31 543h184l-31 -543h-122zM181 921l-31 543h184l-30 -543h-123z" />
    <glyph glyph-name="numbersign" unicode="#" horiz-adv-x="1147" vert-adv-y="2457" 
d="M138 1000v147h221l33 317h127l-33 -317h231l33 317h127l-33 -317h205v-147h-221l-27 -263h207v-147h-221l-33 -322h-127l33 322h-231l-33 -322h-127l33 322h-205v147h219l27 263h-205zM470 1000l-27 -263h231l27 263h-231z" />
    <glyph glyph-name="dollar" unicode="$" vert-adv-y="2457" 
d="M548 -276v260q-87 10 -135.5 24t-102.5 43q-188 104 -249 340l161 29q64 -266 326 -293v570q-191 48 -280 107q-148 101 -148 289q0 179 137 287q61 47 124.5 70t166.5 35v180h119v-182q94 -13 155 -37.5t115 -71.5q86 -74 148 -225l-152 -41q-48 115 -106.5 166.5
t-159.5 68.5v-515q202 -49 294 -109q159 -105 159 -315q0 -200 -144 -313q-62 -48 -129.5 -71.5t-179.5 -35.5v-260h-119zM667 127q142 18 214.5 84.5t72.5 179.5q0 114 -61 172.5t-226 104.5v-541zM548 1348q-156 -18 -219 -93q-49 -58 -49 -146q0 -115 67 -170
q58 -46 201 -85v494z" />
    <glyph glyph-name="percent" unicode="%" horiz-adv-x="1812" vert-adv-y="2457" 
d="M437 1476q129 0 218 -89q111 -112 111 -314q0 -204 -112 -316q-89 -88 -220 -88t-220 89q-112 111 -112 311q0 203 113 318q88 89 222 89zM1381 795q129 0 218 -89q111 -112 111 -314q0 -204 -112 -316q-89 -88 -220 -88t-220 89q-112 111 -112 311q0 203 113 318
q88 89 222 89zM432 0l807 1464h141l-805 -1464h-143zM1380 661q-178 0 -178 -273q0 -267 174 -267q178 0 178 268q0 272 -174 272zM436 1343q-178 0 -178 -273q0 -267 174 -267q178 0 178 268q0 272 -174 272z" />
    <glyph glyph-name="ampersand" unicode="&#x26;" horiz-adv-x="1399" vert-adv-y="2457" 
d="M940 121q-172 -135 -372 -135q-220 0 -347 126q-108 107 -108 277q0 152 79.5 259.5t264.5 205.5q-59 163 -59 282q0 158 91 249q87 87 227 87q118 0 197 -78q83 -83 83 -204q0 -118 -82.5 -210.5t-263.5 -176.5q117 -235 301 -453q96 147 131 363h151
q-30 -273 -178 -473q107 -102 182 -102q22 0 56 12l34 -140q-62 -20 -110 -20q-73 0 -136.5 30t-140.5 101zM506 736q-95 -55 -142 -111q-75 -88 -75 -216q0 -124 76 -200q82 -82 211 -82q133 0 266 105q-214 255 -336 504zM598 918q14 6 34 16q113 54 163.5 115t50.5 142
q0 66 -36 106t-96 40q-79 0 -122.5 -53t-43.5 -150q0 -94 50 -216z" />
    <glyph glyph-name="quotesingle" unicode="'" horiz-adv-x="483" vert-adv-y="2457" 
d="M181 921l-31 543h184l-30 -543h-123z" />
    <glyph glyph-name="parenleft" unicode="(" horiz-adv-x="868" vert-adv-y="2457" 
d="M571 -303q-129 165 -197 310q-131 282 -131 634q0 278 77 501.5t251 446.5h151q-128 -198 -187 -340q-112 -271 -112 -606q0 -272 65.5 -478.5t233.5 -467.5h-151z" />
    <glyph glyph-name="parenright" unicode=")" horiz-adv-x="868" vert-adv-y="2457" 
d="M299 1589q127 -164 196 -310q131 -281 131 -634q0 -278 -77 -501.5t-250 -446.5h-152q128 198 187 340q112 271 112 606q0 272 -65.5 479t-233.5 467h152z" />
    <glyph glyph-name="asterisk" unicode="*" horiz-adv-x="926" vert-adv-y="2457" 
d="M297 835l-121 86l188 228l-260 67l47 146l244 -115l-27 295h156l-27 -295l242 115l47 -146l-260 -67l188 -228l-121 -86l-149 250z" />
    <glyph glyph-name="plus" unicode="+" horiz-adv-x="1147" vert-adv-y="2457" 
d="M124 631v141h375v414h150v-414h374v-141h-374v-416h-150v416h-375z" />
    <glyph glyph-name="comma" unicode="," horiz-adv-x="616" vert-adv-y="2457" 
d="M187 -283v97q120 37 129 180q-67 3 -104 37.5t-37 92.5q0 57 36 93.5t92 36.5q68 0 106 -51.5t38 -144.5q0 -160 -75 -249q-61 -72 -185 -92z" />
    <glyph glyph-name="hyphen" unicode="-" horiz-adv-x="616" vert-adv-y="2457" 
d="M90 588v162h436v-162h-436z" />
    <glyph glyph-name="period" unicode="." horiz-adv-x="616" vert-adv-y="2457" 
d="M309 252q54 0 92 -38.5t38 -92.5t-38.5 -92.5t-92.5 -38.5q-55 0 -93 38t-38 93t38.5 93t93.5 38z" />
    <glyph glyph-name="slash" unicode="/" horiz-adv-x="874" vert-adv-y="2457" 
d="M37 -303l596 1892h156l-596 -1892h-156z" />
    <glyph glyph-name="zero" unicode="0" vert-adv-y="2457" 
d="M617 1482q250 0 393 -234q127 -209 127 -516q0 -333 -147 -546q-141 -204 -374 -204q-249 0 -393 234q-127 208 -127 524q0 155 38.5 296t108.5 242q141 204 374 204zM617 1341q-165 0 -257 -179q-84 -165 -84 -423q0 -297 99 -464q90 -152 241 -152q165 0 257 179
q84 165 84 430q0 290 -99 458q-90 151 -241 151z" />
    <glyph glyph-name="one" unicode="1" vert-adv-y="2457" 
d="M201 0v141h352v1023q-115 -49 -317 -51v121q165 20 252 79t125 178h110v-1350h324v-141h-846z" />
    <glyph glyph-name="two" unicode="2" vert-adv-y="2457" 
d="M134 0v147q337 254 499 423q124 130 181.5 247.5t57.5 242.5q0 120 -59 193q-71 88 -204 88q-119 0 -192 -67t-113 -214l-160 35q35 152 118 244q128 143 345 143q206 0 329 -123q116 -116 116 -295q0 -225 -163 -434.5t-554 -488.5h731v-141h-932z" />
    <glyph glyph-name="three" unicode="3" vert-adv-y="2457" 
d="M832 777q138 -43 205 -129q76 -97 76 -240q0 -167 -100 -277q-65 -71 -170.5 -110t-232.5 -39q-232 0 -380 128q-63 55 -97 117t-53 156l160 35q73 -295 375 -295q172 0 253 89q65 71 65 192q0 137 -85 213q-86 78 -250 78h-147v145h139q143 0 221 65.5t78 186.5
q0 115 -71.5 182t-194.5 67t-200 -60.5t-124 -193.5l-143 37q46 166 161 257q127 101 312 101q204 0 327 -122q109 -109 109 -266q0 -216 -233 -317z" />
    <glyph glyph-name="four" unicode="4" vert-adv-y="2457" 
d="M786 0v311h-737v157l716 1023h181v-1039h203v-141h-203v-311h-160zM786 1296l-576 -844h576v844z" />
    <glyph glyph-name="five" unicode="5" vert-adv-y="2457" 
d="M339 855q103 112 287 112q200 0 330 -130q137 -137 137 -362q0 -226 -135 -360q-133 -133 -355 -133q-208 0 -343 108q-60 48 -94.5 103.5t-57.5 140.5l155 43q77 -254 339 -254q154 0 235 93q80 91 80 256q0 171 -95 268q-85 86 -223 86q-179 0 -278 -144h-144l68 782
h774v-147h-639z" />
    <glyph glyph-name="six" unicode="6" vert-adv-y="2457" 
d="M289 735q125 195 363 195q210 0 344 -136q127 -129 127 -332q0 -215 -130 -347q-132 -133 -352 -133q-272 0 -419 223q-105 160 -105 470q0 343 118 552q144 255 422 255q151 0 253.5 -77.5t158.5 -235.5l-159 -45q-40 98 -81 142q-70 75 -181 75q-193 0 -288 -225
q-33 -78 -48.5 -161t-22.5 -220zM633 789q-148 0 -237 -90q-89 -91 -89 -236q0 -149 93 -246q92 -94 235 -94q135 0 218 85q90 93 90 251q0 163 -97 253q-82 77 -213 77z" />
    <glyph glyph-name="seven" unicode="7" vert-adv-y="2457" 
d="M346 0q19 175 39 279t59 227q157 490 491 817h-794v141h954v-166q-103 -104 -158.5 -173t-115.5 -168q-266 -440 -299 -957h-176z" />
    <glyph glyph-name="eight" unicode="8" vert-adv-y="2457" 
d="M880 792q266 -116 266 -371q0 -237 -208 -358q-138 -81 -321 -81q-226 0 -379 121q-151 120 -151 317q0 258 274 374q-200 106 -200 307q0 183 149 290q125 91 307 91q194 0 324 -104q131 -106 131 -276q0 -203 -192 -310zM626 717q-130 0 -222 -52q-137 -77 -137 -245
q0 -169 138 -246q92 -51 213 -51q183 0 276 101q72 78 72 200q0 134 -88 212q-93 81 -252 81zM620 1341q-150 0 -225 -83q-58 -63 -58 -158q0 -138 111 -200q75 -42 176 -42q143 0 214 78q58 62 58 164q0 99 -64 164q-77 77 -212 77z" />
    <glyph glyph-name="nine" unicode="9" vert-adv-y="2457" 
d="M932 758q-125 -195 -362 -195q-191 0 -318 120q-135 127 -135 332q0 178 104 304q135 163 376 163q160 0 279 -78t174.5 -219.5t55.5 -366.5q0 -431 -152 -644q-137 -192 -389 -192q-183 0 -305 99q-55 44 -86.5 96.5t-52.5 133.5l160 45q33 -107 78 -156q73 -77 201 -77
q158 0 245 109q62 78 91 198.5t36 327.5zM599 1341q-148 0 -232 -103q-70 -87 -70 -219q0 -145 81 -230t217 -85q142 0 232 87q89 87 89 227q0 144 -93 236q-88 87 -224 87z" />
    <glyph glyph-name="colon" unicode=":" horiz-adv-x="616" vert-adv-y="2457" 
d="M309 860q54 0 92 -38.5t38 -92.5t-38 -92.5t-93 -38.5t-93 38t-38 93t38.5 93t93.5 38zM309 252q54 0 92 -38.5t38 -92.5t-38.5 -92.5t-92.5 -38.5q-55 0 -93 38t-38 93t38.5 93t93.5 38z" />
    <glyph glyph-name="semicolon" unicode=";" horiz-adv-x="616" vert-adv-y="2457" 
d="M187 -283v97q120 37 129 180q-67 3 -104 37.5t-37 92.5q0 57 36 93.5t92 36.5q68 0 106 -51.5t38 -144.5q0 -160 -75 -249q-61 -72 -185 -92zM309 860q54 0 92 -38.5t38 -92.5t-38 -92.5t-93 -38.5t-93 38t-38 93t38.5 93t93.5 38z" />
    <glyph glyph-name="less" unicode="&#x3c;" horiz-adv-x="1147" vert-adv-y="2457" 
d="M967 182l-807 406v143l807 406v-172l-633 -303l633 -312v-168z" />
    <glyph glyph-name="equal" unicode="=" horiz-adv-x="1147" vert-adv-y="2457" 
d="M160 771v147h827v-147h-827zM160 401v147h827v-147h-827z" />
    <glyph glyph-name="greater" unicode="&#x3e;" horiz-adv-x="1147" vert-adv-y="2457" 
d="M180 190v164l633 303l-633 312v159l807 -405v-127z" />
    <glyph glyph-name="question" unicode="?" horiz-adv-x="1096" vert-adv-y="2457" 
d="M444 440v111q0 113 41.5 183t156.5 150q88 62 122.5 115.5t34.5 127.5q0 96 -65 155t-171 59q-234 0 -281 -248l-157 21q18 114 68 188q124 180 376 180q199 0 311 -113q95 -95 95 -238q0 -142 -91 -240q-44 -48 -157 -123q-81 -54 -107 -101t-26 -139v-88h-150zM517 252
q54 0 92 -38.5t38 -92.5t-38.5 -92.5t-92.5 -38.5q-55 0 -93 38t-38 93t38.5 93t93.5 38z" />
    <glyph glyph-name="at" unicode="@" horiz-adv-x="1894" vert-adv-y="2457" 
d="M1417 -172q-129 -86 -243.5 -120.5t-270.5 -34.5q-337 0 -549 213q-113 114 -174 274q-57 152 -57 320q0 237 114 435q113 197 311 312q196 113 428 113q240 0 433 -113q170 -98 266 -265q97 -167 97 -374q0 -270 -143 -414q-106 -106 -254 -106q-200 0 -234 188
q-55 -93 -115 -138q-85 -66 -198 -66q-119 0 -195 76q-94 95 -94 274q0 240 126 398q117 147 289 147q158 0 224 -142l24 119h156l-84 -489q-8 -47 -8 -91q0 -145 122 -145q120 0 189 120q60 106 60 268q0 270 -170 440q-183 182 -487 182t-502 -199q-205 -205 -205 -527
q0 -335 207 -527q164 -152 427 -152q126 0 221 29t216 104zM962 806q-123 0 -191 -123q-66 -119 -66 -281q0 -203 150 -203q138 0 207 131q62 118 62 273q0 64 -19 108q-40 95 -143 95z" />
    <glyph glyph-name="A" unicode="A" horiz-adv-x="1288" vert-adv-y="2457" 
d="M327 365l-126 -365h-166l530 1464h164l525 -1464h-175l-126 365h-626zM376 506h528l-265 762z" />
    <glyph glyph-name="B" unicode="B" horiz-adv-x="1407" vert-adv-y="2457" 
d="M197 0v1464h555q475 0 475 -387q0 -111 -46 -182t-153 -124q124 -39 189 -104q92 -93 92 -250q0 -235 -185 -343q-127 -74 -317 -74h-610zM367 141h467q165 0 245 87q64 69 64 188q0 268 -328 268h-448v-543zM367 825h436q258 0 258 256q0 119 -66 178q-72 64 -231 64
h-397v-498z" />
    <glyph glyph-name="C" unicode="C" horiz-adv-x="1487" vert-adv-y="2457" 
d="M1376 416q-57 -154 -125 -237q-161 -197 -452 -197q-270 0 -444 175q-208 209 -208 573q0 321 168 531q182 226 491 226q246 0 395 -149q52 -52 85.5 -110.5t72.5 -162.5l-149 -54q-51 151 -122 225q-105 110 -283 110q-262 0 -388 -222q-90 -160 -90 -394
q0 -229 87 -385q125 -222 394 -222q194 0 304 127q67 76 112 223z" />
    <glyph glyph-name="D" unicode="D" horiz-adv-x="1518" vert-adv-y="2457" 
d="M197 0v1464h475q340 0 526 -208q173 -193 173 -526q0 -377 -211 -569q-178 -161 -492 -161h-471zM367 141h317q242 0 372 147q135 153 135 446q0 320 -166 472q-127 117 -343 117h-315v-1182z" />
    <glyph glyph-name="E" unicode="E" horiz-adv-x="1268" vert-adv-y="2457" 
d="M197 0v1464h936v-141h-766v-516h635v-137h-635v-529h803v-141h-973z" />
    <glyph glyph-name="F" unicode="F" horiz-adv-x="1200" vert-adv-y="2457" 
d="M197 0v1464h918v-141h-748v-551h598v-137h-598v-635h-170z" />
    <glyph glyph-name="G" unicode="G" horiz-adv-x="1591" vert-adv-y="2457" 
d="M1267 270q-90 -151 -202.5 -219.5t-268.5 -68.5q-262 0 -437 177q-100 100 -155 245q-57 152 -57 327q0 311 168 523q185 233 495 233q240 0 390 -144q52 -49 87 -104.5t77 -155.5l-152 -57q-55 151 -124 219q-102 101 -275 101q-267 0 -396 -226q-90 -160 -90 -388
t89 -386q60 -106 158 -164q100 -59 227 -59q185 0 310 127q134 135 134 344v21h-398v141h564v-756h-111z" />
    <glyph glyph-name="H" unicode="H" horiz-adv-x="1475" vert-adv-y="2457" 
d="M197 0v1464h170v-665h741v665h170v-1464h-170v652h-741v-652h-170z" />
    <glyph glyph-name="I" unicode="I" horiz-adv-x="621" vert-adv-y="2457" 
d="M225 0v1464h170v-1464h-170z" />
    <glyph glyph-name="J" unicode="J" horiz-adv-x="1106" vert-adv-y="2457" 
d="M919 1464v-981q0 -278 -137 -403q-107 -98 -292 -98q-207 0 -324 126q-105 113 -105 301v107h170v-84q0 -313 253 -313q265 0 265 340v1005h170z" />
    <glyph glyph-name="K" unicode="K" horiz-adv-x="1313" vert-adv-y="2457" 
d="M197 0v1464h170v-743l651 743h197l-539 -608l565 -856h-190l-483 735l-201 -227v-508h-170z" />
    <glyph glyph-name="L" unicode="L" horiz-adv-x="1212" vert-adv-y="2457" 
d="M197 0v1464h170v-1323h729v-141h-899z" />
    <glyph glyph-name="M" unicode="M" horiz-adv-x="1815" vert-adv-y="2457" 
d="M197 1464h266l450 -1255l441 1255h264v-1464h-170v1304l-460 -1304h-157l-474 1304v-1304h-160v1464z" />
    <glyph glyph-name="N" unicode="N" horiz-adv-x="1470" vert-adv-y="2457" 
d="M197 0v1464h231l686 -1284v1284h160v-1464h-244l-673 1259v-1259h-160z" />
    <glyph glyph-name="O" unicode="O" horiz-adv-x="1649" vert-adv-y="2457" 
d="M824 1482q274 0 462 -188q215 -216 215 -562q0 -215 -89 -388q-92 -179 -257 -275q-151 -87 -331 -87q-274 0 -462 188q-215 215 -215 569q0 209 89 381q95 183 257 275q154 87 331 87zM824 1341q-130 0 -238 -63q-143 -85 -211 -263q-48 -127 -48 -277q0 -288 144 -455
q138 -160 353 -160q238 0 377 191q120 164 120 418q0 282 -144 449q-138 160 -353 160z" />
    <glyph glyph-name="P" unicode="P" horiz-adv-x="1341" vert-adv-y="2457" 
d="M197 0v1464h521q155 0 246 -32q263 -92 263 -396q0 -217 -145 -324q-123 -91 -332 -91h-383v-621h-170zM367 758h362q91 0 147.5 17t98.5 57q78 74 78 213q0 142 -76.5 210t-237.5 68h-372v-565z" />
    <glyph glyph-name="Q" unicode="Q" horiz-adv-x="1649" vert-adv-y="2457" 
d="M1199 97q-170 -115 -375 -115q-274 0 -462 188q-104 104 -159.5 249.5t-55.5 312.5q0 215 89 388q92 179 257 275q151 87 331 87q274 0 462 -188q215 -216 215 -562q0 -323 -190 -535l208 -191l-100 -110zM1086 202l-196 179l101 110l203 -186q127 164 127 426
q0 283 -144 450q-138 160 -353 160q-238 0 -377 -191q-120 -164 -120 -418q0 -282 144 -449q138 -160 353 -160q144 0 262 79z" />
    <glyph glyph-name="R" unicode="R" horiz-adv-x="1374" vert-adv-y="2457" 
d="M197 0v1464h533q244 0 363 -114q112 -108 112 -283q0 -150 -76.5 -240t-235.5 -125q123 -40 178.5 -109.5t87.5 -222.5q54 -267 121 -360v-10h-178q-38 64 -61 137.5t-51 224.5q-32 167 -117 234q-74 58 -227 58h-279v-654h-170zM367 791h340q324 0 324 275
q0 257 -295 257h-369v-532z" />
    <glyph glyph-name="S" unicode="S" horiz-adv-x="1350" vert-adv-y="2457" 
d="M1004 1108q-56 127 -136.5 180t-217.5 53q-135 0 -212 -57q-87 -65 -87 -179q0 -118 100 -176q43 -25 90.5 -40.5t163.5 -42.5q138 -31 220 -63.5t139 -77.5q136 -108 136 -299q0 -237 -196 -348q-135 -76 -318 -76q-220 0 -367 106t-200 303l162 29q86 -297 404 -297
q144 0 238 62q111 73 111 216q0 110 -71 172q-43 37 -106.5 61t-219.5 62q-127 31 -200.5 60t-127.5 70q-124 92 -124 267q0 187 136 293q124 96 326 96q243 0 382 -134q75 -72 126 -199z" />
    <glyph glyph-name="T" unicode="T" horiz-adv-x="1192" vert-adv-y="2457" 
d="M512 0v1323h-455v141h1077v-141h-452v-1323h-170z" />
    <glyph glyph-name="U" unicode="U" horiz-adv-x="1444" vert-adv-y="2457" 
d="M1253 1464v-911q0 -243 -106 -386q-138 -185 -434 -185q-257 0 -392 146q-131 141 -131 402v934h170v-913q0 -220 79 -320q85 -108 281 -108q211 0 296 121q77 109 77 333v887h160z" />
    <glyph glyph-name="V" unicode="V" horiz-adv-x="1214" vert-adv-y="2457" 
d="M536 0l-516 1464h176l414 -1218l418 1218h166l-523 -1464h-135z" />
    <glyph glyph-name="W" unicode="W" horiz-adv-x="1925" vert-adv-y="2457" 
d="M454 0l-395 1464h178l297 -1167l367 1167h135l358 -1171l310 1171h161l-395 -1464h-139l-365 1179l-375 -1179h-137z" />
    <glyph glyph-name="X" unicode="X" horiz-adv-x="1262" vert-adv-y="2457" 
d="M53 0l483 751l-450 713h194l365 -575l362 575h179l-455 -713l477 -751h-194l-392 616l-391 -616h-178z" />
    <glyph glyph-name="Y" unicode="Y" horiz-adv-x="1135" vert-adv-y="2457" 
d="M496 0v614l-516 850h192l410 -706l397 706h176l-489 -852v-612h-170z" />
    <glyph glyph-name="Z" unicode="Z" horiz-adv-x="1227" vert-adv-y="2457" 
d="M119 0v153l787 1170h-744v141h918v-170l-774 -1153h786v-141h-973z" />
    <glyph glyph-name="bracketleft" unicode="[" horiz-adv-x="868" vert-adv-y="2457" 
d="M250 -303v1892h459v-147h-289v-1598h289v-147h-459z" />
    <glyph glyph-name="backslash" unicode="\" horiz-adv-x="874" vert-adv-y="2457" 
d="M682 -303l-596 1892h156l596 -1892h-156z" />
    <glyph glyph-name="bracketright" unicode="]" horiz-adv-x="868" vert-adv-y="2457" 
d="M619 1589v-1892h-459v147h289v1598h-289v147h459z" />
    <glyph glyph-name="asciicircum" unicode="^" horiz-adv-x="1124" vert-adv-y="2457" 
d="M180 836l317 628h142l317 -628h-168l-223 442l-221 -442h-164z" />
    <glyph glyph-name="underscore" unicode="_" horiz-adv-x="901" vert-adv-y="2457" 
d="M-41 -403v137h983v-137h-983z" />
    <glyph glyph-name="grave" unicode="`" horiz-adv-x="1024" vert-adv-y="2457" 
d="M454 1210l-225 332h223l119 -332h-117z" />
    <glyph glyph-name="a" unicode="a" horiz-adv-x="1120" vert-adv-y="2457" 
d="M780 145q-136 -163 -330 -163q-161 0 -256 95q-81 81 -81 201q0 166 140 253q86 54 198 77.5t319 30.5v67q0 125 -51 183.5t-161 58.5q-83 0 -153.5 -30.5t-152.5 -102.5l-100 111q76 69 143 103q119 60 265 60q193 0 292 -109q88 -98 88 -274v-477q0 -57 25.5 -79
t95.5 -23v-133q-33 -2 -59 -2q-172 0 -222 153zM770 518q-178 -6 -283 -33q-204 -52 -204 -201q0 -79 51 -122t145 -43q129 0 210 66t81 169v164z" />
    <glyph glyph-name="b" unicode="b" horiz-adv-x="1292" vert-adv-y="2457" 
d="M367 895q124 194 356 194q183 0 306 -122q151 -150 151 -426q0 -283 -152 -437q-122 -122 -307 -122q-234 0 -354 190v-172h-170v1542h170v-647zM696 948q-150 0 -239 -102q-96 -109 -96 -312q0 -228 115 -333q85 -78 217 -78q311 0 311 407q0 238 -115 345
q-78 73 -193 73z" />
    <glyph glyph-name="c" unicode="c" horiz-adv-x="1108" vert-adv-y="2457" 
d="M1047 229q-151 -247 -435 -247q-207 0 -345 140q-154 156 -154 413q0 266 155 421q132 133 338 133q270 0 416 -233l-135 -90q-66 103 -125.5 142.5t-152.5 39.5q-177 0 -260 -146q-60 -106 -60 -271q0 -229 114 -334q80 -74 209 -74q103 0 171 42t133 146z" />
    <glyph glyph-name="d" unicode="d" horiz-adv-x="1292" vert-adv-y="2457" 
d="M926 172q-121 -190 -354 -190q-185 0 -307 122q-152 153 -152 437q0 276 150 426q124 122 307 122q231 0 356 -194v647h170v-1542h-170v172zM603 948q-138 0 -220 -94q-94 -109 -94 -324q0 -407 307 -407q154 0 242 100q94 106 94 311q0 226 -117 335q-86 79 -212 79z
" />
    <glyph glyph-name="e" unicode="e" horiz-adv-x="1165" vert-adv-y="2457" 
d="M1043 225q-140 -243 -423 -243q-216 0 -355 140q-152 153 -152 411q0 268 159 425q131 131 328 131q211 0 335 -140q124 -139 124 -392v-55h-770q8 -119 32 -182q75 -197 298 -197q100 0 164 40.5t123 139.5zM885 639q-11 102 -32 153q-64 156 -250 156q-153 0 -235 -116
q-50 -69 -73 -193h590z" />
    <glyph glyph-name="f" unicode="f" horiz-adv-x="717" vert-adv-y="2457" 
d="M74 930v141h154v149q0 179 100 270q81 74 217 74q102 0 192 -49l-43 -131q-79 39 -141 39q-73 0 -114 -49t-41 -135v-168h245v-141h-245v-930h-170v930h-154z" />
    <glyph glyph-name="g" unicode="g" horiz-adv-x="1149" vert-adv-y="2457" 
d="M397 90q-135 -69 -135 -178q0 -176 311 -176q336 0 336 201q0 149 -213 149h-231q-33 0 -68 4zM569 954q-100 0 -162 -45q-78 -57 -78 -167q0 -126 100 -183q62 -35 148 -35q113 0 175 55q61 55 61 158q0 108 -75 166q-67 51 -169 51zM766 1044l12 2l58 8l83 12l84 11
l58 9l12 1v-153h-160q70 -91 70 -205q0 -176 -131 -266q-109 -74 -274 -74q-106 0 -195 37q-55 -46 -55 -102q0 -52 34 -71.5t124 -19.5h211q192 0 289 -82q89 -76 89 -206q0 -176 -162 -268q-135 -77 -343 -77t-337 74q-137 79 -137 220q0 144 182 231q-104 57 -104 171
q0 115 117 183q-131 105 -131 262q0 165 124 264q106 84 270 84q109 0 212 -45z" />
    <glyph glyph-name="h" unicode="h" vert-adv-y="2457" 
d="M197 0v1542h170v-635q98 182 325 182q167 0 259 -104q96 -108 96 -321v-664h-170v676q0 138 -55 202t-172 64q-129 0 -206 -78t-77 -209v-655h-170z" />
    <glyph glyph-name="i" unicode="i" horiz-adv-x="571" vert-adv-y="2457" 
d="M201 0v1071h170v-1071h-170zM283 1496q46 0 79 -33.5t33 -79.5q0 -45 -33 -78.5t-79 -33.5q-47 0 -80 33t-33 79q0 47 33.5 80t79.5 33z" />
    <glyph glyph-name="j" unicode="j" horiz-adv-x="571" vert-adv-y="2457" 
d="M371 1071v-1165q0 -156 -83 -231q-70 -64 -197 -64q-74 0 -136 33l39 129q48 -21 80 -21q127 0 127 135v1184h170zM283 1496q45 0 78.5 -33.5t33.5 -79.5q0 -45 -33.5 -78.5t-78.5 -33.5q-47 0 -80 33t-33 79q0 47 33 80t80 33z" />
    <glyph glyph-name="k" unicode="k" horiz-adv-x="1114" vert-adv-y="2457" 
d="M865 0l-336 522l-162 -186v-336h-170v1542h170v-985l436 514h201l-365 -420l418 -651h-192z" />
    <glyph glyph-name="l" unicode="l" horiz-adv-x="573" vert-adv-y="2457" 
d="M201 0v1542h170v-1542h-170z" />
    <glyph glyph-name="m" unicode="m" horiz-adv-x="1831" vert-adv-y="2457" 
d="M367 907q97 182 301 182q109 0 181.5 -48.5t117.5 -151.5q116 200 339 200q152 0 241 -100q98 -110 98 -325v-664h-170v676q0 160 -67 221q-48 45 -136 45q-119 0 -192.5 -79t-73.5 -208v-655h-170v676q0 160 -66 221q-49 45 -137 45q-119 0 -192.5 -79t-73.5 -208v-655
h-170v1071h170v-164z" />
    <glyph glyph-name="n" unicode="n" vert-adv-y="2457" 
d="M197 0v1071h170v-164q98 182 325 182q167 0 259 -104q96 -108 96 -321v-664h-170v676q0 138 -55 202t-172 64q-129 0 -206 -78t-77 -209v-655h-170z" />
    <glyph glyph-name="o" unicode="o" horiz-adv-x="1237" vert-adv-y="2457" 
d="M623 1089q205 0 346 -142q156 -157 156 -411t-156 -412q-141 -142 -351 -142q-205 0 -345 139q-160 158 -160 414q0 252 155 411q141 143 355 143zM624 948q-185 0 -274 -152q-61 -105 -61 -263q0 -222 119 -332q84 -78 209 -78q183 0 271 153q61 105 61 259
q0 155 -61 259q-90 154 -264 154z" />
    <glyph glyph-name="p" unicode="p" horiz-adv-x="1292" vert-adv-y="2457" 
d="M197 -373v1444h170v-176q124 194 356 194q183 0 306 -122q151 -150 151 -426q0 -283 -152 -437q-122 -122 -306 -122q-235 0 -355 190v-545h-170zM696 948q-150 0 -239 -102q-96 -109 -96 -312q0 -228 115 -333q85 -78 217 -78q311 0 311 407q0 238 -115 345
q-78 73 -193 73z" />
    <glyph glyph-name="q" unicode="q" horiz-adv-x="1292" vert-adv-y="2457" 
d="M926 -373v545q-121 -190 -355 -190q-184 0 -306 122q-152 153 -152 437q0 276 150 426q124 122 307 122q231 0 356 -194v176h170v-1444h-170zM603 948q-138 0 -220 -94q-94 -109 -94 -324q0 -407 307 -407q154 0 242 100q94 106 94 311q0 226 -117 335q-86 79 -212 79z
" />
    <glyph glyph-name="r" unicode="r" horiz-adv-x="827" vert-adv-y="2457" 
d="M197 0v1071h170v-172q103 190 287 190q94 0 174 -43l-70 -143q-60 32 -125 32q-114 0 -186 -82q-80 -92 -80 -265v-588h-170z" />
    <glyph glyph-name="s" unicode="s" horiz-adv-x="1042" vert-adv-y="2457" 
d="M774 821q-66 72 -122.5 99.5t-137.5 27.5t-132 -28q-66 -37 -66 -117q0 -71 54 -107q46 -30 192 -67q122 -30 179 -54t102 -65q85 -77 85 -209q0 -145 -103 -227q-115 -92 -301 -92q-280 0 -442 206l123 101q71 -95 138 -130.5t175 -35.5q244 0 244 165q0 79 -61 118
q-31 20 -67 32t-147 39q-151 36 -225 90q-112 81 -112 226q0 153 119 233q95 63 246 63q124 0 208.5 -35.5t161.5 -119.5z" />
    <glyph glyph-name="t" unicode="t" horiz-adv-x="793" vert-adv-y="2457" 
d="M74 930v141h164v278l170 41v-319h270v-141h-270v-653q0 -154 123 -154q78 0 145 51l66 -117q-99 -75 -221 -75q-144 0 -220 84q-63 69 -63 178v686h-164z" />
    <glyph glyph-name="u" unicode="u" horiz-adv-x="1214" vert-adv-y="2457" 
d="M848 164q-99 -182 -325 -182q-164 0 -254 104q-93 108 -93 322v663h170v-676q0 -138 52.5 -202t167.5 -64q127 0 205 78q77 78 77 209v655h170v-1071h-170v164z" />
    <glyph glyph-name="v" unicode="v" horiz-adv-x="1010" vert-adv-y="2457" 
d="M408 0l-367 1071h184l287 -899l281 899h176l-361 -1071h-200z" />
    <glyph glyph-name="w" unicode="w" horiz-adv-x="1696" vert-adv-y="2457" 
d="M394 0l-322 1071h184l236 -862l276 862h185l258 -862l239 862h174l-325 -1071h-189l-252 858l-278 -858h-186z" />
    <glyph glyph-name="x" unicode="x" horiz-adv-x="1069" vert-adv-y="2457" 
d="M51 0l383 551l-358 520h198l262 -389l260 389h185l-355 -508l392 -563h-201l-289 432l-295 -432h-182z" />
    <glyph glyph-name="y" unicode="y" horiz-adv-x="1022" vert-adv-y="2457" 
d="M981 1071l-444 -1239q-78 -217 -278 -217q-117 0 -204 63l62 123q66 -45 135 -45q113 0 151 127l39 129l-401 1059h184l301 -815l277 815h178z" />
    <glyph glyph-name="z" unicode="z" horiz-adv-x="989" vert-adv-y="2457" 
d="M82 0v143l608 787h-573v141h753v-174l-579 -750h616v-147h-825z" />
    <glyph glyph-name="braceleft" unicode="{" horiz-adv-x="870" vert-adv-y="2457" 
d="M756 -309q-406 4 -406 366v281q0 124 -59 178.5t-197 58.5v144q82 2 128 17.5t77 50.5q51 56 51 169v275q0 363 406 364v-141q-150 -14 -197 -69q-39 -49 -39 -166v-289q-2 -226 -201 -283q199 -60 201 -282v-295q0 -128 47 -175t189 -63v-141z" />
    <glyph glyph-name="bar" unicode="|" horiz-adv-x="582" vert-adv-y="2457" 
d="M215 -303v1892h152v-1892h-152z" />
    <glyph glyph-name="braceright" unicode="}" horiz-adv-x="870" vert-adv-y="2457" 
d="M115 1595q406 -4 406 -366v-281q0 -123 59 -178t197 -59v-144q-82 -2 -127.5 -17.5t-77.5 -50.5q-51 -56 -51 -169v-275q0 -363 -406 -364v141q150 14 197 69q39 49 39 167v288q2 226 201 283q-199 60 -201 283v295q0 127 -47 174t-189 63v141z" />
    <glyph glyph-name="asciitilde" unicode="~" horiz-adv-x="1147" vert-adv-y="2457" 
d="M305 549l-127 12q45 276 234 276q44 0 87 -17.5t112 -63.5q89 -60 132 -60q76 0 99 148l127 -13q-46 -276 -235 -276q-44 0 -86.5 17.5t-112.5 63.5q-89 60 -131 60q-77 0 -99 -147z" />
    <glyph glyph-name="Adieresis" unicode="&#xc4;" horiz-adv-x="1288" vert-adv-y="2457" 
d="M327 365l-126 -365h-166l530 1464h164l525 -1464h-175l-126 365h-626zM376 506h528l-265 762zM831 1829q43 0 75.5 -33t32.5 -76q0 -42 -32.5 -75t-75.5 -33q-44 0 -76.5 32.5t-32.5 75.5q0 44 33 76.5t76 32.5zM458 1829q43 0 75.5 -33t32.5 -76q0 -42 -32.5 -75
t-75.5 -33q-44 0 -76.5 32.5t-32.5 75.5q0 44 33 76.5t76 32.5z" />
    <glyph glyph-name="Aring" unicode="&#xc5;" horiz-adv-x="1288" vert-adv-y="2457" 
d="M327 365l-126 -365h-166l530 1464h164l525 -1464h-175l-126 365h-626zM376 506h528l-265 762zM646 2015q88 0 151.5 -63t63.5 -150q0 -88 -63.5 -150.5t-153.5 -62.5t-153.5 62t-63.5 151t63.5 151t155.5 62zM645 1917q-50 0 -83 -32.5t-33 -82.5q0 -49 32.5 -82
t81.5 -33q50 0 83 32.5t33 82.5q0 49 -33 82t-81 33z" />
    <glyph glyph-name="Ccedilla" unicode="&#xc7;" horiz-adv-x="1487" vert-adv-y="2457" 
d="M729 -125q31 10 52 10q64 0 105 -43.5t41 -111.5q0 -78 -55 -123.5t-150 -45.5q-113 0 -196 84l80 68q42 -54 111 -54q85 0 85 72q0 68 -71 68q-40 0 -60 -23l-78 50l121 159q-100 17 -156.5 37t-116.5 61q-123 84 -197 224q-97 182 -97 422q0 321 168 532
q181 226 491 226q246 0 395 -149q51 -52 85 -110.5t73 -162.5l-149 -54q-51 151 -122 225q-105 110 -283 110q-263 0 -388 -222q-90 -159 -90 -391q0 -229 87 -384q125 -222 394 -222q193 0 304 125q67 75 112 221l152 -58q-146 -426 -570 -434z" />
    <glyph glyph-name="Eacute" unicode="&#xc9;" horiz-adv-x="1268" vert-adv-y="2457" 
d="M197 0v1464h936v-141h-766v-516h635v-137h-635v-529h803v-141h-973zM623 1604l119 331h223l-225 -331h-117z" />
    <glyph glyph-name="Ntilde" unicode="&#xd1;" horiz-adv-x="1470" vert-adv-y="2457" 
d="M197 0v1464h231l686 -1284v1284h160v-1464h-244l-673 1259v-1259h-160zM562 1616l-109 12q20 109 73 166q52 55 120 55q54 0 152 -54q69 -38 98 -38q63 0 79 96l109 -12q-20 -110 -74 -166q-52 -55 -120 -55q-53 0 -152 54q-69 38 -97 38q-64 0 -79 -96z" />
    <glyph glyph-name="Odieresis" unicode="&#xd6;" horiz-adv-x="1649" vert-adv-y="2457" 
d="M1018 1829q43 0 75.5 -33t32.5 -76t-32.5 -75.5t-75.5 -32.5q-44 0 -76.5 32.5t-32.5 75.5q0 44 33 76.5t76 32.5zM645 1829q43 0 75.5 -33t32.5 -76t-32.5 -75.5t-75.5 -32.5q-44 0 -76.5 32.5t-32.5 75.5q0 44 33 76.5t76 32.5zM824 1482q274 0 462 -188
q215 -216 215 -562q0 -215 -89 -388q-92 -179 -257 -275q-151 -87 -331 -87q-274 0 -462 188q-215 215 -215 569q0 209 89 381q95 183 257 275q154 87 331 87zM824 1341q-130 0 -238 -63q-143 -85 -211 -263q-48 -127 -48 -277q0 -288 144 -455q138 -160 353 -160
q238 0 377 191q120 164 120 418q0 282 -144 449q-138 160 -353 160z" />
    <glyph glyph-name="Udieresis" unicode="&#xdc;" horiz-adv-x="1444" vert-adv-y="2457" 
d="M1253 1464v-911q0 -243 -106 -386q-138 -185 -434 -185q-257 0 -392 146q-131 141 -131 402v934h170v-913q0 -220 79 -320q85 -108 281 -108q211 0 296 121q77 109 77 333v887h160zM912 1829q43 0 75.5 -33t32.5 -76q0 -42 -32.5 -75t-75.5 -33q-44 0 -76.5 32.5
t-32.5 75.5q0 44 33 76.5t76 32.5zM539 1829q43 0 75.5 -33t32.5 -76q0 -42 -32.5 -75t-75.5 -33q-44 0 -76.5 32.5t-32.5 75.5q0 44 33 76.5t76 32.5z" />
    <glyph glyph-name="aacute" unicode="&#xe1;" horiz-adv-x="1120" vert-adv-y="2457" 
d="M780 145q-136 -163 -330 -163q-161 0 -256 95q-81 81 -81 201q0 166 140 253q86 54 198 77.5t319 30.5v67q0 125 -51 183.5t-161 58.5q-83 0 -153.5 -30.5t-152.5 -102.5l-100 111q76 69 143 103q119 60 265 60q193 0 292 -109q88 -98 88 -274v-477q0 -57 25.5 -79
t95.5 -23v-133q-33 -2 -59 -2q-172 0 -222 153zM770 518q-178 -6 -283 -33q-204 -52 -204 -201q0 -79 51 -122t145 -43q129 0 210 66t81 169v164zM502 1210l119 332h223l-225 -332h-117z" />
    <glyph glyph-name="agrave" unicode="&#xe0;" horiz-adv-x="1120" vert-adv-y="2457" 
d="M780 145q-136 -163 -330 -163q-161 0 -256 95q-81 81 -81 201q0 166 140 253q86 54 198 77.5t319 30.5v67q0 125 -51 183.5t-161 58.5q-83 0 -153.5 -30.5t-152.5 -102.5l-100 111q76 69 143 103q119 60 265 60q193 0 292 -109q88 -98 88 -274v-477q0 -57 25.5 -79
t95.5 -23v-133q-33 -2 -59 -2q-172 0 -222 153zM770 518q-178 -6 -283 -33q-204 -52 -204 -201q0 -79 51 -122t145 -43q129 0 210 66t81 169v164zM543 1210l-225 332h223l119 -332h-117z" />
    <glyph glyph-name="acircumflex" unicode="&#xe2;" horiz-adv-x="1120" vert-adv-y="2457" 
d="M780 145q-136 -163 -330 -163q-161 0 -256 95q-81 81 -81 201q0 166 140 253q86 54 198 77.5t319 30.5v67q0 125 -51 183.5t-161 58.5q-83 0 -153.5 -30.5t-152.5 -102.5l-100 111q76 69 143 103q119 60 265 60q193 0 292 -109q88 -98 88 -274v-477q0 -57 25.5 -79
t95.5 -23v-133q-33 -2 -59 -2q-172 0 -222 153zM770 518q-178 -6 -283 -33q-204 -52 -204 -201q0 -79 51 -122t145 -43q129 0 210 66t81 169v164zM285 1210l201 332h153l199 -332h-117l-162 186l-161 -186h-113z" />
    <glyph glyph-name="adieresis" unicode="&#xe4;" horiz-adv-x="1120" vert-adv-y="2457" 
d="M780 145q-136 -163 -330 -163q-161 0 -256 95q-81 81 -81 201q0 166 140 253q86 54 198 77.5t319 30.5v67q0 125 -51 183.5t-161 58.5q-83 0 -153.5 -30.5t-152.5 -102.5l-100 111q76 69 143 103q119 60 265 60q193 0 292 -109q88 -98 88 -274v-477q0 -57 25.5 -79
t95.5 -23v-133q-33 -2 -59 -2q-172 0 -222 153zM770 518q-178 -6 -283 -33q-204 -52 -204 -201q0 -79 51 -122t145 -43q129 0 210 66t81 169v164zM376 1493q43 0 75.5 -33t32.5 -76q0 -42 -32.5 -75t-75.5 -33q-44 0 -76.5 32.5t-32.5 75.5q0 44 33 76.5t76 32.5zM749 1493
q43 0 75.5 -33t32.5 -76q0 -42 -32.5 -75t-75.5 -33q-44 0 -76.5 32.5t-32.5 75.5q0 44 33 76.5t76 32.5z" />
    <glyph glyph-name="atilde" unicode="&#xe3;" horiz-adv-x="1120" vert-adv-y="2457" 
d="M780 145q-136 -163 -330 -163q-161 0 -256 95q-81 81 -81 201q0 166 140 253q86 54 198 77.5t319 30.5v67q0 125 -51 183.5t-161 58.5q-83 0 -153.5 -30.5t-152.5 -102.5l-100 111q76 69 143 103q119 60 265 60q193 0 292 -109q88 -98 88 -274v-477q0 -57 25.5 -79
t95.5 -23v-133q-33 -2 -59 -2q-172 0 -222 153zM770 518q-178 -6 -283 -33q-204 -52 -204 -201q0 -79 51 -122t145 -43q129 0 210 66t81 169v164zM355 1272l-109 12q20 109 73 166q52 55 120 55q54 0 152 -54q69 -38 98 -38q63 0 79 96l109 -12q-20 -110 -74 -166
q-52 -55 -120 -55q-54 0 -152 54q-68 38 -97 38q-63 0 -79 -96z" />
    <glyph glyph-name="aring" unicode="&#xe5;" horiz-adv-x="1120" vert-adv-y="2457" 
d="M780 145q-136 -163 -330 -163q-161 0 -256 95q-81 81 -81 201q0 166 140 253q86 54 198 77.5t319 30.5v67q0 125 -51 183.5t-161 58.5q-83 0 -153.5 -30.5t-152.5 -102.5l-100 111q76 69 143 103q119 60 265 60q193 0 292 -109q88 -98 88 -274v-477q0 -57 25.5 -79
t95.5 -23v-133q-33 -2 -59 -2q-172 0 -222 153zM770 518q-178 -6 -283 -33q-204 -52 -204 -201q0 -79 51 -122t145 -43q129 0 210 66t81 169v164zM563 1599q88 0 151.5 -63t63.5 -150q0 -88 -63.5 -150.5t-153.5 -62.5t-153.5 62t-63.5 151t63.5 151t155.5 62zM562 1501
q-50 0 -83 -32.5t-33 -82.5q0 -49 32.5 -82t81.5 -33q50 0 83 32.5t33 82.5q0 49 -33 82t-81 33z" />
    <glyph glyph-name="ccedilla" unicode="&#xe7;" horiz-adv-x="1108" vert-adv-y="2457" 
d="M557 -125q32 10 53 10q64 0 105 -43.5t41 -111.5q0 -78 -55 -123t-150 -45q-113 0 -196 84l80 67q41 -53 111 -53q85 0 85 72q0 67 -71 67q-40 0 -60 -22l-78 49l121 160q-129 22 -209 78q-107 75 -164 196.5t-57 274.5q0 266 155 421q132 133 338 133q270 0 416 -233
l-135 -90q-66 103 -125.5 142.5t-152.5 39.5q-177 0 -260 -146q-60 -106 -60 -271q0 -229 114 -334q80 -74 209 -74q103 0 171 42t133 146l131 -82q-136 -234 -412 -246z" />
    <glyph glyph-name="eacute" unicode="&#xe9;" horiz-adv-x="1165" vert-adv-y="2457" 
d="M1043 225q-140 -243 -423 -243q-216 0 -355 140q-152 153 -152 411q0 268 159 425q131 131 328 131q211 0 335 -140q124 -139 124 -392v-55h-770q8 -119 32 -182q75 -197 298 -197q100 0 164 40.5t123 139.5zM885 639q-11 102 -32 153q-64 156 -250 156q-153 0 -235 -116
q-50 -69 -73 -193h590zM543 1210l119 332h223l-225 -332h-117z" />
    <glyph glyph-name="egrave" unicode="&#xe8;" horiz-adv-x="1165" vert-adv-y="2457" 
d="M1043 225q-140 -243 -423 -243q-216 0 -355 140q-152 153 -152 411q0 268 159 425q131 131 328 131q211 0 335 -140q124 -139 124 -392v-55h-770q8 -119 32 -182q75 -197 298 -197q100 0 164 40.5t123 139.5zM885 639q-11 102 -32 153q-64 156 -250 156q-153 0 -235 -116
q-50 -69 -73 -193h590zM575 1210l-225 332h223l119 -332h-117z" />
    <glyph glyph-name="ecircumflex" unicode="&#xea;" horiz-adv-x="1165" vert-adv-y="2457" 
d="M1043 225q-140 -243 -423 -243q-216 0 -355 140q-152 153 -152 411q0 268 159 425q131 131 328 131q211 0 335 -140q124 -139 124 -392v-55h-770q8 -119 32 -182q75 -197 298 -197q100 0 164 40.5t123 139.5zM885 639q-11 102 -32 153q-64 156 -250 156q-153 0 -235 -116
q-50 -69 -73 -193h590zM326 1210l201 332h153l199 -332h-117l-162 186l-161 -186h-113z" />
    <glyph glyph-name="edieresis" unicode="&#xeb;" horiz-adv-x="1165" vert-adv-y="2457" 
d="M1043 225q-140 -243 -423 -243q-216 0 -355 140q-152 153 -152 411q0 268 159 425q131 131 328 131q211 0 335 -140q124 -139 124 -392v-55h-770q8 -119 32 -182q75 -197 298 -197q100 0 164 40.5t123 139.5zM885 639q-11 102 -32 153q-64 156 -250 156q-153 0 -235 -116
q-50 -69 -73 -193h590zM417 1493q43 0 75.5 -33t32.5 -76q0 -42 -32.5 -75t-75.5 -33q-44 0 -76.5 32.5t-32.5 75.5q0 44 33 76.5t76 32.5zM790 1493q43 0 75.5 -33t32.5 -76q0 -42 -32.5 -75t-75.5 -33q-44 0 -76.5 32.5t-32.5 75.5q0 44 33 76.5t76 32.5z" />
    <glyph glyph-name="iacute" unicode="&#xed;" horiz-adv-x="571" vert-adv-y="2457" 
d="M201 0v1071h170v-1071h-170zM209 1210l119 332h223l-225 -332h-117z" />
    <glyph glyph-name="igrave" unicode="&#xec;" horiz-adv-x="571" vert-adv-y="2457" 
d="M201 0v1071h170v-1071h-170zM258 1210l-225 332h223l119 -332h-117z" />
    <glyph glyph-name="icircumflex" unicode="&#xee;" horiz-adv-x="572" vert-adv-y="2457" 
d="M201 0v1071h170v-1071h-170zM9 1210l201 332h153l199 -332h-117l-162 186l-161 -186h-113z" />
    <glyph glyph-name="idieresis" unicode="&#xef;" horiz-adv-x="571" vert-adv-y="2457" 
d="M201 0v1071h170v-1071h-170zM100 1493q43 0 75.5 -33t32.5 -76q0 -42 -32.5 -75t-75.5 -33q-44 0 -76.5 32.5t-32.5 75.5q0 44 33 76.5t76 32.5zM473 1493q43 0 75.5 -33t32.5 -76q0 -42 -32.5 -75t-75.5 -33q-44 0 -76.5 32.5t-32.5 75.5q0 44 33 76.5t76 32.5z" />
    <glyph glyph-name="ntilde" unicode="&#xf1;" vert-adv-y="2457" 
d="M197 0v1071h170v-164q98 182 325 182q167 0 259 -104q96 -108 96 -321v-664h-170v676q0 138 -55 202t-172 64q-129 0 -206 -78t-77 -209v-655h-170zM408 1223l-109 12q20 109 73 166q52 55 120 55q54 0 152 -54q69 -38 98 -38q63 0 79 96l109 -12q-20 -110 -74 -166
q-52 -55 -120 -55q-54 0 -152 54q-68 38 -97 38q-63 0 -79 -96z" />
    <glyph glyph-name="oacute" unicode="&#xf3;" horiz-adv-x="1237" vert-adv-y="2457" 
d="M623 1089q205 0 346 -142q156 -157 156 -411t-156 -412q-141 -142 -351 -142q-205 0 -345 139q-160 158 -160 414q0 252 155 411q141 143 355 143zM624 948q-185 0 -274 -152q-61 -105 -61 -263q0 -222 119 -332q84 -78 209 -78q183 0 271 153q61 105 61 259
q0 155 -61 259q-90 154 -264 154zM570 1210l119 332h223l-225 -332h-117z" />
    <glyph glyph-name="ograve" unicode="&#xf2;" horiz-adv-x="1237" vert-adv-y="2457" 
d="M623 1089q205 0 346 -142q156 -157 156 -411t-156 -412q-141 -142 -351 -142q-205 0 -345 139q-160 158 -160 414q0 252 155 411q141 143 355 143zM624 948q-185 0 -274 -152q-61 -105 -61 -263q0 -222 119 -332q84 -78 209 -78q183 0 271 153q61 105 61 259
q0 155 -61 259q-90 154 -264 154zM605 1210l-225 332h223l119 -332h-117z" />
    <glyph glyph-name="ocircumflex" unicode="&#xf4;" horiz-adv-x="1237" vert-adv-y="2457" 
d="M623 1089q205 0 346 -142q156 -157 156 -411t-156 -412q-141 -142 -351 -142q-205 0 -345 139q-160 158 -160 414q0 252 155 411q141 143 355 143zM624 948q-185 0 -274 -152q-61 -105 -61 -263q0 -222 119 -332q84 -78 209 -78q183 0 271 153q61 105 61 259
q0 155 -61 259q-90 154 -264 154zM353 1210l201 332h153l199 -332h-117l-162 186l-161 -186h-113z" />
    <glyph glyph-name="odieresis" unicode="&#xf6;" horiz-adv-x="1237" vert-adv-y="2457" 
d="M623 1089q205 0 346 -142q156 -157 156 -411t-156 -412q-141 -142 -351 -142q-205 0 -345 139q-160 158 -160 414q0 252 155 411q141 143 355 143zM624 948q-185 0 -274 -152q-61 -105 -61 -263q0 -222 119 -332q84 -78 209 -78q183 0 271 153q61 105 61 259
q0 155 -61 259q-90 154 -264 154zM443 1493q43 0 75.5 -33t32.5 -76q0 -42 -32.5 -75t-75.5 -33q-44 0 -76.5 32.5t-32.5 75.5q0 44 33 76.5t76 32.5zM816 1493q43 0 75.5 -33t32.5 -76q0 -42 -32.5 -75t-75.5 -33q-44 0 -76.5 32.5t-32.5 75.5q0 44 33 76.5t76 32.5z" />
    <glyph glyph-name="otilde" unicode="&#xf5;" horiz-adv-x="1237" vert-adv-y="2457" 
d="M623 1089q205 0 346 -142q156 -157 156 -411t-156 -412q-141 -142 -351 -142q-205 0 -345 139q-160 158 -160 414q0 252 155 411q141 143 355 143zM624 948q-185 0 -274 -152q-61 -105 -61 -263q0 -222 119 -332q84 -78 209 -78q183 0 271 153q61 105 61 259
q0 155 -61 259q-90 154 -264 154zM423 1272l-109 12q20 109 73 166q52 55 120 55q54 0 152 -54q69 -38 98 -38q63 0 79 96l109 -12q-20 -110 -74 -166q-52 -55 -120 -55q-54 0 -152 54q-68 38 -97 38q-63 0 -79 -96z" />
    <glyph glyph-name="uacute" unicode="&#xfa;" horiz-adv-x="1214" vert-adv-y="2457" 
d="M848 164q-99 -182 -325 -182q-164 0 -254 104q-93 108 -93 322v663h170v-676q0 -138 52.5 -202t167.5 -64q127 0 205 78q77 78 77 209v655h170v-1071h-170v164zM534 1210l119 332h223l-225 -332h-117z" />
    <glyph glyph-name="ugrave" unicode="&#xf9;" horiz-adv-x="1214" vert-adv-y="2457" 
d="M848 164q-99 -182 -325 -182q-164 0 -254 104q-93 108 -93 322v663h170v-676q0 -138 52.5 -202t167.5 -64q127 0 205 78q77 78 77 209v655h170v-1071h-170v164zM566 1210l-225 332h223l119 -332h-117z" />
    <glyph glyph-name="ucircumflex" unicode="&#xfb;" horiz-adv-x="1215" vert-adv-y="2457" 
d="M848 164q-99 -182 -325 -182q-164 0 -254 104q-93 108 -93 322v663h170v-676q0 -138 52.5 -202t167.5 -64q127 0 205 78q77 78 77 209v655h170v-1071h-170v164zM320 1210l201 332h153l199 -332h-117l-162 186l-161 -186h-113z" />
    <glyph glyph-name="udieresis" unicode="&#xfc;" horiz-adv-x="1215" vert-adv-y="2457" 
d="M848 164q-99 -182 -325 -182q-164 0 -254 104q-93 108 -93 322v663h170v-676q0 -138 52.5 -202t167.5 -64q127 0 205 78q77 78 77 209v655h170v-1071h-170v164zM411 1493q43 0 75.5 -33t32.5 -76q0 -42 -32.5 -75t-75.5 -33q-44 0 -76.5 32.5t-32.5 75.5q0 44 33 76.5
t76 32.5zM784 1493q43 0 75.5 -33t32.5 -76q0 -42 -32.5 -75t-75.5 -33q-44 0 -76.5 32.5t-32.5 75.5q0 44 33 76.5t76 32.5z" />
    <glyph glyph-name="dagger" unicode="&#x2020;" horiz-adv-x="674" vert-adv-y="2457" 
d="M90 1128v119h178v217h137v-217h179v-119h-179v-483h-137v483h-178z" />
    <glyph glyph-name="degree" unicode="&#xb0;" horiz-adv-x="924" vert-adv-y="2457" 
d="M464 1482q135 0 229 -96q97 -98 97 -245q0 -155 -101 -256q-93 -93 -227 -93t-229 95q-100 101 -100 251q0 149 100 250q94 94 231 94zM461 1361q-86 0 -139.5 -60.5t-53.5 -159.5q0 -102 53 -165t139 -63q88 0 141 58q54 60 54 164q0 95 -51 158q-55 68 -143 68z" />
    <glyph glyph-name="cent" unicode="&#xa2;" vert-adv-y="2457" 
d="M586 -276v262q-129 22 -210 77q-108 74 -166 196.5t-58 275.5q0 250 139 404q58 65 124 97.5t171 48.5v203h119v-203q225 -23 356 -211l-125 -96q-62 82 -110.5 116.5t-120.5 47.5v-817q83 15 137 55.5t111 131.5l131 -82q-127 -221 -379 -246v-260h-119zM586 942
q-77 -18 -119 -50q-139 -108 -139 -360q0 -206 95 -315q33 -37 68 -56.5t95 -33.5v815z" />
    <glyph glyph-name="sterling" unicode="&#xa3;" vert-adv-y="2457" 
d="M106 657v129h158q-52 131 -52 261q0 196 118 314q121 121 318 121q182 0 306 -103q62 -53 99 -117.5t61 -166.5l-160 -35q-46 167 -132 229q-71 52 -173 52q-120 0 -188.5 -77t-68.5 -212q0 -116 58 -266h383v-129h-328q88 -214 88 -356q0 -37 -6 -70q91 -59 142 -80.5
t101 -21.5q77 0 116 43t53 143l149 -20q-21 -136 -68 -204q-77 -109 -231 -109q-79 0 -150 29.5t-165 101.5q-101 -131 -258 -131q-101 0 -164 56t-63 146q0 97 76 153q58 42 135 42q70 0 182 -56q-4 81 -25 140t-92 194h-219zM421 196q-5 4 -11 9q-75 53 -137 53
q-40 0 -64.5 -20.5t-24.5 -55.5q0 -79 100 -79q93 0 137 93z" />
    <glyph glyph-name="section" unicode="&#xa7;" horiz-adv-x="1143" vert-adv-y="2457" 
d="M839 280q111 -96 111 -237q0 -162 -125 -251q-102 -73 -248 -73q-262 0 -401 225l117 88q104 -172 283 -172q101 0 154.5 44.5t53.5 128.5q0 81 -47.5 122.5t-203.5 96.5q-199 70 -277 121q-158 101 -158 269q0 192 201 275q-107 96 -107 236q0 164 128 256
q100 73 244 73q264 0 392 -219l-117 -88q-103 166 -279 166q-98 0 -153 -45.5t-55 -127.5t51.5 -126t203.5 -91q193 -59 276 -112q161 -101 161 -278q0 -196 -205 -281zM700 361q178 52 178 192q0 119 -165 187q-83 34 -277 91q-172 -40 -172 -182q0 -112 127 -171
q77 -36 309 -117z" />
    <glyph glyph-name="bullet" unicode="&#x2022;" horiz-adv-x="819" vert-adv-y="2457" 
d="M412 938q106 0 179 -73t73 -181t-73 -181t-181 -73t-181 73q-73 74 -73 181q0 108 73.5 181t182.5 73z" />
    <glyph glyph-name="paragraph" unicode="&#xb6;" horiz-adv-x="1253" vert-adv-y="2457" 
d="M590 0v709h-29q-165 0 -276 63q-168 96 -168 312q0 173 116 275q119 105 328 105h496v-1464h-160v1327h-147v-1327h-160z" />
    <glyph glyph-name="germandbls" unicode="&#xdf;" horiz-adv-x="1247" vert-adv-y="2457" 
d="M803 885q332 -101 332 -442q0 -242 -133 -363q-106 -98 -278 -98q-99 0 -185 32v146h4q74 -37 168 -37q248 0 248 316q0 184 -108 280q-52 45 -111.5 63t-159.5 19v145q88 1 137 16.5t84 53.5q57 61 57 175q0 232 -242 232q-249 0 -249 -260v-1163h-170v1136
q0 202 116 317q113 111 306 111q186 0 295 -106q104 -101 104 -263q0 -118 -52.5 -193.5t-162.5 -116.5z" />
    <glyph glyph-name="registered" unicode="&#xae;" horiz-adv-x="1145" vert-adv-y="2457" 
d="M577 1482q197 0 334 -136q137 -138 137 -338t-137 -337q-138 -137 -340 -137q-201 0 -339 137q-136 136 -136 335q0 198 138 337q137 139 343 139zM576 1396q-166 0 -271 -108q-107 -110 -107 -281t108 -280q106 -107 265 -107q161 0 267 108q108 111 108 282
q0 169 -107 279q-103 107 -263 107zM393 780v469h213q76 0 119.5 -35.5t43.5 -98.5q0 -92 -90 -116q43 -15 52 -31.5t47 -144.5q4 -18 17 -37q0 -1 1 -2v-4h-104q-22 32 -35 102q-9 46 -27 64t-55 18h-80v-184h-102zM495 1038h94q78 0 78 69q0 64 -70 64h-102v-133z" />
    <glyph glyph-name="copyright" unicode="&#xa9;" horiz-adv-x="1778" vert-adv-y="2457" 
d="M898 1482q147 0 284.5 -56.5t240.5 -159.5q217 -217 217 -532q0 -316 -217 -534q-123 -123 -290 -179q-119 -39 -246 -39q-207 0 -382 102q-171 99 -269 270q-99 172 -99 376q0 311 217 531q106 108 245.5 164.5t298.5 56.5zM896 1384q-274 0 -459 -184
q-187 -188 -187 -469q0 -279 189 -467q185 -184 447 -184q265 0 451 185q190 189 190 470q0 277 -186 464q-85 87 -203 136t-242 49zM1263 538q-51 -130 -141.5 -192.5t-228.5 -62.5q-181 0 -294 112q-126 124 -126 337q0 214 130 343q114 113 288 113q136 0 221 -59
t139 -191l-141 -55q-29 78 -66 116q-57 58 -151 58q-134 0 -197 -111q-47 -84 -47 -212q0 -126 46 -208q64 -112 204 -112q84 0 135.5 42.5t83.5 137.5z" />
    <glyph glyph-name="trademark" unicode="&#x2122;" horiz-adv-x="1516" vert-adv-y="2457" 
d="M725 805v659h155l184 -512l179 512h164v-659h-119v514l-184 -514h-91l-186 514v-514h-102zM295 805v569h-201v90h514v-90h-194v-569h-119z" />
    <glyph glyph-name="acute" unicode="&#xb4;" horiz-adv-x="1024" vert-adv-y="2457" 
d="M453 1210l119 332h223l-225 -332h-117z" />
    <glyph glyph-name="dieresis" unicode="&#xa8;" horiz-adv-x="1024" vert-adv-y="2457" 
d="M326 1493q43 0 75.5 -33t32.5 -76q0 -42 -32.5 -75t-75.5 -33q-44 0 -76.5 32.5t-32.5 75.5q0 44 33 76.5t76 32.5zM699 1493q43 0 75.5 -33t32.5 -76q0 -42 -32.5 -75t-75.5 -33q-44 0 -76.5 32.5t-32.5 75.5q0 44 33 76.5t76 32.5z" />
    <glyph glyph-name="glyph143" horiz-adv-x="616" vert-adv-y="2457" 
 />
    <glyph glyph-name="AE" unicode="&#xc6;" horiz-adv-x="2007" vert-adv-y="2457" 
d="M403 342l-202 -342h-168l885 1464h954v-141h-729v-516h598v-137h-598v-529h766v-141h-936v342h-570zM487 483h486v820z" />
    <glyph glyph-name="Oslash" unicode="&#xd8;" horiz-adv-x="1649" vert-adv-y="2457" 
d="M291 254q-144 203 -144 478q0 346 215 562q188 188 462 188q259 0 446 -172l143 154h180l-235 -255q143 -202 143 -477q0 -346 -215 -561q-188 -189 -462 -189q-259 0 -444 171l-141 -153h-184zM402 374l765 824q-138 143 -343 143q-242 0 -383 -190q-122 -164 -122 -420
q0 -201 83 -357zM1246 1089l-763 -825q136 -141 341 -141q242 0 383 190q122 164 122 420q0 202 -83 356z" />
    <glyph glyph-name="glyph146" horiz-adv-x="616" vert-adv-y="2457" 
 />
    <glyph glyph-name="plusminus" unicode="&#xb1;" horiz-adv-x="1147" vert-adv-y="2457" 
d="M124 672v141h375v373h150v-373h374v-141h-374v-375h-150v375h-375zM124 0v141h899v-141h-899z" />
    <glyph glyph-name="glyph148" horiz-adv-x="616" vert-adv-y="2457" 
 />
    <glyph glyph-name="glyph149" horiz-adv-x="616" vert-adv-y="2457" 
 />
    <glyph glyph-name="yen" unicode="&#xa5;" vert-adv-y="2457" 
d="M125 723v129h294l-329 612h190l338 -665l355 665h170l-330 -612h297v-129h-367l-41 -78v-108h408v-129h-408v-408h-170v408h-407v129h407v108l-43 78h-364z" />
    <glyph glyph-name="mu" unicode="&#xb5;" vert-adv-y="2457" 
d="M362 25v-398h-170v1444h170v-637q0 -96 9 -145t34 -82q57 -78 183 -78q129 0 207 78q77 78 77 209v655h170v-1071h-170v164q-99 -182 -325 -182q-104 0 -185 43z" />
    <glyph glyph-name="glyph152" horiz-adv-x="616" vert-adv-y="2457" 
 />
    <glyph glyph-name="glyph153" horiz-adv-x="616" vert-adv-y="2457" 
 />
    <glyph glyph-name="glyph154" horiz-adv-x="616" vert-adv-y="2457" 
 />
    <glyph glyph-name="pi" unicode="&#x3c0;" horiz-adv-x="1200" vert-adv-y="2457" 
d="M205 0v930h-117v141h1024v-141h-117v-930h-170v930h-450v-930h-170z" />
    <glyph glyph-name="glyph156" horiz-adv-x="616" vert-adv-y="2457" 
 />
    <glyph glyph-name="ordfeminine" unicode="&#xaa;" horiz-adv-x="995" vert-adv-y="2457" 
d="M668 668q-114 -129 -271 -129q-129 0 -208.5 69.5t-79.5 181.5q0 142 120 212q70 41 172 65t208 24h59v63q0 205 -177 205q-146 0 -276 -136l-86 102q83 82 168.5 118.5t196.5 36.5q166 0 252 -94q78 -85 78 -243v-432q0 -90 27 -148v-8h-158q-21 53 -25 113zM668 985
h-45q-62 0 -146 -16.5t-126 -36.5q-92 -45 -92 -136q0 -65 43 -100.5t122 -35.5q101 0 170 52q74 55 74 136v137z" />
    <glyph glyph-name="ordmasculine" unicode="&#xba;" horiz-adv-x="1090" vert-adv-y="2457" 
d="M548 1480q179 0 300 -123q131 -132 131 -346q0 -217 -134 -351q-121 -122 -301 -122q-179 0 -299 121q-134 134 -134 350q0 214 133 350q120 121 304 121zM548 1359q-153 0 -226 -128q-51 -89 -51 -223q0 -161 73 -255t198 -94q152 0 226 130q51 90 51 220q0 131 -50 218
q-75 132 -221 132z" />
    <glyph glyph-name="Omega" unicode="&#x2126;" horiz-adv-x="1665" vert-adv-y="2457" 
d="M104 0v129h292q-105 88 -160 188q-89 161 -89 391q0 354 192 566q188 208 493 208t493 -208q192 -212 192 -566q0 -194 -59.5 -332t-189.5 -247h292v-129h-596v137q77 2 129 25t102 77q68 76 105 194t37 262q0 283 -120 456q-131 190 -385 190t-385 -190
q-120 -173 -120 -456q0 -151 40.5 -273.5t115.5 -196.5q48 -47 96 -66.5t121 -21.5v-137h-596z" />
    <glyph glyph-name="ae" unicode="&#xe6;" horiz-adv-x="1796" vert-adv-y="2457" 
d="M854 201q-79 -117 -172.5 -168t-226.5 -51q-146 0 -240 75q-102 82 -102 221q0 226 266 308q130 41 391 45v76q0 241 -210 241q-175 0 -325 -155l-98 108q96 100 195.5 144t228.5 44q124 0 201.5 -44t126.5 -142q139 186 354 186q200 0 322 -138q125 -140 125 -392v-57
h-750q8 -119 32 -182q76 -197 291 -197q95 0 155 39.5t118 140.5l137 -78q-137 -243 -408 -243q-263 0 -411 219zM770 512q-189 -1 -307 -31q-184 -47 -184 -198q0 -79 51.5 -121.5t145.5 -42.5q129 0 212 66q82 66 82 169v158zM1515 639q-12 112 -35 164q-65 145 -232 145
q-245 0 -302 -309h569z" />
    <glyph glyph-name="oslash" unicode="&#xf8;" horiz-adv-x="1237" vert-adv-y="2457" 
d="M216 188q-102 148 -102 347q0 254 155 413q139 141 350 141q179 0 313 -107l81 89h178l-169 -187q103 -150 103 -347q0 -255 -156 -412q-141 -143 -351 -143q-176 0 -312 108l-82 -90h-178zM329 314l501 555q-88 79 -211 79q-180 0 -268 -152q-61 -105 -61 -261
q0 -126 39 -221zM907 757l-500 -555q88 -79 210 -79q182 0 271 153q61 106 61 260q0 123 -42 221z" />
    <glyph glyph-name="questiondown" unicode="&#xbf;" horiz-adv-x="1096" vert-adv-y="2457" 
d="M1010 -23q-18 -115 -68 -188q-123 -180 -376 -180q-199 0 -311 113q-95 95 -95 237q0 143 91 241q44 48 157 123q81 54 107 101.5t26 138.5v88h150v-111q0 -113 -41.5 -183t-156.5 -150q-89 -63 -123 -115.5t-34 -127.5q0 -97 64.5 -155.5t171.5 -58.5q233 0 281 248z
M622 1102q54 0 92 -38.5t38 -92.5t-38 -92.5t-93 -38.5t-93 38t-38 93t38.5 93t93.5 38z" />
    <glyph glyph-name="exclamdown" unicode="&#xa1;" horiz-adv-x="729" vert-adv-y="2457" 
d="M451 651l48 -565v-459h-188v459l48 565h92zM405 1102q55 0 93 -38t38 -93t-38.5 -93t-93.5 -38q-54 0 -92 38.5t-38 92.5t38.5 92.5t92.5 38.5z" />
    <glyph glyph-name="logicalnot" unicode="&#xac;" horiz-adv-x="1147" vert-adv-y="2457" 
d="M725 358v310h-487v141h637v-451h-150z" />
    <glyph glyph-name="glyph165" horiz-adv-x="616" vert-adv-y="2457" 
 />
    <glyph glyph-name="florin" unicode="&#x192;" horiz-adv-x="862" vert-adv-y="2457" 
d="M109 684v141h199l35 313q38 344 331 344q103 0 193 -49l-43 -131q-81 39 -141 39q-150 0 -170 -184l-37 -332h264v-141h-279l-80 -747q-32 -308 -306 -308q-96 0 -156 37l43 131q51 -27 105 -27q127 0 142 148l82 766h-182z" />
    <glyph glyph-name="glyph167" horiz-adv-x="616" vert-adv-y="2457" 
 />
    <glyph glyph-name="glyph168" horiz-adv-x="616" vert-adv-y="2457" 
 />
    <glyph glyph-name="guillemotleft" unicode="&#xab;" horiz-adv-x="1073" vert-adv-y="2457" 
d="M776 88l-266 406l266 405h168l-256 -405l256 -406h-168zM411 88l-266 406l266 405h168l-256 -405l256 -406h-168z" />
    <glyph glyph-name="guillemotright" unicode="&#xbb;" horiz-adv-x="1073" vert-adv-y="2457" 
d="M494 88l256 406l-256 405h167l267 -405l-267 -406h-167zM129 88l256 406l-256 405h168l266 -405l-266 -406h-168z" />
    <glyph glyph-name="ellipsis" unicode="&#x2026;" horiz-adv-x="1849" vert-adv-y="2457" 
d="M309 252q54 0 92 -38.5t38 -92.5t-38.5 -92.5t-92.5 -38.5q-55 0 -93 38t-38 93t38.5 93t93.5 38zM925 252q54 0 92 -38.5t38 -92.5t-38.5 -92.5t-92.5 -38.5q-55 0 -93 38t-38 93t38.5 93t93.5 38zM1542 252q54 0 92 -38.5t38 -92.5t-38.5 -92.5t-92.5 -38.5
q-55 0 -93 38t-38 93t38.5 93t93.5 38z" />
    <glyph glyph-name="glyph172" vert-adv-y="1233" 
 />
    <glyph glyph-name="Agrave" unicode="&#xc0;" horiz-adv-x="1288" vert-adv-y="2457" 
d="M327 365l-126 -365h-166l530 1464h164l525 -1464h-175l-126 365h-626zM376 506h528l-265 762zM594 1604l-225 331h223l119 -331h-117z" />
    <glyph glyph-name="Atilde" unicode="&#xc3;" horiz-adv-x="1288" vert-adv-y="2457" 
d="M327 365l-126 -365h-166l530 1464h164l525 -1464h-175l-126 365h-626zM376 506h528l-265 762zM438 1616l-109 12q20 109 73 166q52 55 120 55q54 0 152 -54q69 -38 98 -38q63 0 79 96l109 -12q-20 -110 -74 -166q-52 -55 -120 -55q-53 0 -152 54q-69 38 -97 38
q-64 0 -79 -96z" />
    <glyph glyph-name="Otilde" unicode="&#xd5;" horiz-adv-x="1649" vert-adv-y="2457" 
d="M824 1482q274 0 462 -188q215 -216 215 -562q0 -215 -89 -388q-92 -179 -257 -275q-151 -87 -331 -87q-274 0 -462 188q-215 215 -215 569q0 209 89 381q95 183 257 275q154 87 331 87zM824 1341q-130 0 -238 -63q-143 -85 -211 -263q-48 -127 -48 -277q0 -288 144 -455
q138 -160 353 -160q238 0 377 191q120 164 120 418q0 282 -144 449q-138 160 -353 160zM625 1616l-109 12q20 109 73 166q52 55 120 55q54 0 152 -54q69 -38 98 -38q63 0 79 96l109 -12q-20 -110 -74 -166q-52 -55 -120 -55q-53 0 -152 54q-69 38 -97 38q-64 0 -79 -96z" />
    <glyph glyph-name="OE" unicode="&#x152;" horiz-adv-x="2341" vert-adv-y="2457" 
d="M1318 231q-107 -131 -207 -183q-127 -66 -284 -66q-271 0 -462 191q-218 218 -218 561q0 236 107 421q89 154 236 240q149 87 331 87q194 0 341 -101q68 -46 156 -152v235h887v-141h-727v-516h596v-137h-596v-529h764v-141h-924v231zM1312 629v209q0 214 -148 361
q-143 142 -343 142q-239 0 -376 -190q-118 -165 -118 -419q0 -306 167 -474q134 -135 332 -135q207 0 344 138q142 144 142 368z" />
    <glyph glyph-name="oe" unicode="&#x153;" horiz-adv-x="2005" vert-adv-y="2457" 
d="M1037 227q-145 -245 -420 -245q-204 0 -344 139q-160 159 -160 414q0 253 155 411q142 143 350 143q271 0 419 -247q136 247 403 247q210 0 335 -140q124 -139 124 -392v-55h-774q7 -118 32 -181q76 -198 302 -198q100 0 164 40.5t122 139.5l137 -78q-139 -243 -422 -243
q-285 0 -423 245zM626 948q-188 0 -277 -156q-60 -104 -60 -259q0 -219 119 -331q85 -79 211 -79q185 0 274 156q60 106 60 256q0 153 -61 257q-91 156 -266 156zM1725 639q-11 102 -32 153q-65 156 -252 156q-253 0 -310 -309h594z" />
    <glyph glyph-name="endash" unicode="&#x2013;" vert-adv-y="2457" 
d="M98 594v147h1036v-147h-1036z" />
    <glyph glyph-name="emdash" unicode="&#x2014;" vert-adv-y="2457" 
d="M-82 594v147h1396v-147h-1396z" />
    <glyph glyph-name="quotedblleft" unicode="&#x201c;" horiz-adv-x="983" vert-adv-y="2457" 
d="M802 1563v-97q-120 -37 -129 -180q67 -3 104 -37.5t37 -92.5q0 -57 -36 -93.5t-92 -36.5q-68 0 -106 51.5t-38 144.5q0 160 75 249q61 72 185 92zM423 1563v-97q-120 -37 -129 -180q67 -3 104 -37.5t37 -92.5q0 -57 -36 -93.5t-92 -36.5q-68 0 -106 51.5t-38 144.5
q0 160 75 249q61 72 185 92z" />
    <glyph glyph-name="quotedblright" unicode="&#x201d;" horiz-adv-x="983" vert-adv-y="2457" 
d="M181 1026v96q120 37 129 181q-55 2 -87 25q-54 36 -54 105q0 57 36 93.5t92 36.5q68 0 106 -51.5t38 -144.5q0 -160 -75 -249q-61 -73 -185 -92zM560 1026v96q120 37 129 181q-55 2 -87 25q-54 36 -54 105q0 57 36 93.5t92 36.5q68 0 106 -51.5t38 -144.5
q0 -160 -75 -249q-61 -73 -185 -92z" />
    <glyph glyph-name="quoteleft" unicode="&#x2018;" horiz-adv-x="604" vert-adv-y="2457" 
d="M423 1563v-97q-120 -37 -129 -180q67 -3 104 -37.5t37 -92.5q0 -57 -36 -93.5t-92 -36.5q-68 0 -106 51.5t-38 144.5q0 160 75 249q61 72 185 92z" />
    <glyph glyph-name="quoteright" unicode="&#x2019;" horiz-adv-x="604" vert-adv-y="2457" 
d="M181 1026v96q120 37 129 181q-55 2 -87 25q-54 36 -54 105q0 57 36 93.5t92 36.5q68 0 106 -51.5t38 -144.5q0 -160 -75 -249q-61 -73 -185 -92z" />
    <glyph glyph-name="divide" unicode="&#xf7;" horiz-adv-x="1147" vert-adv-y="2457" 
d="M124 631v141h899v-141h-899zM573 1218q54 0 92 -38.5t38 -92.5t-38 -92.5t-93 -38.5t-93 38t-38 93t38.5 93t93.5 38zM573 444q54 0 92 -38.5t38 -92.5t-38 -92.5t-93 -38.5t-93 38t-38 93t38.5 93t93.5 38z" />
    <glyph glyph-name="lozenge" unicode="&#x25ca;" vert-adv-y="2457" 
d="M616 189l401 542l-401 543l-401 -543zM616 -69l-588 800l588 801l589 -801z" />
    <glyph glyph-name="ydieresis" unicode="&#xff;" horiz-adv-x="1022" vert-adv-y="2457" 
d="M981 1071l-444 -1239q-78 -217 -278 -217q-117 0 -204 63l62 123q66 -45 135 -45q113 0 151 127l39 129l-401 1059h184l301 -815l277 815h178zM334 1493q43 0 75.5 -33t32.5 -76q0 -42 -32.5 -75t-75.5 -33q-44 0 -76.5 32.5t-32.5 75.5q0 44 33 76.5t76 32.5zM707 1493
q43 0 75.5 -33t32.5 -76q0 -42 -32.5 -75t-75.5 -33q-44 0 -76.5 32.5t-32.5 75.5q0 44 33 76.5t76 32.5z" />
    <glyph glyph-name="Ydieresis" unicode="&#x178;" horiz-adv-x="1135" vert-adv-y="2457" 
d="M496 0v614l-516 850h192l410 -706l397 706h176l-489 -852v-612h-170zM771 1829q43 0 75.5 -33t32.5 -76q0 -42 -32.5 -75t-75.5 -33q-44 0 -76.5 32.5t-32.5 75.5q0 44 33 76.5t76 32.5zM398 1829q43 0 75.5 -33t32.5 -76q0 -42 -32.5 -75t-75.5 -33q-44 0 -76.5 32.5
t-32.5 75.5q0 44 33 76.5t76 32.5z" />
    <glyph glyph-name="fraction" unicode="&#x2044;" horiz-adv-x="205" vert-adv-y="2457" 
d="M-372 0l807 1464h141l-805 -1464h-143z" />
    <glyph glyph-name="Euro" unicode="&#x20ac;" vert-adv-y="2457" 
d="M4 813v129h174q35 163 84 253q159 292 472 292q210 0 331 -135q76 -85 135 -259l-149 -40q-47 135 -99 197q-81 96 -225 96q-204 0 -305 -178q-47 -82 -74 -226h455v-129h-466q-3 -31 -3 -82q0 -60 3 -86h466v-129h-453q30 -149 83 -233q101 -160 298 -160
q132 0 210.5 70.5t131.5 238.5l150 -51q-34 -101 -67 -159.5t-85 -109.5q-133 -130 -341 -130q-235 0 -385 166q-65 73 -101.5 153t-65.5 215h-174v129h159q-3 30 -3 82q0 51 3 86h-159z" />
    <glyph glyph-name="guilsinglleft" unicode="&#x2039;" horiz-adv-x="709" vert-adv-y="2457" 
d="M411 88l-266 406l266 405h168l-256 -405l256 -406h-168z" />
    <glyph glyph-name="guilsinglright" unicode="&#x203a;" horiz-adv-x="709" vert-adv-y="2457" 
d="M129 88l256 406l-256 405h168l266 -405l-266 -406h-168z" />
    <glyph glyph-name="daggerdbl" unicode="&#x2021;" horiz-adv-x="674" vert-adv-y="2457" 
d="M90 1128v119h178v217h137v-217h179v-119h-179v-147h179v-119h-179v-217h-137v217h-178v119h178v147h-178z" />
    <glyph glyph-name="periodcentered" unicode="&#xb7;" horiz-adv-x="616" vert-adv-y="2457" 
d="M309 801q54 0 92 -38.5t38 -92.5t-38 -92.5t-93 -38.5t-93 38t-38 93t38.5 93t93.5 38z" />
    <glyph glyph-name="quotesinglbase" unicode="&#x201a;" horiz-adv-x="604" vert-adv-y="2457" 
d="M181 -311v96q120 37 129 180q-67 4 -104 38t-37 92q0 57 36 93.5t92 36.5q68 0 106 -51.5t38 -144.5q0 -160 -75 -248q-61 -73 -185 -92z" />
    <glyph glyph-name="quotedblbase" unicode="&#x201e;" horiz-adv-x="983" vert-adv-y="2457" 
d="M181 -311v96q120 37 129 180q-67 4 -104 38t-37 92q0 57 36 93.5t92 36.5q68 0 106 -51.5t38 -144.5q0 -160 -75 -248q-61 -73 -185 -92zM560 -311v96q120 37 129 180q-67 4 -104 38t-37 92q0 57 36 93.5t92 36.5q68 0 106 -51.5t38 -144.5q0 -160 -75 -248
q-61 -73 -185 -92z" />
    <glyph glyph-name="perthousand" unicode="&#x2030;" horiz-adv-x="2501" vert-adv-y="2457" 
d="M437 1476q129 0 218 -89q111 -112 111 -314q0 -204 -112 -316q-89 -88 -220 -88t-220 89q-112 111 -112 311q0 203 113 318q88 89 222 89zM1299 795q129 0 218 -89q111 -112 111 -314q0 -204 -112 -316q-89 -88 -220 -88t-221 89q-111 112 -111 311q0 203 113 318
q88 89 222 89zM2069 795q129 0 218 -89q111 -112 111 -314q0 -204 -112 -316q-89 -88 -220 -88t-220 89q-112 111 -112 311q0 203 113 318q88 89 222 89zM391 0l807 1464h141l-805 -1464h-143zM436 1343q-178 0 -178 -273q0 -267 174 -267q178 0 178 268q0 272 -174 272z
M2068 661q-178 0 -178 -273q0 -267 174 -267q178 0 178 268q0 272 -174 272zM1298 661q-178 0 -178 -273q0 -267 174 -267q178 0 178 268q0 272 -174 272z" />
    <glyph glyph-name="Acircumflex" unicode="&#xc2;" horiz-adv-x="1288" vert-adv-y="2457" 
d="M327 365l-126 -365h-166l530 1464h164l525 -1464h-175l-126 365h-626zM376 506h528l-265 762zM368 1604l201 331h153l199 -331h-117l-162 186l-161 -186h-113z" />
    <glyph glyph-name="Ecircumflex" unicode="&#xca;" horiz-adv-x="1268" vert-adv-y="2457" 
d="M197 0v1464h936v-141h-766v-516h635v-137h-635v-529h803v-141h-973zM398 1604l201 331h153l199 -331h-117l-162 186l-161 -186h-113z" />
    <glyph glyph-name="Aacute" unicode="&#xc1;" horiz-adv-x="1288" vert-adv-y="2457" 
d="M327 365l-126 -365h-166l530 1464h164l525 -1464h-175l-126 365h-626zM376 506h528l-265 762zM597 1604l119 331h223l-225 -331h-117z" />
    <glyph glyph-name="Edieresis" unicode="&#xcb;" horiz-adv-x="1268" vert-adv-y="2457" 
d="M197 0v1464h936v-141h-766v-516h635v-137h-635v-529h803v-141h-973zM869 1829q43 0 75.5 -33t32.5 -76q0 -42 -32.5 -75t-75.5 -33q-44 0 -76.5 32.5t-32.5 75.5q0 44 33 76.5t76 32.5zM496 1829q43 0 75.5 -33t32.5 -76q0 -42 -32.5 -75t-75.5 -33q-44 0 -76.5 32.5
t-32.5 75.5q0 44 33 76.5t76 32.5z" />
    <glyph glyph-name="Egrave" unicode="&#xc8;" horiz-adv-x="1268" vert-adv-y="2457" 
d="M197 0v1464h936v-141h-766v-516h635v-137h-635v-529h803v-141h-973zM625 1604l-225 331h223l119 -331h-117z" />
    <glyph glyph-name="Iacute" unicode="&#xcd;" horiz-adv-x="621" vert-adv-y="2457" 
d="M225 0v1464h170v-1464h-170zM258 1604l119 331h223l-225 -331h-117z" />
    <glyph glyph-name="Icircumflex" unicode="&#xce;" horiz-adv-x="621" vert-adv-y="2457" 
d="M225 0v1464h170v-1464h-170zM41 1604l201 331h153l199 -331h-117l-162 186l-161 -186h-113z" />
    <glyph glyph-name="Idieresis" unicode="&#xcf;" horiz-adv-x="621" vert-adv-y="2457" 
d="M226 0v1464h170v-1464h-170zM132 1829q43 0 75.5 -33t32.5 -76q0 -42 -32.5 -75t-75.5 -33q-44 0 -76.5 32.5t-32.5 75.5q0 44 33 76.5t76 32.5zM505 1829q43 0 75.5 -33t32.5 -76q0 -42 -32.5 -75t-75.5 -33q-44 0 -76.5 32.5t-32.5 75.5q0 44 33 76.5t76 32.5z" />
    <glyph glyph-name="Igrave" unicode="&#xcc;" horiz-adv-x="621" vert-adv-y="2457" 
d="M225 0v1464h170v-1464h-170zM260 1604l-225 331h223l119 -331h-117z" />
    <glyph glyph-name="Oacute" unicode="&#xd3;" horiz-adv-x="1649" vert-adv-y="2457" 
d="M824 1482q274 0 462 -188q215 -216 215 -562q0 -215 -89 -388q-92 -179 -257 -275q-151 -87 -331 -87q-274 0 -462 188q-215 215 -215 569q0 209 89 381q95 183 257 275q154 87 331 87zM824 1341q-130 0 -238 -63q-143 -85 -211 -263q-48 -127 -48 -277q0 -288 144 -455
q138 -160 353 -160q238 0 377 191q120 164 120 418q0 282 -144 449q-138 160 -353 160zM772 1604l119 331h223l-225 -331h-117z" />
    <glyph glyph-name="Ocircumflex" unicode="&#xd4;" horiz-adv-x="1649" vert-adv-y="2457" 
d="M824 1482q274 0 462 -188q215 -216 215 -562q0 -215 -89 -388q-92 -179 -257 -275q-151 -87 -331 -87q-274 0 -462 188q-215 215 -215 569q0 209 89 381q95 183 257 275q154 87 331 87zM824 1341q-130 0 -238 -63q-143 -85 -211 -263q-48 -127 -48 -277q0 -288 144 -455
q138 -160 353 -160q238 0 377 191q120 164 120 418q0 282 -144 449q-138 160 -353 160zM555 1604l201 331h153l199 -331h-117l-162 186l-161 -186h-113z" />
    <glyph glyph-name="glyph210" horiz-adv-x="616" vert-adv-y="2457" 
 />
    <glyph glyph-name="Ograve" unicode="&#xd2;" horiz-adv-x="1649" vert-adv-y="2457" 
d="M824 1482q274 0 462 -188q215 -216 215 -562q0 -215 -89 -388q-92 -179 -257 -275q-151 -87 -331 -87q-274 0 -462 188q-215 215 -215 569q0 209 89 381q95 183 257 275q154 87 331 87zM824 1341q-130 0 -238 -63q-143 -85 -211 -263q-48 -127 -48 -277q0 -288 144 -455
q138 -160 353 -160q238 0 377 191q120 164 120 418q0 282 -144 449q-138 160 -353 160zM773 1604l-225 331h223l119 -331h-117z" />
    <glyph glyph-name="Uacute" unicode="&#xda;" horiz-adv-x="1444" vert-adv-y="2457" 
d="M1253 1464v-911q0 -243 -106 -386q-138 -185 -434 -185q-257 0 -392 146q-131 141 -131 402v934h170v-913q0 -220 79 -320q85 -108 281 -108q211 0 296 121q77 109 77 333v887h160zM665 1604l119 331h223l-225 -331h-117z" />
    <glyph glyph-name="Ucircumflex" unicode="&#xdb;" horiz-adv-x="1444" vert-adv-y="2457" 
d="M1253 1464v-911q0 -243 -106 -386q-138 -185 -434 -185q-257 0 -392 146q-131 141 -131 402v934h170v-913q0 -220 79 -320q85 -108 281 -108q211 0 296 121q77 109 77 333v887h160zM448 1604l201 331h153l199 -331h-117l-162 186l-161 -186h-113z" />
    <glyph glyph-name="Ugrave" unicode="&#xd9;" horiz-adv-x="1444" vert-adv-y="2457" 
d="M1253 1464v-911q0 -243 -106 -386q-138 -185 -434 -185q-257 0 -392 146q-131 141 -131 402v934h170v-913q0 -220 79 -320q85 -108 281 -108q211 0 296 121q77 109 77 333v887h160zM667 1604l-225 331h223l119 -331h-117z" />
    <glyph glyph-name="dotlessi" unicode="&#x131;" horiz-adv-x="571" vert-adv-y="2457" 
d="M201 0v1071h170v-1071h-170z" />
    <glyph glyph-name="circumflex" unicode="&#x2c6;" horiz-adv-x="1024" vert-adv-y="2457" 
d="M236 1210l201 332h153l199 -332h-117l-162 186l-161 -186h-113z" />
    <glyph glyph-name="tilde" unicode="&#x2dc;" horiz-adv-x="1024" vert-adv-y="2457" 
d="M306 1272l-109 12q20 109 73 166q52 55 120 55q54 0 152 -54q69 -38 98 -38q63 0 79 96l109 -12q-20 -110 -74 -166q-52 -55 -120 -55q-54 0 -152 54q-68 38 -97 38q-63 0 -79 -96z" />
    <glyph glyph-name="macron" unicode="&#xaf;" horiz-adv-x="1024" vert-adv-y="2457" 
d="M264 1321v129h496v-129h-496z" />
    <glyph glyph-name="breve" unicode="&#x2d8;" horiz-adv-x="1024" vert-adv-y="2457" 
d="M223 1538h133q7 -161 156 -161t155 161h134q-2 -114 -52 -188q-70 -104 -237 -104q-183 0 -251 126q-37 68 -38 166z" />
    <glyph glyph-name="dotaccent" unicode="&#x2d9;" horiz-adv-x="1024" vert-adv-y="2457" 
d="M512 1493q43 0 75.5 -33t32.5 -76q0 -42 -32.5 -75t-75.5 -33q-44 0 -76.5 32.5t-32.5 75.5q0 44 33 76.5t76 32.5z" />
    <glyph glyph-name="ring" unicode="&#x2da;" horiz-adv-x="1024" vert-adv-y="2457" 
d="M514 1599q88 0 151.5 -63t63.5 -150q0 -88 -63.5 -150.5t-153.5 -62.5t-153.5 62t-63.5 151t63.5 151t155.5 62zM513 1501q-50 0 -83 -32.5t-33 -82.5q0 -49 32.5 -82t81.5 -33q50 0 83 32.5t33 82.5q0 49 -33 82t-81 33z" />
    <glyph glyph-name="cedilla" unicode="&#xb8;" horiz-adv-x="1024" vert-adv-y="2457" 
d="M578 -125q31 10 52 10q64 0 105 -43.5t41 -111.5q0 -78 -55 -123t-150 -45q-113 0 -196 84l80 67q42 -53 111 -53q85 0 85 72q0 67 -71 67q-40 0 -60 -22l-77 49l131 174h96z" />
    <glyph glyph-name="hungarumlaut" unicode="&#x2dd;" horiz-adv-x="1024" vert-adv-y="2457" 
d="M594 1210l78 332h198l-168 -332h-108zM299 1210l78 332h198l-167 -332h-109z" />
    <glyph glyph-name="ogonek" unicode="&#x2db;" horiz-adv-x="1024" vert-adv-y="2457" 
d="M682 -362q-77 -76 -191 -76q-93 0 -147.5 46t-54.5 124q0 139 184 268h123q-182 -143 -182 -259q0 -81 82 -81q65 0 115 51z" />
    <glyph glyph-name="caron" unicode="&#x2c7;" horiz-adv-x="1024" vert-adv-y="2457" 
d="M441 1210l-205 332h117l162 -199l161 199h113l-205 -332h-143z" />
    <glyph glyph-name="nonbreakingspace" unicode="&#xa0;" horiz-adv-x="616" vert-adv-y="2457" 
 />
    <glyph glyph-name="currency" unicode="&#xa4;" vert-adv-y="2457" 
d="M4 813v129h174q35 163 84 253q159 292 472 292q210 0 331 -135q76 -85 135 -259l-149 -40q-47 135 -99 197q-81 96 -225 96q-204 0 -305 -178q-47 -82 -74 -226h455v-129h-466q-3 -31 -3 -82q0 -60 3 -86h466v-129h-453q30 -149 83 -233q101 -160 298 -160
q132 0 210.5 70.5t131.5 238.5l150 -51q-34 -101 -67 -159.5t-85 -109.5q-133 -130 -341 -130q-235 0 -385 166q-65 73 -101.5 153t-65.5 215h-174v129h159q-3 30 -3 82q0 51 3 86h-159z" />
    <glyph glyph-name="brokenbar" unicode="&#xa6;" horiz-adv-x="582" vert-adv-y="2457" 
d="M215 0v588h152v-588h-152zM215 877v587h152v-587h-152z" />
    <glyph glyph-name="uni00AD" unicode="&#xad;" horiz-adv-x="616" vert-adv-y="2457" 
d="M90 588v162h436v-162h-436z" />
    <glyph glyph-name="twosuperior" unicode="&#xb2;" horiz-adv-x="924" vert-adv-y="2457" 
d="M160 923v133q207 137 297 231q119 122 119 246q0 60 -32.5 96.5t-87.5 36.5q-106 0 -143 -139l-148 36q25 110 94 169q80 67 205 67q135 0 215 -79q73 -73 73 -189q0 -128 -89.5 -241.5t-286.5 -233.5h383v-133h-599z" />
    <glyph glyph-name="threesuperior" unicode="&#xb3;" horiz-adv-x="924" vert-adv-y="2457" 
d="M630 1380q158 -49 158 -208q0 -119 -86.5 -189.5t-233.5 -70.5q-138 0 -225.5 61.5t-112.5 177.5l149 35q38 -141 181 -141q152 0 152 132q0 62 -39.5 96.5t-111.5 34.5h-81v124h77q68 0 106 31.5t38 86.5q0 54 -34.5 85t-94.5 31q-120 0 -164 -124l-140 36
q73 221 312 221q141 0 221 -80q64 -63 64 -156q0 -127 -135 -183z" />
    <glyph glyph-name="onesuperior" unicode="&#xb9;" horiz-adv-x="924" vert-adv-y="2457" 
d="M224 923v131h171v491q-52 -24 -171 -25v117q176 20 204 151h132v-734h169v-131h-505z" />
    <glyph glyph-name="onequarter" unicode="&#xbc;" horiz-adv-x="1884" vert-adv-y="2457" 
d="M204 678v119h156v446q-49 -21 -156 -23v107q161 18 186 137h120v-667h153v-119h-459zM456 0l807 1464h141l-805 -1464h-143zM1436 0v154h-377v137l371 495h156v-515h102v-117h-102v-154h-150zM1441 612l-245 -341h245v341z" />
    <glyph glyph-name="onehalf" unicode="&#xbd;" horiz-adv-x="1884" vert-adv-y="2457" 
d="M204 678v119h156v446q-49 -21 -156 -23v107q161 18 186 137h120v-667h153v-119h-459zM443 0l807 1464h142l-805 -1464h-144zM1165 0v121q190 126 271 210q108 112 108 224q0 55 -29.5 88t-79.5 33q-96 0 -131 -127l-135 33q49 215 272 215q119 0 191 -67t72 -176
q0 -118 -81.5 -221t-260.5 -212h348v-121h-545z" />
    <glyph glyph-name="threequarters" unicode="&#xbe;" horiz-adv-x="1884" vert-adv-y="2457" 
d="M584 1094q144 -45 144 -189q0 -109 -78.5 -173t-212.5 -64q-126 0 -205.5 56t-101.5 161l135 32q35 -128 165 -128q138 0 138 119q0 120 -137 120h-74v113h70q61 0 95.5 28.5t34.5 78.5q0 49 -31 77t-85 28q-110 0 -149 -112l-127 33q66 200 283 200q115 0 187 -59.5
t72 -154.5q0 -115 -123 -166zM480 0l807 1464h141l-805 -1464h-143zM1448 0v154h-377v137l371 495h156v-515h102v-117h-102v-154h-150zM1453 612l-245 -341h245v341z" />
    <glyph glyph-name="Eth" unicode="&#xd0;" horiz-adv-x="1536" vert-adv-y="2457" 
d="M43 658v137h174v669h473q340 0 526 -208q173 -192 173 -524q0 -379 -211 -571q-177 -161 -492 -161h-469v658h-174zM387 141h316q241 0 371 148q135 153 135 447q0 319 -166 470q-127 117 -342 117h-314v-528h291v-137h-291v-517z" />
    <glyph glyph-name="multiply" unicode="&#xd7;" horiz-adv-x="1147" vert-adv-y="2457" 
d="M257 290l-96 92l320 349l-320 353l96 92l314 -346l315 343l96 -92l-320 -349l323 -347l-96 -92l-317 340z" />
    <glyph glyph-name="Yacute" unicode="&#xdd;" horiz-adv-x="1135" vert-adv-y="2457" 
d="M496 0v614l-516 850h192l410 -706l397 706h176l-489 -852v-612h-170zM525 1604l119 331h223l-225 -331h-117z" />
    <glyph glyph-name="Thorn" unicode="&#xde;" horiz-adv-x="1341" vert-adv-y="2457" 
d="M197 0v1464h170v-284h383q253 0 378 -137q99 -109 99 -292q0 -197 -121 -305q-125 -110 -356 -110h-383v-336h-170zM367 473h387q154 0 232 85q67 73 67 203q0 278 -299 278h-387v-566z" />
    <glyph glyph-name="eth" unicode="&#xf0;" horiz-adv-x="1245" vert-adv-y="2457" 
d="M516 1161l-79 84l129 121q-44 36 -150 110l84 119q88 -55 180 -123l129 121l80 -86l-121 -110q152 -149 231 -298q124 -235 124 -522q0 -298 -159 -458q-136 -137 -345 -137q-206 0 -346 139q-160 158 -160 413q0 257 163 419q136 136 323 136q153 0 262 -102
q-76 164 -209 301zM623 948q-185 0 -273 -152q-61 -105 -61 -263q0 -221 118 -332q84 -78 209 -78q182 0 270 153q61 106 61 259q0 155 -61 259q-89 154 -263 154z" />
    <glyph glyph-name="yacute" unicode="&#xfd;" horiz-adv-x="1022" vert-adv-y="2457" 
d="M981 1071l-444 -1239q-78 -217 -278 -217q-117 0 -204 63l62 123q66 -45 135 -45q113 0 151 127l39 129l-401 1059h184l301 -815l277 815h178zM461 1210l119 332h223l-225 -332h-117z" />
    <glyph glyph-name="thorn" unicode="&#xfe;" horiz-adv-x="1292" vert-adv-y="2457" 
d="M197 -373v1915h170v-647q124 194 356 194q183 0 306 -122q151 -150 151 -426q0 -283 -152 -437q-122 -122 -306 -122q-235 0 -355 190v-545h-170zM696 948q-150 0 -239 -102q-96 -109 -96 -312q0 -228 115 -333q85 -78 217 -78q311 0 311 407q0 238 -115 345
q-78 73 -193 73z" />
    <glyph glyph-name="Amacron" unicode="&#x100;" horiz-adv-x="1288" vert-adv-y="2457" 
d="M327 365l-126 -365h-166l530 1464h164l525 -1464h-175l-126 365h-626zM376 506h528l-265 762zM396 1636v129h496v-129h-496z" />
    <glyph glyph-name="amacron" unicode="&#x101;" horiz-adv-x="1120" vert-adv-y="2457" 
d="M780 145q-136 -163 -330 -163q-161 0 -256 95q-81 81 -81 201q0 166 140 253q86 54 198 77.5t319 30.5v67q0 125 -51 183.5t-161 58.5q-83 0 -153.5 -30.5t-152.5 -102.5l-100 111q76 69 143 103q119 60 265 60q193 0 292 -109q88 -98 88 -274v-477q0 -57 25.5 -79
t95.5 -23v-133q-33 -2 -59 -2q-172 0 -222 153zM770 518q-178 -6 -283 -33q-204 -52 -204 -201q0 -79 51 -122t145 -43q129 0 210 66t81 169v164zM314 1321v129h496v-129h-496z" />
    <glyph glyph-name="Abreve" unicode="&#x102;" horiz-adv-x="1288" vert-adv-y="2457" 
d="M919 1878q-13 -120 -84 -187q-80 -75 -194 -75q-112 0 -187 72q-72 67 -84 190h133q14 -69 47.5 -100t95.5 -31q61 0 94.5 30.5t49.5 100.5h129zM327 365l-126 -365h-166l530 1464h164l525 -1464h-175l-126 365h-626zM376 506h528l-265 762z" />
    <glyph glyph-name="abreve" unicode="&#x103;" horiz-adv-x="1120" vert-adv-y="2457" 
d="M836 1524q-13 -120 -84 -187q-79 -75 -194 -75q-111 0 -187 72q-72 67 -84 190h133q14 -69 47.5 -100t95.5 -31t95 30.5t49 100.5h129zM780 145q-136 -163 -330 -163q-161 0 -256 95q-81 81 -81 201q0 166 140 253q86 54 198 77.5t319 30.5v67q0 125 -51 183.5t-161 58.5
q-83 0 -153.5 -30.5t-152.5 -102.5l-100 111q76 69 143 103q119 60 265 60q193 0 292 -109q88 -98 88 -274v-477q0 -57 25.5 -79t95.5 -23v-133q-33 -2 -59 -2q-172 0 -222 153zM770 518q-178 -6 -283 -33q-204 -52 -204 -201q0 -79 51 -122t145 -43q129 0 210 66t81 169
v164z" />
    <glyph glyph-name="Aogonek" unicode="&#x104;" horiz-adv-x="1288" vert-adv-y="2457" 
d="M1296 -362q-77 -76 -191 -76q-94 0 -148 46t-54 125q0 144 178 262l-128 370h-626l-126 -365h-166l530 1464h164l515 -1437q-12 -10 -51 -41q-165 -131 -165 -245q0 -81 82 -81q65 0 114 51zM376 506h528l-265 762z" />
    <glyph glyph-name="aogonek" unicode="&#x105;" horiz-adv-x="1120" vert-adv-y="2457" 
d="M905 8q-92 36 -125 137q-136 -163 -330 -163q-161 0 -256 95q-81 81 -81 201q0 166 140 253q86 54 198 77.5t319 30.5v67q0 125 -51 183.5t-161 58.5q-83 0 -153.5 -30.5t-152.5 -102.5l-100 111q76 69 143 103q119 60 265 60q193 0 292 -109q88 -98 88 -274v-477
q0 -57 25.5 -79t95.5 -23v-104q-99 -55 -163 -134.5t-64 -147.5q0 -81 82 -81q65 0 114 51l72 -73q-76 -76 -191 -76q-93 0 -147.5 45.5t-54.5 123.5q0 154 196 277zM770 518q-178 -6 -283 -33q-204 -52 -204 -201q0 -79 51 -122t145 -43q129 0 210 66t81 169v164z" />
    <glyph glyph-name="Cacute" unicode="&#x106;" horiz-adv-x="1487" vert-adv-y="2457" 
d="M1376 416q-57 -154 -125 -237q-161 -197 -452 -197q-270 0 -444 175q-208 209 -208 573q0 321 168 531q182 226 491 226q246 0 395 -149q52 -52 85.5 -110.5t72.5 -162.5l-149 -54q-51 151 -122 225q-105 110 -283 110q-262 0 -388 -222q-90 -160 -90 -394
q0 -229 87 -385q125 -222 394 -222q194 0 304 127q67 76 112 223zM735 1604l119 331h223l-225 -331h-117z" />
    <glyph glyph-name="cacute" unicode="&#x107;" horiz-adv-x="1108" vert-adv-y="2457" 
d="M1047 229q-151 -247 -435 -247q-207 0 -345 140q-154 156 -154 413q0 266 155 421q132 133 338 133q270 0 416 -233l-135 -90q-66 103 -125.5 142.5t-152.5 39.5q-177 0 -260 -146q-60 -106 -60 -271q0 -229 114 -334q80 -74 209 -74q103 0 171 42t133 146zM529 1210
l119 332h223l-225 -332h-117z" />
    <glyph glyph-name="Ccircumflex" unicode="&#x108;" horiz-adv-x="1487" vert-adv-y="2457" 
d="M1376 416q-57 -154 -125 -237q-161 -197 -452 -197q-270 0 -444 175q-208 209 -208 573q0 321 168 531q182 226 491 226q246 0 395 -149q52 -52 85.5 -110.5t72.5 -162.5l-149 -54q-51 151 -122 225q-105 110 -283 110q-262 0 -388 -222q-90 -160 -90 -394
q0 -229 87 -385q125 -222 394 -222q194 0 304 127q67 76 112 223zM518 1604l201 331h153l199 -331h-117l-162 186l-161 -186h-113z" />
    <glyph glyph-name="ccircumflex" unicode="&#x109;" horiz-adv-x="1108" vert-adv-y="2457" 
d="M1047 229q-151 -247 -435 -247q-207 0 -345 140q-154 156 -154 413q0 266 155 421q132 133 338 133q270 0 416 -233l-135 -90q-66 103 -125.5 142.5t-152.5 39.5q-177 0 -260 -146q-60 -106 -60 -271q0 -229 114 -334q80 -74 209 -74q103 0 171 42t133 146zM330 1210
l201 332h153l199 -332h-117l-162 186l-161 -186h-113z" />
    <glyph glyph-name="Cdotaccent" unicode="&#x10a;" horiz-adv-x="1487" vert-adv-y="2457" 
d="M1376 416q-57 -154 -125 -237q-161 -197 -452 -197q-270 0 -444 175q-208 209 -208 573q0 321 168 531q182 226 491 226q246 0 395 -149q52 -52 85.5 -110.5t72.5 -162.5l-149 -54q-51 151 -122 225q-105 110 -283 110q-262 0 -388 -222q-90 -160 -90 -394
q0 -229 87 -385q125 -222 394 -222q194 0 304 127q67 76 112 223zM795 1829q43 0 75.5 -33t32.5 -76q0 -42 -32.5 -75t-75.5 -33q-44 0 -76.5 32.5t-32.5 75.5q0 44 33 76.5t76 32.5z" />
    <glyph glyph-name="cdotaccent" unicode="&#x10b;" horiz-adv-x="1108" vert-adv-y="2457" 
d="M1047 229q-151 -247 -435 -247q-207 0 -345 140q-154 156 -154 413q0 266 155 421q132 133 338 133q270 0 416 -233l-135 -90q-66 103 -125.5 142.5t-152.5 39.5q-177 0 -260 -146q-60 -106 -60 -271q0 -229 114 -334q80 -74 209 -74q103 0 171 42t133 146zM607 1493
q43 0 75.5 -33t32.5 -76q0 -42 -32.5 -75t-75.5 -33q-44 0 -76.5 32.5t-32.5 75.5q0 44 33 76.5t76 32.5z" />
    <glyph glyph-name="Ccaron" unicode="&#x10c;" horiz-adv-x="1487" vert-adv-y="2457" 
d="M1376 416q-57 -154 -125 -237q-161 -197 -452 -197q-270 0 -444 175q-208 209 -208 573q0 321 168 531q182 226 491 226q246 0 395 -149q52 -52 85.5 -110.5t72.5 -162.5l-149 -54q-51 151 -122 225q-105 110 -283 110q-262 0 -388 -222q-90 -160 -90 -394
q0 -229 87 -385q125 -222 394 -222q194 0 304 127q67 76 112 223zM723 1604l-205 331h117l162 -198l161 198h113l-205 -331h-143z" />
    <glyph glyph-name="ccaron" unicode="&#x10d;" horiz-adv-x="1108" vert-adv-y="2457" 
d="M1047 229q-151 -247 -435 -247q-207 0 -345 140q-154 156 -154 413q0 266 155 421q132 133 338 133q270 0 416 -233l-135 -90q-66 103 -125.5 142.5t-152.5 39.5q-177 0 -260 -146q-60 -106 -60 -271q0 -229 114 -334q80 -74 209 -74q103 0 171 42t133 146zM538 1210
l-205 332h117l162 -199l161 199h113l-205 -332h-143z" />
    <glyph glyph-name="Dcaron" unicode="&#x10e;" horiz-adv-x="1518" vert-adv-y="2457" 
d="M197 0v1464h475q340 0 526 -208q173 -193 173 -526q0 -377 -211 -569q-178 -161 -492 -161h-471zM367 141h317q242 0 372 147q135 153 135 446q0 320 -166 472q-127 117 -343 117h-315v-1182zM595 1604l-205 331h117l162 -198l161 198h113l-205 -331h-143z" />
    <glyph glyph-name="dcaron" unicode="&#x10f;" horiz-adv-x="1444" vert-adv-y="2457" 
d="M926 172q-121 -190 -354 -190q-185 0 -307 122q-152 153 -152 437q0 276 150 426q124 122 307 122q231 0 356 -194v647h170v-1542h-170v172zM603 948q-138 0 -220 -94q-94 -109 -94 -324q0 -407 307 -407q154 0 242 100q94 106 94 311q0 226 -117 335q-86 79 -212 79z
M1266 1153v90q107 15 113 109q-111 4 -111 99q0 45 30 74t77 29q55 0 87.5 -41.5t32.5 -111.5q0 -108 -59.5 -172t-169.5 -76z" />
    <glyph glyph-name="Dcroat" unicode="&#x110;" horiz-adv-x="1536" vert-adv-y="2457" 
d="M43 658v137h174v669h473q340 0 526 -208q173 -192 173 -524q0 -379 -211 -571q-177 -161 -492 -161h-469v658h-174zM387 141h316q241 0 371 148q135 153 135 447q0 319 -166 470q-127 117 -342 117h-314v-528h291v-137h-291v-517z" />
    <glyph glyph-name="dcroat" unicode="&#x111;" horiz-adv-x="1292" vert-adv-y="2457" 
d="M695 1227v141h231v174h170v-174h168v-141h-168v-1227h-170v172q-121 -190 -354 -190q-185 0 -307 122q-152 153 -152 437q0 276 150 425q124 123 308 123q230 0 355 -194v332h-231zM603 948q-138 0 -220 -94q-94 -109 -94 -324q0 -407 307 -407q154 0 242 100
q94 106 94 311q0 226 -117 335q-85 79 -212 79z" />
    <glyph glyph-name="Emacron" unicode="&#x112;" horiz-adv-x="1268" vert-adv-y="2457" 
d="M197 0v1464h936v-141h-766v-516h635v-137h-635v-529h803v-141h-973zM435 1636v129h496v-129h-496z" />
    <glyph glyph-name="emacron" unicode="&#x113;" horiz-adv-x="1165" vert-adv-y="2457" 
d="M1043 225q-140 -243 -423 -243q-216 0 -355 140q-152 153 -152 411q0 268 159 425q131 131 328 131q211 0 335 -140q124 -139 124 -392v-55h-770q8 -119 32 -182q75 -197 298 -197q100 0 164 40.5t123 139.5zM885 639q-11 102 -32 153q-64 156 -250 156q-153 0 -235 -116
q-50 -69 -73 -193h590zM355 1321v129h496v-129h-496z" />
    <glyph glyph-name="Ebreve" unicode="&#x114;" horiz-adv-x="1268" vert-adv-y="2457" 
d="M197 0v1464h936v-141h-766v-516h635v-137h-635v-529h803v-141h-973zM927 1878q-13 -120 -84 -187q-79 -75 -194 -75q-111 0 -187 72q-72 67 -84 190h133q14 -69 47.5 -100t95.5 -31t95 30.5t49 100.5h129z" />
    <glyph glyph-name="ebreve" unicode="&#x115;" horiz-adv-x="1165" vert-adv-y="2457" 
d="M1043 225q-140 -243 -423 -243q-216 0 -355 140q-152 153 -152 411q0 268 159 425q131 131 328 131q211 0 335 -140q124 -139 124 -392v-55h-770q8 -119 32 -182q75 -197 298 -197q100 0 164 40.5t123 139.5zM885 639q-11 102 -32 153q-64 156 -250 156q-153 0 -235 -116
q-50 -69 -73 -193h590zM297 1538h133q7 -161 156 -161t155 161h134q-2 -114 -52 -188q-70 -104 -237 -104q-183 0 -251 126q-37 68 -38 166z" />
    <glyph glyph-name="Edotaccent" unicode="&#x116;" horiz-adv-x="1268" vert-adv-y="2457" 
d="M197 0v1464h936v-141h-766v-516h635v-137h-635v-529h803v-141h-973zM683 1829q43 0 75.5 -33t32.5 -76q0 -42 -32.5 -75t-75.5 -33q-44 0 -76.5 32.5t-32.5 75.5q0 44 33 76.5t76 32.5z" />
    <glyph glyph-name="edotaccent" unicode="&#x117;" horiz-adv-x="1165" vert-adv-y="2457" 
d="M1043 225q-140 -243 -423 -243q-216 0 -355 140q-152 153 -152 411q0 268 159 425q131 131 328 131q211 0 335 -140q124 -139 124 -392v-55h-770q8 -119 32 -182q75 -197 298 -197q100 0 164 40.5t123 139.5zM885 639q-11 102 -32 153q-64 156 -250 156q-153 0 -235 -116
q-50 -69 -73 -193h590zM603 1493q43 0 75.5 -33t32.5 -76q0 -42 -32.5 -75t-75.5 -33q-44 0 -76.5 32.5t-32.5 75.5q0 44 33 76.5t76 32.5z" />
    <glyph glyph-name="Eogonek" unicode="&#x118;" horiz-adv-x="1268" vert-adv-y="2457" 
d="M197 0v1464h936v-141h-766v-516h635v-137h-635v-529h803v-141h-72q-182 -142 -182 -259q0 -81 82 -81q65 0 115 51l71 -73q-76 -76 -189 -76q-95 0 -149.5 45.5t-54.5 124.5q0 139 185 268h-779z" />
    <glyph glyph-name="eogonek" unicode="&#x119;" horiz-adv-x="1165" vert-adv-y="2457" 
d="M832 -362q-43 -42 -85.5 -59t-105.5 -17q-93 0 -147.5 46t-54.5 124q0 130 157 250q-87 8 -137.5 22.5t-105.5 47.5q-115 70 -177.5 195t-62.5 286q0 268 159 425q131 131 328 131q211 0 335 -140q124 -139 124 -392v-55h-770q8 -119 32 -182q75 -197 298 -197
q100 0 164 40.5t123 139.5l137 -77q-103 -191 -307 -232q-172 -144 -172 -253q0 -81 82 -81q66 0 114 52zM885 639q-11 102 -32 153q-64 156 -250 156q-153 0 -235 -116q-50 -69 -73 -193h590z" />
    <glyph glyph-name="Ecaron" unicode="&#x11a;" horiz-adv-x="1268" vert-adv-y="2457" 
d="M197 0v1464h936v-141h-766v-516h635v-137h-635v-529h803v-141h-973zM611 1604l-205 331h117l162 -198l161 198h113l-205 -331h-143z" />
    <glyph glyph-name="ecaron" unicode="&#x11b;" horiz-adv-x="1165" vert-adv-y="2457" 
d="M1043 225q-140 -243 -423 -243q-216 0 -355 140q-152 153 -152 411q0 268 159 425q131 131 328 131q211 0 335 -140q124 -139 124 -392v-55h-770q8 -119 32 -182q75 -197 298 -197q100 0 164 40.5t123 139.5zM885 639q-11 102 -32 153q-64 156 -250 156q-153 0 -235 -116
q-50 -69 -73 -193h590zM531 1210l-205 332h117l162 -199l161 199h113l-205 -332h-143z" />
    <glyph glyph-name="Gcircumflex" unicode="&#x11c;" horiz-adv-x="1591" vert-adv-y="2457" 
d="M1267 270q-90 -151 -202.5 -219.5t-268.5 -68.5q-262 0 -437 177q-100 100 -155 245q-57 152 -57 327q0 311 168 523q185 233 495 233q240 0 390 -144q52 -49 87 -104.5t77 -155.5l-152 -57q-55 151 -124 219q-102 101 -275 101q-267 0 -396 -226q-90 -160 -90 -388
t89 -386q60 -106 158 -164q100 -59 227 -59q185 0 310 127q134 135 134 344v21h-398v141h564v-756h-111zM522 1604l201 331h153l199 -331h-117l-162 186l-161 -186h-113z" />
    <glyph glyph-name="gcircumflex" unicode="&#x11d;" horiz-adv-x="1149" vert-adv-y="2457" 
d="M397 90q-135 -69 -135 -178q0 -176 311 -176q336 0 336 201q0 149 -213 149h-231q-33 0 -68 4zM569 954q-100 0 -162 -45q-78 -57 -78 -167q0 -126 100 -183q62 -35 148 -35q113 0 175 55q61 55 61 158q0 108 -75 166q-67 51 -169 51zM766 1044l12 2l58 8l83 12l84 11
l58 9l12 1v-153h-160q70 -91 70 -205q0 -176 -131 -266q-109 -74 -274 -74q-106 0 -195 37q-55 -46 -55 -102q0 -52 34 -71.5t124 -19.5h211q192 0 289 -82q89 -76 89 -206q0 -176 -162 -268q-135 -77 -343 -77t-337 74q-137 79 -137 220q0 144 182 231q-104 57 -104 171
q0 115 117 183q-131 105 -131 262q0 165 124 264q106 84 270 84q109 0 212 -45zM297 1210l201 332h153l199 -332h-117l-162 186l-161 -186h-113z" />
    <glyph glyph-name="Gbreve" unicode="&#x11e;" horiz-adv-x="1591" vert-adv-y="2457" 
d="M1267 270q-90 -151 -202.5 -219.5t-268.5 -68.5q-262 0 -437 177q-100 100 -155 245q-57 152 -57 327q0 311 168 523q185 233 495 233q240 0 390 -144q52 -49 87 -104.5t77 -155.5l-152 -57q-55 151 -124 219q-102 101 -275 101q-267 0 -396 -226q-90 -160 -90 -388
t89 -386q60 -106 158 -164q100 -59 227 -59q185 0 310 127q134 135 134 344v21h-398v141h564v-756h-111zM1073 1878q-13 -120 -84 -187q-80 -75 -194 -75q-111 0 -187 72q-72 67 -84 190h133q14 -69 47.5 -100t95.5 -31q61 0 94.5 30.5t49.5 100.5h129z" />
    <glyph glyph-name="gbreve" unicode="&#x11f;" horiz-adv-x="1149" vert-adv-y="2457" 
d="M397 90q-135 -69 -135 -178q0 -176 311 -176q336 0 336 201q0 149 -213 149h-231q-33 0 -68 4zM569 954q-100 0 -162 -45q-78 -57 -78 -167q0 -126 100 -183q62 -35 148 -35q113 0 175 55q61 55 61 158q0 108 -75 166q-67 51 -169 51zM766 1044l12 2l58 8l83 12l84 11
l58 9l12 1v-153h-160q70 -91 70 -205q0 -176 -131 -266q-109 -74 -274 -74q-106 0 -195 37q-55 -46 -55 -102q0 -52 34 -71.5t124 -19.5h211q192 0 289 -82q89 -76 89 -206q0 -176 -162 -268q-135 -77 -343 -77t-337 74q-137 79 -137 220q0 144 182 231q-104 57 -104 171
q0 115 117 183q-131 105 -131 262q0 165 124 264q106 84 270 84q109 0 212 -45zM857 1524q-13 -120 -84 -187q-79 -75 -194 -75q-111 0 -187 72q-72 67 -84 190h133q14 -69 47.5 -100t95.5 -31t95 30.5t49 100.5h129z" />
    <glyph glyph-name="Gdotaccent" unicode="&#x120;" horiz-adv-x="1591" vert-adv-y="2457" 
d="M1267 270q-90 -151 -202.5 -219.5t-268.5 -68.5q-262 0 -437 177q-100 100 -155 245q-57 152 -57 327q0 311 168 523q185 233 495 233q240 0 390 -144q52 -49 87 -104.5t77 -155.5l-152 -57q-55 151 -124 219q-102 101 -275 101q-267 0 -396 -226q-90 -160 -90 -388
t89 -386q60 -106 158 -164q100 -59 227 -59q185 0 310 127q134 135 134 344v21h-398v141h564v-756h-111zM799 1829q43 0 75.5 -33t32.5 -76q0 -42 -32.5 -75t-75.5 -33q-44 0 -76.5 32.5t-32.5 75.5q0 44 33 76.5t76 32.5z" />
    <glyph glyph-name="gdotaccent" unicode="&#x121;" horiz-adv-x="1149" vert-adv-y="2457" 
d="M397 90q-135 -69 -135 -178q0 -176 311 -176q336 0 336 201q0 149 -213 149h-231q-33 0 -68 4zM569 954q-100 0 -162 -45q-78 -57 -78 -167q0 -126 100 -183q62 -35 148 -35q113 0 175 55q61 55 61 158q0 108 -75 166q-67 51 -169 51zM766 1044l12 2l58 8l83 12l84 11
l58 9l12 1v-153h-160q70 -91 70 -205q0 -176 -131 -266q-109 -74 -274 -74q-106 0 -195 37q-55 -46 -55 -102q0 -52 34 -71.5t124 -19.5h211q192 0 289 -82q89 -76 89 -206q0 -176 -162 -268q-135 -77 -343 -77t-337 74q-137 79 -137 220q0 144 182 231q-104 57 -104 171
q0 115 117 183q-131 105 -131 262q0 165 124 264q106 84 270 84q109 0 212 -45zM583 1493q43 0 75.5 -33t32.5 -76q0 -42 -32.5 -75t-75.5 -33q-44 0 -76.5 32.5t-32.5 75.5q0 44 33 76.5t76 32.5z" />
    <glyph glyph-name="Gcommaaccent" unicode="&#x122;" horiz-adv-x="1591" vert-adv-y="2457" 
d="M1267 270q-90 -151 -202.5 -219.5t-268.5 -68.5q-262 0 -437 177q-100 100 -155 245q-57 152 -57 327q0 311 168 523q185 233 495 233q240 0 390 -144q52 -49 87 -104.5t77 -155.5l-152 -57q-55 151 -124 219q-102 101 -275 101q-267 0 -396 -226q-90 -160 -90 -388
t89 -386q60 -106 158 -164q100 -59 227 -59q185 0 310 127q134 135 134 344v21h-398v141h564v-756h-111zM692 -496v90q107 16 113 109q-111 5 -111 100q0 45 30 74t77 29q55 0 87.5 -41.5t32.5 -111.5q0 -108 -59 -172t-170 -77z" />
    <glyph glyph-name="gcommaaccent" unicode="&#x123;" horiz-adv-x="1149" vert-adv-y="2457" 
d="M397 90q-135 -69 -135 -178q0 -176 311 -176q336 0 336 201q0 149 -213 149h-231q-33 0 -68 4zM569 954q-100 0 -162 -45q-78 -57 -78 -167q0 -126 100 -183q62 -35 148 -35q113 0 175 55q61 55 61 158q0 108 -75 166q-67 51 -169 51zM766 1044l12 2l58 8l83 12l84 11
l58 9l12 1v-153h-160q70 -91 70 -205q0 -176 -131 -266q-109 -74 -274 -74q-106 0 -195 37q-55 -46 -55 -102q0 -52 34 -71.5t124 -19.5h211q192 0 289 -82q89 -76 89 -206q0 -176 -162 -268q-135 -77 -343 -77t-337 74q-137 79 -137 220q0 144 182 231q-104 57 -104 171
q0 115 117 183q-131 105 -131 262q0 165 124 264q106 84 270 84q109 0 212 -45zM704 1581v-90q-108 -15 -113 -109q111 -4 111 -100q0 -44 -30.5 -73t-76.5 -29q-55 0 -87.5 41.5t-32.5 111.5q0 108 59 172t170 76z" />
    <glyph glyph-name="Hcircumflex" unicode="&#x124;" horiz-adv-x="1475" vert-adv-y="2457" 
d="M197 0v1464h170v-665h741v665h170v-1464h-170v652h-741v-652h-170zM459 1604l201 331h153l199 -331h-117l-162 186l-161 -186h-113z" />
    <glyph glyph-name="hcircumflex" unicode="&#x125;" vert-adv-y="2457" 
d="M197 0v1542h170v-635q98 182 325 182q167 0 259 -104q96 -108 96 -321v-664h-170v676q0 138 -55 202t-172 64q-129 0 -206 -78t-77 -209v-655h-170zM30 1681l201 331h153l199 -331h-117l-162 186l-161 -186h-113z" />
    <glyph glyph-name="Hbar" unicode="&#x126;" horiz-adv-x="1475" vert-adv-y="2457" 
d="M39 1051v137h158v276h170v-276h741v276h170v-276h158v-137h-158v-1051h-170v652h-741v-652h-170v1051h-158zM367 799h741v252h-741v-252z" />
    <glyph glyph-name="hbar" unicode="&#x127;" vert-adv-y="2457" 
d="M39 1227v141h158v174h170v-174h241v-141h-241v-320q98 182 325 182q167 0 259 -104q96 -108 96 -321v-664h-170v676q0 137 -55 201.5t-173 64.5q-127 0 -205 -78q-77 -78 -77 -209v-655h-170v1227h-158z" />
    <glyph glyph-name="Itilde" unicode="&#x128;" horiz-adv-x="620" vert-adv-y="2457" 
d="M225 0v1464h170v-1464h-170zM104 1616l-109 12q20 109 73 166q52 55 120 55q54 0 152 -54q69 -38 98 -38q63 0 79 96l109 -12q-20 -110 -74 -166q-52 -55 -120 -55q-53 0 -152 54q-69 38 -97 38q-64 0 -79 -96z" />
    <glyph glyph-name="itilde" unicode="&#x129;" horiz-adv-x="571" vert-adv-y="2457" 
d="M200 0v1071h170v-1071h-170zM79 1272l-109 12q20 109 73 166q52 55 120 55q54 0 152 -54q69 -38 98 -38q63 0 79 96l109 -12q-20 -110 -74 -166q-52 -55 -120 -55q-54 0 -152 54q-68 38 -97 38q-63 0 -79 -96z" />
    <glyph glyph-name="Imacron" unicode="&#x12a;" horiz-adv-x="621" vert-adv-y="2457" 
d="M226 0v1464h170v-1464h-170zM70 1636v129h496v-129h-496z" />
    <glyph glyph-name="imacron" unicode="&#x12b;" horiz-adv-x="571" vert-adv-y="2457" 
d="M201 0v1071h170v-1071h-170zM39 1325v129h496v-129h-496z" />
    <glyph glyph-name="Ibreve" unicode="&#x12c;" horiz-adv-x="621" vert-adv-y="2457" 
d="M225 0v1464h170v-1464h-170zM9 1867h133q8 -161 176 -161q169 0 176 161h133q-1 -114 -55 -188q-75 -104 -254 -104q-195 0 -268 125q-40 69 -41 167z" />
    <glyph glyph-name="ibreve" unicode="&#x12d;" horiz-adv-x="572" vert-adv-y="2457" 
d="M201 0v1071h170v-1071h-170zM560 1524q-13 -120 -84 -187q-79 -75 -194 -75q-111 0 -187 72q-72 67 -84 190h133q14 -69 47.5 -100t95.5 -31t95 30.5t49 100.5h129z" />
    <glyph glyph-name="Iogonek" unicode="&#x12e;" horiz-adv-x="621" vert-adv-y="2457" 
d="M456 -363q-76 -76 -191 -76q-93 0 -147.5 46t-54.5 124q0 134 162 254v1479h170v-1464h-25q-182 -144 -182 -260q0 -81 83 -81q65 0 114 52z" />
    <glyph glyph-name="iogonek" unicode="&#x12f;" horiz-adv-x="571" vert-adv-y="2457" 
d="M430 -363q-42 -41 -85 -58t-106 -17q-93 0 -147.5 45.5t-54.5 124.5q0 135 164 254v1085h170v-1057q-96 -60 -152.5 -134.5t-56.5 -138.5q0 -81 83 -81q65 0 114 51zM283 1496q46 0 79 -33.5t33 -79.5q0 -45 -33 -78.5t-79 -33.5q-47 0 -80 33t-33 79q0 47 33.5 80
t79.5 33z" />
    <glyph glyph-name="Idotaccent" unicode="&#x130;" horiz-adv-x="621" vert-adv-y="2457" 
d="M225 0v1464h170v-1464h-170zM318 1829q43 0 75.5 -33t32.5 -76q0 -42 -32.5 -75t-75.5 -33q-44 0 -76.5 32.5t-32.5 75.5q0 44 33 76.5t76 32.5z" />
    <glyph glyph-name="IJ" unicode="&#x132;" horiz-adv-x="1561" vert-adv-y="2457" 
d="M166 0v1464h170v-1464h-170zM1374 1464v-981q0 -278 -137 -403q-107 -98 -292 -98q-207 0 -324 126q-105 113 -105 301v107h170v-84q0 -313 253 -313q265 0 265 340v1005h170z" />
    <glyph glyph-name="ij" unicode="&#x133;" horiz-adv-x="917" vert-adv-y="2457" 
d="M201 0v1071h170v-1071h-170zM283 1496q46 0 79 -33.5t33 -79.5q0 -45 -33 -78.5t-79 -33.5q-47 0 -80 33t-33 79q0 47 33.5 80t79.5 33zM723 1071v-1165q0 -156 -83 -231q-70 -64 -197 -64q-74 0 -136 33l39 129q48 -21 80 -21q127 0 127 135v1184h170zM635 1496
q45 0 78.5 -33.5t33.5 -79.5q0 -45 -33.5 -78.5t-78.5 -33.5q-47 0 -80 33t-33 79q0 47 33 80t80 33z" />
    <glyph glyph-name="Jcircumflex" unicode="&#x134;" horiz-adv-x="1149" vert-adv-y="2457" 
d="M962 1464v-981q0 -278 -137 -403q-107 -98 -292 -98q-207 0 -324 126q-105 113 -105 301v107h170v-84q0 -313 253 -313q265 0 265 340v1005h170zM604 1604l201 331h153l199 -331h-117l-162 186l-161 -186h-113z" />
    <glyph glyph-name="jcircumflex" unicode="&#x135;" horiz-adv-x="571" vert-adv-y="2457" 
d="M371 1071v-1165q0 -156 -83 -231q-70 -64 -197 -64q-73 0 -136 33l39 129l12 -6q33 -15 69 -15q126 0 126 135v1184h170zM12 1210l201 332h153l199 -332h-117l-162 186l-161 -186h-113z" />
    <glyph glyph-name="Kcommaaccent" unicode="&#x136;" horiz-adv-x="1313" vert-adv-y="2457" 
d="M197 0v1464h170v-743l651 743h197l-539 -608l565 -856h-190l-483 735l-201 -227v-508h-170zM557 -496v90q107 16 113 109q-111 5 -111 100q0 45 30 74t77 29q55 0 87.5 -41.5t32.5 -111.5q0 -108 -59 -172t-170 -77z" />
    <glyph glyph-name="kcommaaccent" unicode="&#x137;" horiz-adv-x="1114" vert-adv-y="2457" 
d="M865 0l-336 522l-162 -186v-336h-170v1542h170v-985l436 514h201l-365 -420l418 -651h-192zM484 -496v90q107 16 113 109q-111 5 -111 100q0 45 30 74t77 29q55 0 87.5 -41.5t32.5 -111.5q0 -108 -59 -172t-170 -77z" />
    <glyph glyph-name="kgreenlandic" unicode="&#x138;" horiz-adv-x="1242" vert-adv-y="2457" 
d="M197 1v1070h164v-530l565 530h193l-483 -448l504 -622h-186l-424 524l-169 -151v-373h-164z" />
    <glyph glyph-name="Lacute" unicode="&#x139;" horiz-adv-x="1212" vert-adv-y="2457" 
d="M197 0v1464h170v-1323h729v-141h-899zM226 1604l119 331h223l-225 -331h-117z" />
    <glyph glyph-name="lacute" unicode="&#x13a;" horiz-adv-x="573" vert-adv-y="2457" 
d="M201 0v1542h170v-1542h-170zM230 1681l119 332h223l-225 -332h-117z" />
    <glyph glyph-name="Lcommaaccent" unicode="&#x13b;" horiz-adv-x="1212" vert-adv-y="2457" 
d="M197 0v1464h170v-1323h729v-141h-899zM531 -496v90q107 16 113 109q-111 5 -111 100q0 45 30 74t77 29q55 0 87.5 -41.5t32.5 -111.5q0 -108 -59 -172t-170 -77z" />
    <glyph glyph-name="lcommaaccent" unicode="&#x13c;" horiz-adv-x="573" vert-adv-y="2457" 
d="M201 0v1542h170v-1542h-170zM170 -496v90q107 16 113 109q-111 5 -111 100q0 45 30 74t77 29q55 0 87.5 -41.5t32.5 -111.5q0 -108 -59 -172t-170 -77z" />
    <glyph glyph-name="Lcaron" unicode="&#x13d;" horiz-adv-x="1212" vert-adv-y="2457" 
d="M197 0v1464h170v-1323h729v-141h-899zM820 1085v90q107 15 113 109q-111 4 -111 100q0 45 30 74t77 29q55 0 87.5 -41.5t32.5 -111.5q0 -108 -59.5 -172.5t-169.5 -76.5z" />
    <glyph glyph-name="lcaron" unicode="&#x13e;" horiz-adv-x="721" vert-adv-y="2457" 
d="M201 0v1542h170v-1542h-170zM543 1153v90q107 15 113 109q-111 4 -111 99q0 45 30 74t77 29q55 0 87.5 -41.5t32.5 -111.5q0 -108 -59.5 -172t-169.5 -76z" />
    <glyph glyph-name="Ldot" unicode="&#x13f;" horiz-adv-x="1212" vert-adv-y="2457" 
d="M197 0v1464h170v-1323h729v-141h-899zM873 801q54 0 92 -38.5t38 -92.5t-38 -92.5t-93 -38.5t-93 38t-38 93t38.5 93t93.5 38z" />
    <glyph glyph-name="ldot" unicode="&#x140;" horiz-adv-x="573" vert-adv-y="2457" 
d="M201 0v1542h170v-1542h-170zM657 801q54 0 92 -38.5t38 -92.5t-38 -92.5t-93 -38.5t-93 38t-38 93t38.5 93t93.5 38z" />
    <glyph glyph-name="Lslash" unicode="&#x141;" horiz-adv-x="1249" vert-adv-y="2457" 
d="M70 514v141l164 66v743h170v-676l340 139v-141l-340 -139v-506h729v-141h-899v579z" />
    <glyph glyph-name="lslash" unicode="&#x142;" horiz-adv-x="684" vert-adv-y="2457" 
d="M72 561v158l182 94v729h170v-639l221 117v-158l-221 -117v-745h-170v655z" />
    <glyph glyph-name="Nacute" unicode="&#x143;" horiz-adv-x="1470" vert-adv-y="2457" 
d="M197 0v1464h231l686 -1284v1284h160v-1464h-244l-673 1259v-1259h-160zM709 1604l119 331h223l-225 -331h-117z" />
    <glyph glyph-name="nacute" unicode="&#x144;" vert-adv-y="2457" 
d="M197 0v1071h170v-164q98 182 325 182q167 0 259 -104q96 -108 96 -321v-664h-170v676q0 138 -55 202t-172 64q-129 0 -206 -78t-77 -209v-655h-170zM586 1210l119 332h223l-225 -332h-117z" />
    <glyph glyph-name="Ncommaaccent" unicode="&#x145;" horiz-adv-x="1470" vert-adv-y="2457" 
d="M197 0v1464h231l686 -1284v1284h160v-1464h-244l-673 1259v-1259h-160zM623 -496v90q107 16 113 109q-111 5 -111 100q0 45 30 74t77 29q55 0 87.5 -41.5t32.5 -111.5q0 -108 -59 -172t-170 -77z" />
    <glyph glyph-name="ncommaaccent" unicode="&#x146;" vert-adv-y="2457" 
d="M197 0v1071h170v-164q98 182 325 182q167 0 259 -104q96 -108 96 -321v-664h-170v676q0 138 -55 202t-172 64q-129 0 -206 -78t-77 -209v-655h-170zM506 -496v90q107 16 113 109q-111 5 -111 100q0 45 30 74t77 29q55 0 87.5 -41.5t32.5 -111.5q0 -108 -59 -172t-170 -77
z" />
    <glyph glyph-name="Ncaron" unicode="&#x147;" horiz-adv-x="1470" vert-adv-y="2457" 
d="M197 0v1464h231l686 -1284v1284h160v-1464h-244l-673 1259v-1259h-160zM697 1604l-205 331h117l162 -198l161 198h113l-205 -331h-143z" />
    <glyph glyph-name="ncaron" unicode="&#x148;" vert-adv-y="2457" 
d="M197 0v1071h170v-164q98 182 325 182q167 0 259 -104q96 -108 96 -321v-664h-170v676q0 138 -55 202t-172 64q-129 0 -206 -78t-77 -209v-655h-170zM576 1210l-205 332h117l162 -199l161 199h113l-205 -332h-143z" />
    <glyph glyph-name="napostrophe" unicode="&#x149;" vert-adv-y="2457" 
d="M197 0v1071h170v-164q98 182 325 182q168 0 260 -104q95 -108 95 -321v-664h-170v676q0 138 -55 202t-172 64q-129 0 -206 -78t-77 -209v-655h-170zM-140 1024v97q120 37 129 180q-67 3 -104 37.5t-37 92.5q0 57 36 93.5t92 36.5q68 0 106 -51.5t38 -144.5
q0 -160 -75 -249q-61 -72 -185 -92z" />
    <glyph glyph-name="Eng" unicode="&#x14a;" vert-adv-y="2457" 
d="M340 1255q98 235 340 235q103 0 170 -39q197 -113 196 -509l-1 -959q-1 -379 -287 -379q-17 0 -26 2v180h17q126 0 126 173l1 999q1 196 -67 276q-55 66 -169 66q-76 0 -129 -24t-94 -77q-77 -99 -77 -267v-930h-170v1464h170v-211z" />
    <glyph glyph-name="eng" unicode="&#x14b;" vert-adv-y="2457" 
d="M367 907q98 182 325 182q168 0 260 -104q96 -108 95 -321l-1 -679q-1 -295 -282 -295q-15 0 -31 2v140q6 -1 15 -1q128 0 128 136l1 709q1 137 -54 201.5t-173 64.5q-128 0 -205.5 -78.5t-77.5 -208.5v-655h-170v1071h170v-164z" />
    <glyph glyph-name="Omacron" unicode="&#x14c;" horiz-adv-x="1649" vert-adv-y="2457" 
d="M824 1482q274 0 462 -188q215 -216 215 -562q0 -215 -89 -388q-92 -179 -257 -275q-151 -87 -331 -87q-274 0 -462 188q-215 215 -215 569q0 209 89 381q95 183 257 275q154 87 331 87zM824 1341q-130 0 -238 -63q-143 -85 -211 -263q-48 -127 -48 -277q0 -288 144 -455
q138 -160 353 -160q238 0 377 191q120 164 120 418q0 282 -144 449q-138 160 -353 160zM583 1636v129h496v-129h-496z" />
    <glyph glyph-name="omacron" unicode="&#x14d;" horiz-adv-x="1237" vert-adv-y="2457" 
d="M623 1089q205 0 346 -142q156 -157 156 -411t-156 -412q-141 -142 -351 -142q-205 0 -345 139q-160 158 -160 414q0 252 155 411q141 143 355 143zM624 948q-185 0 -274 -152q-61 -105 -61 -263q0 -222 119 -332q84 -78 209 -78q183 0 271 153q61 105 61 259
q0 155 -61 259q-90 154 -264 154zM381 1321v129h496v-129h-496z" />
    <glyph glyph-name="Obreve" unicode="&#x14e;" horiz-adv-x="1649" vert-adv-y="2457" 
d="M824 1482q274 0 462 -188q215 -216 215 -562q0 -215 -89 -388q-92 -179 -257 -275q-151 -87 -331 -87q-274 0 -462 188q-215 215 -215 569q0 209 89 381q95 183 257 275q154 87 331 87zM824 1341q-130 0 -238 -63q-143 -85 -211 -263q-48 -127 -48 -277q0 -288 144 -455
q138 -160 353 -160q238 0 377 191q120 164 120 418q0 282 -144 449q-138 160 -353 160zM515 1867h133q8 -161 176 -161q169 0 176 161h133q-1 -114 -55 -188q-75 -104 -254 -104q-195 0 -268 125q-40 69 -41 167z" />
    <glyph glyph-name="obreve" unicode="&#x14f;" horiz-adv-x="1237" vert-adv-y="2457" 
d="M623 1089q205 0 346 -142q156 -157 156 -411t-156 -412q-141 -142 -351 -142q-205 0 -345 139q-160 158 -160 414q0 252 155 411q141 143 355 143zM624 948q-185 0 -274 -152q-61 -105 -61 -263q0 -222 119 -332q84 -78 209 -78q183 0 271 153q61 105 61 259
q0 155 -61 259q-90 154 -264 154zM330 1538h133q7 -161 156 -161t155 161h134q-2 -114 -52 -188q-70 -104 -237 -104q-183 0 -251 126q-37 68 -38 166z" />
    <glyph glyph-name="Ohungarumlaut" unicode="&#x150;" horiz-adv-x="1649" vert-adv-y="2457" 
d="M824 1482q274 0 462 -188q215 -216 215 -562q0 -215 -89 -388q-92 -179 -257 -275q-151 -87 -331 -87q-274 0 -462 188q-215 215 -215 569q0 209 89 381q95 183 257 275q154 87 331 87zM824 1341q-130 0 -238 -63q-143 -85 -211 -263q-48 -127 -48 -277q0 -288 144 -455
q138 -160 353 -160q238 0 377 191q120 164 120 418q0 282 -144 449q-138 160 -353 160zM909 1603l78 332h198l-168 -332h-108zM614 1603l78 332h198l-167 -332h-109z" />
    <glyph glyph-name="ohungarumlaut" unicode="&#x151;" horiz-adv-x="1237" vert-adv-y="2457" 
d="M623 1089q205 0 346 -142q156 -157 156 -411t-156 -412q-141 -142 -351 -142q-205 0 -345 139q-160 158 -160 414q0 252 155 411q141 143 355 143zM624 948q-185 0 -274 -152q-61 -105 -61 -263q0 -222 119 -332q84 -78 209 -78q183 0 271 153q61 105 61 259
q0 155 -61 259q-90 154 -264 154zM707 1210l78 332h198l-168 -332h-108zM412 1210l78 332h198l-167 -332h-109z" />
    <glyph glyph-name="Racute" unicode="&#x154;" horiz-adv-x="1374" vert-adv-y="2457" 
d="M197 0v1464h533q244 0 363 -114q112 -108 112 -283q0 -150 -76.5 -240t-235.5 -125q123 -40 178.5 -109.5t87.5 -222.5q54 -267 121 -360v-10h-178q-38 64 -61 137.5t-51 224.5q-32 167 -117 234q-74 58 -227 58h-279v-654h-170zM367 791h340q324 0 324 275
q0 257 -295 257h-369v-532zM592 1604l119 331h223l-225 -331h-117z" />
    <glyph glyph-name="racute" unicode="&#x155;" horiz-adv-x="827" vert-adv-y="2457" 
d="M197 0v1071h170v-172q103 190 287 190q94 0 174 -43l-70 -143q-60 32 -125 32q-114 0 -186 -82q-80 -92 -80 -265v-588h-170zM420 1210l119 332h223l-225 -332h-117z" />
    <glyph glyph-name="Rcommaaccent" unicode="&#x156;" horiz-adv-x="1374" vert-adv-y="2457" 
d="M197 0v1464h533q244 0 363 -114q112 -108 112 -283q0 -150 -76.5 -240t-235.5 -125q123 -40 178.5 -109.5t87.5 -222.5q54 -267 121 -360v-10h-178q-38 64 -61 137.5t-51 224.5q-32 167 -117 234q-74 58 -227 58h-279v-654h-170zM367 791h340q324 0 324 275
q0 257 -295 257h-369v-532zM594 -496v90q107 16 113 109q-111 5 -111 100q0 45 30 74t77 29q55 0 87.5 -41.5t32.5 -111.5q0 -108 -59 -172t-170 -77z" />
    <glyph glyph-name="rcommaaccent" unicode="&#x157;" horiz-adv-x="827" vert-adv-y="2457" 
d="M197 0v1071h170v-172q103 190 287 190q94 0 174 -43l-70 -143q-60 32 -125 32q-114 0 -186 -82q-80 -92 -80 -265v-588h-170zM170 -496v90q107 16 113 109q-111 5 -111 100q0 45 30 74t77 29q55 0 87.5 -41.5t32.5 -111.5q0 -108 -59 -172t-170 -77z" />
    <glyph glyph-name="Rcaron" unicode="&#x158;" horiz-adv-x="1374" vert-adv-y="2457" 
d="M197 0v1464h533q244 0 363 -114q112 -108 112 -283q0 -150 -76.5 -240t-235.5 -125q123 -40 178.5 -109.5t87.5 -222.5q54 -267 121 -360v-10h-178q-38 64 -61 137.5t-51 224.5q-32 167 -117 234q-74 58 -227 58h-279v-654h-170zM367 791h340q324 0 324 275
q0 257 -295 257h-369v-532zM580 1604l-205 331h117l162 -198l161 198h113l-205 -331h-143z" />
    <glyph glyph-name="rcaron" unicode="&#x159;" horiz-adv-x="827" vert-adv-y="2457" 
d="M197 0v1071h170v-172q103 190 287 190q94 0 174 -43l-70 -143q-60 32 -125 32q-114 0 -186 -82q-80 -92 -80 -265v-588h-170zM420 1210l-205 332h117l162 -199l161 199h113l-205 -332h-143z" />
    <glyph glyph-name="Sacute" unicode="&#x15a;" horiz-adv-x="1350" vert-adv-y="2457" 
d="M1004 1108q-56 127 -136.5 180t-217.5 53q-135 0 -212 -57q-87 -65 -87 -179q0 -118 100 -176q43 -25 90.5 -40.5t163.5 -42.5q138 -31 220 -63.5t139 -77.5q136 -108 136 -299q0 -237 -196 -348q-135 -76 -318 -76q-220 0 -367 106t-200 303l162 29q86 -297 404 -297
q144 0 238 62q111 73 111 216q0 110 -71 172q-43 37 -106.5 61t-219.5 62q-127 31 -200.5 60t-127.5 70q-124 92 -124 267q0 187 136 293q124 96 326 96q243 0 382 -134q75 -72 126 -199zM596 1604l119 331h223l-225 -331h-117z" />
    <glyph glyph-name="sacute" unicode="&#x15b;" horiz-adv-x="1042" vert-adv-y="2457" 
d="M774 821q-66 72 -122.5 99.5t-137.5 27.5t-132 -28q-66 -37 -66 -117q0 -71 54 -107q46 -30 192 -67q122 -30 179 -54t102 -65q85 -77 85 -209q0 -145 -103 -227q-115 -92 -301 -92q-280 0 -442 206l123 101q71 -95 138 -130.5t175 -35.5q244 0 244 165q0 79 -61 118
q-31 20 -67 32t-147 39q-151 36 -225 90q-112 81 -112 226q0 153 119 233q95 63 246 63q124 0 208.5 -35.5t161.5 -119.5zM440 1210l119 332h223l-225 -332h-117z" />
    <glyph glyph-name="Scircumflex" unicode="&#x15c;" horiz-adv-x="1350" vert-adv-y="2457" 
d="M1004 1108q-56 127 -136.5 180t-217.5 53q-135 0 -212 -57q-87 -65 -87 -179q0 -118 100 -176q43 -25 90.5 -40.5t163.5 -42.5q138 -31 220 -63.5t139 -77.5q136 -108 136 -299q0 -237 -196 -348q-135 -76 -318 -76q-220 0 -367 106t-200 303l162 29q86 -297 404 -297
q144 0 238 62q111 73 111 216q0 110 -71 172q-43 37 -106.5 61t-219.5 62q-127 31 -200.5 60t-127.5 70q-124 92 -124 267q0 187 136 293q124 96 326 96q243 0 382 -134q75 -72 126 -199zM379 1604l201 331h153l199 -331h-117l-162 186l-161 -186h-113z" />
    <glyph glyph-name="scircumflex" unicode="&#x15d;" horiz-adv-x="1042" vert-adv-y="2457" 
d="M774 821q-66 72 -122.5 99.5t-137.5 27.5t-132 -28q-66 -37 -66 -117q0 -71 54 -107q46 -30 192 -67q122 -30 179 -54t102 -65q85 -77 85 -209q0 -145 -103 -227q-115 -92 -301 -92q-280 0 -442 206l123 101q71 -95 138 -130.5t175 -35.5q244 0 244 165q0 79 -61 118
q-31 20 -67 32t-147 39q-151 36 -225 90q-112 81 -112 226q0 153 119 233q95 63 246 63q124 0 208.5 -35.5t161.5 -119.5zM235 1210l201 332h153l199 -332h-117l-162 186l-161 -186h-113z" />
    <glyph glyph-name="Scedilla" unicode="&#x15e;" horiz-adv-x="1350" vert-adv-y="2457" 
d="M658 -18q-210 8 -349.5 113.5t-189.5 295.5l162 29q86 -297 404 -297q144 0 238 62q111 73 111 216q0 110 -71 172q-43 37 -106.5 61t-219.5 62q-127 31 -200.5 60t-127.5 70q-124 92 -124 267q0 187 136 293q124 96 326 96q243 0 382 -134q74 -72 126 -199l-151 -41
q-56 127 -136.5 180t-217.5 53q-135 0 -212 -57q-87 -65 -87 -179q0 -119 100 -177q43 -25 90.5 -40.5t163.5 -41.5q138 -31 220 -63.5t139 -78.5q136 -108 136 -299q0 -294 -296 -391q-72 -24 -149 -30l-79 -109q31 10 53 10q64 0 105 -43.5t41 -111.5q0 -78 -55 -123.5
t-150 -45.5q-113 0 -197 84l80 68q42 -54 112 -54q85 0 85 72q0 68 -71 68q-41 0 -60 -23l-78 50z" />
    <glyph glyph-name="scedilla" unicode="&#x15f;" horiz-adv-x="1042" vert-adv-y="2457" 
d="M456 -15q-232 23 -374 203l123 101q71 -95 138 -130.5t175 -35.5q244 0 244 165q0 79 -61 118q-31 20 -67 32t-147 39q-151 36 -225 90q-112 81 -112 226q0 153 119 233q95 63 246 63q124 0 208.5 -35.5t161.5 -119.5l-111 -113q-66 72 -122.5 99.5t-137.5 27.5t-132 -29
q-66 -36 -66 -116q0 -71 54 -107q46 -30 192 -67q122 -30 179 -54t102 -65q85 -77 85 -209q0 -142 -98.5 -225.5t-278.5 -93.5l-78 -107q32 10 53 10q64 0 105 -43.5t41 -111.5q0 -78 -55 -123t-150 -45q-113 0 -197 84l80 67q42 -53 112 -53q85 0 85 72q0 67 -72 67
q-40 0 -59 -22l-78 49z" />
    <glyph glyph-name="Scaron" unicode="&#x160;" horiz-adv-x="1350" vert-adv-y="2457" 
d="M1004 1108q-56 127 -136.5 180t-217.5 53q-135 0 -212 -57q-87 -65 -87 -179q0 -118 100 -176q43 -25 90.5 -40.5t163.5 -42.5q138 -31 220 -63.5t139 -77.5q136 -108 136 -299q0 -237 -196 -348q-135 -76 -318 -76q-220 0 -367 106t-200 303l162 29q86 -297 404 -297
q144 0 238 62q111 73 111 216q0 110 -71 172q-43 37 -106.5 61t-219.5 62q-127 31 -200.5 60t-127.5 70q-124 92 -124 267q0 187 136 293q124 96 326 96q243 0 382 -134q75 -72 126 -199zM584 1604l-205 331h117l162 -198l161 198h113l-205 -331h-143z" />
    <glyph glyph-name="scaron" unicode="&#x161;" horiz-adv-x="1042" vert-adv-y="2457" 
d="M774 821q-66 72 -122.5 99.5t-137.5 27.5t-132 -28q-66 -37 -66 -117q0 -71 54 -107q46 -30 192 -67q122 -30 179 -54t102 -65q85 -77 85 -209q0 -145 -103 -227q-115 -92 -301 -92q-280 0 -442 206l123 101q71 -95 138 -130.5t175 -35.5q244 0 244 165q0 79 -61 118
q-31 20 -67 32t-147 39q-151 36 -225 90q-112 81 -112 226q0 153 119 233q95 63 246 63q124 0 208.5 -35.5t161.5 -119.5zM440 1210l-205 332h117l162 -199l161 199h113l-205 -332h-143z" />
    <glyph glyph-name="Tcommaaccent" unicode="&#x162;" horiz-adv-x="1192" vert-adv-y="2457" 
d="M512 0v1323h-455v141h1077v-141h-452v-1323h-170zM481 -496v90q107 16 113 109q-111 5 -111 100q0 45 30 74t77 29q55 0 87.5 -41.5t32.5 -111.5q0 -108 -59 -172t-170 -77z" />
    <glyph glyph-name="tcommaaccent" unicode="&#x163;" horiz-adv-x="793" vert-adv-y="2457" 
d="M74 930v141h164v278l170 41v-319h270v-141h-270v-653q0 -154 123 -154q78 0 145 51l66 -117q-99 -75 -221 -75q-144 0 -220 84q-63 69 -63 178v686h-164zM338 -496v90q107 16 113 109q-111 5 -111 100q0 45 30 74t77 29q55 0 87.5 -41.5t32.5 -111.5q0 -108 -59 -172
t-170 -77z" />
    <glyph glyph-name="Tcaron" unicode="&#x164;" horiz-adv-x="1192" vert-adv-y="2457" 
d="M512 0v1323h-455v141h1077v-141h-452v-1323h-170zM528 1604l-205 331h117l162 -198l161 198h113l-205 -331h-143z" />
    <glyph glyph-name="tcaron" unicode="&#x165;" horiz-adv-x="967" vert-adv-y="2457" 
d="M74 930v141h164v278l170 41v-319h270v-141h-270v-653q0 -154 123 -154q78 0 145 51l66 -117q-99 -75 -221 -75q-144 0 -220 84q-63 69 -63 178v686h-164zM789 1153v90q107 15 113 109q-111 4 -111 99q0 45 30 74t77 29q55 0 87.5 -41.5t32.5 -111.5q0 -108 -59.5 -172
t-169.5 -76z" />
    <glyph glyph-name="Tbar" unicode="&#x166;" horiz-adv-x="1192" vert-adv-y="2457" 
d="M512 588h-239v162h239v573h-455v141h1077v-141h-452v-573h254v-162h-254v-588h-170v588z" />
    <glyph glyph-name="tbar" unicode="&#x167;" horiz-adv-x="793" vert-adv-y="2457" 
d="M407 781h270v-143h-270v-361q0 -154 123 -154q78 0 145 51l65 -117q-97 -75 -220 -75q-143 0 -220 84q-63 69 -63 178v394h-165v143h165v149h-164v141h164v278l170 41v-319h270v-141h-270v-149z" />
    <glyph glyph-name="Utilde" unicode="&#x168;" horiz-adv-x="1444" vert-adv-y="2457" 
d="M1253 1464v-911q0 -243 -106 -386q-138 -185 -434 -185q-257 0 -392 146q-131 141 -131 402v934h170v-913q0 -220 79 -320q85 -108 281 -108q211 0 296 121q77 109 77 333v887h160zM515 1616l-109 12q20 109 73 166q52 55 120 55q54 0 152 -54q69 -38 98 -38q63 0 79 96
l109 -12q-20 -110 -74 -166q-52 -55 -120 -55q-53 0 -152 54q-69 38 -97 38q-64 0 -79 -96z" />
    <glyph glyph-name="utilde" unicode="&#x169;" horiz-adv-x="1214" vert-adv-y="2457" 
d="M848 164q-99 -182 -325 -182q-164 0 -254 104q-93 108 -93 322v663h170v-676q0 -138 52.5 -202t167.5 -64q127 0 205 78q77 78 77 209v655h170v-1071h-170v164zM391 1272l-109 12q20 109 73 166q52 55 120 55q54 0 152 -54q69 -38 98 -38q63 0 79 96l109 -12
q-20 -110 -74 -166q-52 -55 -120 -55q-54 0 -152 54q-68 38 -97 38q-63 0 -79 -96z" />
    <glyph glyph-name="Umacron" unicode="&#x16a;" horiz-adv-x="1444" vert-adv-y="2457" 
d="M1253 1464v-911q0 -243 -106 -386q-138 -185 -434 -185q-257 0 -392 146q-131 141 -131 402v934h170v-913q0 -220 79 -320q85 -108 281 -108q211 0 296 121q77 109 77 333v887h160zM477 1636v129h496v-129h-496z" />
    <glyph glyph-name="umacron" unicode="&#x16b;" horiz-adv-x="1215" vert-adv-y="2457" 
d="M848 164q-99 -182 -325 -182q-164 0 -254 104q-93 108 -93 322v663h170v-676q0 -138 52.5 -202t167.5 -64q127 0 205 78q77 78 77 209v655h170v-1071h-170v164zM349 1321v129h496v-129h-496z" />
    <glyph glyph-name="Ubreve" unicode="&#x16c;" horiz-adv-x="1444" vert-adv-y="2457" 
d="M999 1878q-13 -120 -84 -187q-79 -75 -194 -75q-111 0 -187 72q-72 67 -84 190h133q14 -69 48 -100t95 -31q62 0 95 30.5t49 100.5h129zM1253 1464v-911q0 -243 -106 -386q-138 -185 -434 -185q-257 0 -392 146q-131 141 -131 402v934h170v-913q0 -220 79 -320
q85 -108 281 -108q211 0 296 121q77 109 77 333v887h160z" />
    <glyph glyph-name="ubreve" unicode="&#x16d;" horiz-adv-x="1215" vert-adv-y="2457" 
d="M883 1524q-12 -120 -84 -187q-79 -75 -193 -75q-112 0 -188 72q-71 67 -84 190h133q14 -69 48 -100t96 -31q61 0 94 30.5t49 100.5h129zM848 164q-99 -182 -325 -182q-164 0 -254 104q-93 108 -93 322v663h170v-676q0 -138 52.5 -202t167.5 -64q127 0 205 78
q77 78 77 209v655h170v-1071h-170v164z" />
    <glyph glyph-name="Uring" unicode="&#x16e;" horiz-adv-x="1444" vert-adv-y="2457" 
d="M1253 1464v-911q0 -243 -106 -386q-138 -185 -434 -185q-257 0 -392 146q-131 141 -131 402v934h170v-913q0 -220 79 -320q85 -108 281 -108q211 0 296 121q77 109 77 333v887h160zM726 2015q88 0 151.5 -63t63.5 -150q0 -88 -63.5 -150.5t-153.5 -62.5t-153.5 62
t-63.5 151t63.5 151t155.5 62zM725 1917q-50 0 -83 -32.5t-33 -82.5q0 -49 32.5 -82t81.5 -33q50 0 83 32.5t33 82.5q0 49 -33 82t-81 33z" />
    <glyph glyph-name="uring" unicode="&#x16f;" horiz-adv-x="1215" vert-adv-y="2457" 
d="M848 141q-99 -182 -325 -182q-164 0 -254 104q-93 108 -93 322v663h170v-676q0 -138 52.5 -202t167.5 -64q127 0 205 78q77 78 77 209v655h170v-1071h-170v164zM599 1599q88 0 151.5 -63t63.5 -150q0 -88 -63.5 -150.5t-153.5 -62.5t-153.5 62t-63.5 151t63.5 151
t155.5 62zM598 1501q-50 0 -83 -32.5t-33 -82.5q0 -49 32.5 -82t81.5 -33q50 0 83 32.5t33 82.5q0 49 -33 82t-81 33z" />
    <glyph glyph-name="Uhungarumlaut" unicode="&#x170;" horiz-adv-x="1444" vert-adv-y="2457" 
d="M1253 1464v-911q0 -243 -106 -386q-138 -185 -434 -185q-257 0 -392 146q-131 141 -131 402v934h170v-913q0 -220 79 -320q85 -108 281 -108q211 0 296 121q77 109 77 333v887h160zM802 1603l78 332h198l-168 -332h-108zM507 1603l78 332h198l-167 -332h-109z" />
    <glyph glyph-name="uhungarumlaut" unicode="&#x171;" horiz-adv-x="1214" vert-adv-y="2457" 
d="M848 164q-99 -182 -325 -182q-164 0 -254 104q-93 108 -93 322v663h170v-676q0 -138 52.5 -202t167.5 -64q127 0 205 78q77 78 77 209v655h170v-1071h-170v164zM687 1210l78 332h198l-168 -332h-108zM392 1210l78 332h198l-167 -332h-109z" />
    <glyph glyph-name="Uogonek" unicode="&#x172;" horiz-adv-x="1444" vert-adv-y="2457" 
d="M1253 1464v-911q0 -480 -397 -559q-172 -145 -172 -254q0 -81 82 -81q65 0 114 52l72 -74q-77 -76 -189 -76q-95 0 -149.5 45.5t-54.5 124.5q0 130 157 250q-229 0 -360 113q-166 142 -166 436v934h170v-913q0 -220 79 -320q85 -108 281 -108q211 0 296 121
q77 109 77 333v887h160z" />
    <glyph glyph-name="uogonek" unicode="&#x173;" horiz-adv-x="1214" vert-adv-y="2457" 
d="M1077 -362q-76 -76 -191 -76q-93 0 -147.5 45.5t-54.5 124.5q0 135 164 254v178q-99 -182 -325 -182q-164 0 -254 104q-93 108 -93 322v663h170v-676q0 -138 52.5 -202t167.5 -64q127 0 205 78q77 78 77 209v655h170v-1057q-96 -60 -152.5 -134.5t-56.5 -138.5
q0 -81 83 -81q65 0 114 51z" />
    <glyph glyph-name="Wcircumflex" unicode="&#x174;" horiz-adv-x="1925" vert-adv-y="2457" 
d="M454 0l-395 1464h178l297 -1167l367 1167h135l358 -1171l310 1171h161l-395 -1464h-139l-365 1179l-375 -1179h-137zM686 1604l201 331h153l199 -331h-117l-162 186l-161 -186h-113z" />
    <glyph glyph-name="wcircumflex" unicode="&#x175;" horiz-adv-x="1696" vert-adv-y="2457" 
d="M394 0l-322 1071h184l236 -862l276 862h185l258 -862l239 862h174l-325 -1071h-189l-252 858l-278 -858h-186zM572 1210l201 332h153l199 -332h-117l-162 186l-161 -186h-113z" />
    <glyph glyph-name="Ycircumflex" unicode="&#x176;" horiz-adv-x="1135" vert-adv-y="2457" 
d="M496 0v614l-516 850h192l410 -706l397 706h176l-489 -852v-612h-170zM291 1604l201 331h153l199 -331h-117l-162 186l-161 -186h-113z" />
    <glyph glyph-name="ycircumflex" unicode="&#x177;" horiz-adv-x="1022" vert-adv-y="2457" 
d="M981 1071l-444 -1239q-78 -217 -278 -217q-117 0 -204 63l62 123q66 -45 135 -45q113 0 151 127l39 129l-401 1059h184l301 -815l277 815h178zM235 1210l201 332h153l199 -332h-117l-162 186l-161 -186h-113z" />
    <glyph glyph-name="Zacute" unicode="&#x179;" horiz-adv-x="1227" vert-adv-y="2457" 
d="M119 0v153l787 1170h-744v141h918v-170l-774 -1153h786v-141h-973zM557 1604l119 331h223l-225 -331h-117z" />
    <glyph glyph-name="zacute" unicode="&#x17a;" horiz-adv-x="989" vert-adv-y="2457" 
d="M82 0v143l608 787h-573v141h753v-174l-579 -750h616v-147h-825zM436 1210l119 332h223l-225 -332h-117z" />
    <glyph glyph-name="Zdotaccent" unicode="&#x17b;" horiz-adv-x="1227" vert-adv-y="2457" 
d="M119 0v153l787 1170h-744v141h918v-170l-774 -1153h786v-141h-973zM634 1829q43 0 75.5 -33t32.5 -76q0 -42 -32.5 -75t-75.5 -33q-44 0 -76.5 32.5t-32.5 75.5q0 44 33 76.5t76 32.5z" />
    <glyph glyph-name="zdotaccent" unicode="&#x17c;" horiz-adv-x="989" vert-adv-y="2457" 
d="M82 0v143l608 787h-573v141h753v-174l-579 -750h616v-147h-825zM529 1493q43 0 75.5 -33t32.5 -76q0 -42 -32.5 -75t-75.5 -33q-44 0 -76.5 32.5t-32.5 75.5q0 44 33 76.5t76 32.5z" />
    <glyph glyph-name="Zcaron" unicode="&#x17d;" horiz-adv-x="1227" vert-adv-y="2457" 
d="M119 0v153l787 1170h-744v141h918v-170l-774 -1153h786v-141h-973zM557 1604l-205 331h117l162 -198l161 198h113l-205 -331h-143z" />
    <glyph glyph-name="zcaron" unicode="&#x17e;" horiz-adv-x="989" vert-adv-y="2457" 
d="M82 0v143l608 787h-573v141h753v-174l-579 -750h616v-147h-825zM445 1210l-205 332h117l162 -199l161 199h113l-205 -332h-143z" />
    <glyph glyph-name="uni018F" unicode="&#x18f;" horiz-adv-x="1649" vert-adv-y="2457" 
d="M1318 807q-13 153 -76 276q-73 144 -212 212q-95 46 -206 46q-148 0 -261 -77t-176 -220l-164 49q76 164 215 266q168 123 386 123q274 0 462 -188q104 -104 159.5 -249t55.5 -313q0 -214 -89 -388q-92 -179 -257 -275q-151 -87 -331 -87q-274 0 -462 189
q-120 119 -174 291q-41 129 -41 265q0 26 3 80h1168zM1318 670h-989q14 -167 76 -289q75 -144 213 -212q95 -46 206 -46q209 0 341.5 147t152.5 400z" />
    <glyph glyph-name="Ohorn" unicode="&#x1a0;" horiz-adv-x="1649" vert-adv-y="2457" 
d="M1208 1361q135 18 143 123q-111 4 -111 100q0 45 30 74t77 29q55 0 87.5 -42t32.5 -111q0 -94 -47 -160t-127 -87q70 -73 119 -166q89 -175 89 -389q0 -346 -215 -561q-188 -189 -462 -189t-462 188q-104 104 -159.5 249.5t-55.5 312.5q0 215 89 388q92 179 257 275
q151 87 331 87q213 0 384 -121zM824 1341q-130 0 -238 -63q-143 -85 -211 -263q-48 -127 -48 -277q0 -288 144 -455q138 -160 353 -160q238 0 377 191q120 164 120 418q0 282 -144 449q-138 160 -353 160z" />
    <glyph glyph-name="ohorn" unicode="&#x1a1;" horiz-adv-x="1237" vert-adv-y="2457" 
d="M931 981q119 20 125 127q-110 4 -110 100q0 45 30 74t77 29q55 0 87.5 -42t32.5 -112q0 -121 -71 -193q-41 -42 -95 -59q118 -154 118 -369q0 -254 -156 -411q-141 -143 -351 -143q-205 0 -345 139q-160 158 -160 414q0 253 155 411q142 143 351 143q179 0 312 -108z
M624 948q-185 0 -274 -152q-61 -105 -61 -263q0 -222 119 -332q84 -78 209 -78q183 0 271 153q61 105 61 259q0 155 -61 259q-90 154 -264 154z" />
    <glyph glyph-name="Uhorn" unicode="&#x1af;" horiz-adv-x="1444" vert-adv-y="2457" 
d="M1253 1377q93 18 98 107q-111 4 -111 100q0 45 30 74t77 29q55 0 87.5 -41.5t32.5 -111.5q0 -141 -103 -209q-44 -29 -111 -38v-734q0 -243 -106 -386q-138 -185 -434 -185q-257 0 -392 146q-131 141 -131 402v934h170v-913q0 -220 79 -320q85 -108 281 -108
q211 0 296 121q77 109 77 333v887h160v-87z" />
    <glyph glyph-name="uhorn" unicode="&#x1b0;" horiz-adv-x="1214" vert-adv-y="2457" 
d="M1018 1005q79 23 84 103q-111 4 -111 100q0 45 30 74t77 29q55 0 87.5 -41.5t32.5 -111.5q0 -99 -54 -165t-146 -80v-913h-170v164q-99 -182 -325 -182q-164 0 -254 104q-93 108 -93 322v663h170v-676q0 -138 52.5 -202t167.5 -64q127 0 205 78q77 78 77 209v655h170v-66
z" />
    <glyph glyph-name="uni01CD" unicode="&#x1cd;" horiz-adv-x="1288" vert-adv-y="2457" 
d="M327 365l-126 -365h-166l530 1464h164l525 -1464h-175l-126 365h-626zM376 506h528l-265 762zM573 1604l-205 331h117l162 -198l161 198h113l-205 -331h-143z" />
    <glyph glyph-name="uni01CE" unicode="&#x1ce;" horiz-adv-x="1120" vert-adv-y="2457" 
d="M780 145q-136 -163 -330 -163q-161 0 -256 95q-81 81 -81 201q0 166 140 253q86 54 198 77.5t319 30.5v67q0 125 -51 183.5t-161 58.5q-83 0 -153.5 -30.5t-152.5 -102.5l-100 111q76 69 143 103q119 60 265 60q193 0 292 -109q88 -98 88 -274v-477q0 -57 25.5 -79
t95.5 -23v-133q-33 -2 -59 -2q-172 0 -222 153zM770 518q-178 -6 -283 -33q-204 -52 -204 -201q0 -79 51 -122t145 -43q129 0 210 66t81 169v164zM489 1210l-205 332h117l162 -199l161 199h113l-205 -332h-143z" />
    <glyph glyph-name="uni01CF" unicode="&#x1cf;" horiz-adv-x="621" vert-adv-y="2457" 
d="M226 0v1464h170v-1464h-170zM239 1604l-205 331h117l162 -198l161 198h113l-205 -331h-143z" />
    <glyph glyph-name="uni01D0" unicode="&#x1d0;" horiz-adv-x="572" vert-adv-y="2457" 
d="M201 0v1071h170v-1071h-170zM214 1210l-205 332h117l162 -199l161 199h113l-205 -332h-143z" />
    <glyph glyph-name="uni01D1" unicode="&#x1d1;" horiz-adv-x="1649" vert-adv-y="2457" 
d="M824 1482q274 0 462 -188q215 -216 215 -562q0 -215 -89 -388q-92 -179 -257 -275q-151 -87 -331 -87q-274 0 -462 188q-215 215 -215 569q0 209 89 381q95 183 257 275q154 87 331 87zM824 1341q-130 0 -238 -63q-143 -85 -211 -263q-48 -127 -48 -277q0 -288 144 -455
q138 -160 353 -160q238 0 377 191q120 164 120 418q0 282 -144 449q-138 160 -353 160zM752 1604l-205 331h117l162 -198l162 198h112l-204 -331h-144z" />
    <glyph glyph-name="uni01D2" unicode="&#x1d2;" horiz-adv-x="1237" vert-adv-y="2457" 
d="M623 1089q205 0 346 -142q156 -157 156 -411t-156 -412q-141 -142 -351 -142q-205 0 -345 139q-160 158 -160 414q0 252 155 411q141 143 355 143zM624 948q-185 0 -274 -152q-61 -105 -61 -263q0 -222 119 -332q84 -78 209 -78q183 0 271 153q61 105 61 259
q0 155 -61 259q-90 154 -264 154zM547 1210l-205 332h117l162 -199l161 199h113l-205 -332h-143z" />
    <glyph glyph-name="uni01D3" unicode="&#x1d3;" horiz-adv-x="1444" vert-adv-y="2457" 
d="M1253 1464v-911q0 -243 -106 -386q-138 -185 -434 -185q-257 0 -392 146q-131 141 -131 402v934h170v-913q0 -220 79 -320q85 -108 281 -108q211 0 296 121q77 109 77 333v887h160zM650 1604l-205 331h117l162 -198l161 198h113l-205 -331h-143z" />
    <glyph glyph-name="uni01D4" unicode="&#x1d4;" horiz-adv-x="1214" vert-adv-y="2457" 
d="M848 164q-99 -182 -325 -182q-164 0 -254 104q-93 108 -93 322v663h170v-676q0 -138 52.5 -202t167.5 -64q127 0 205 78q77 78 77 209v655h170v-1071h-170v164zM525 1210l-205 332h117l162 -199l161 199h113l-205 -332h-143z" />
    <glyph glyph-name="uni01DD" unicode="&#x1dd;" horiz-adv-x="1165" vert-adv-y="2457" 
d="M122 846q139 243 422 243q217 0 356 -140q152 -153 152 -411q0 -246 -136 -401q-135 -155 -353 -155q-216 0 -341 148q-116 137 -116 384v55h770q-7 119 -31 182q-75 197 -299 197q-100 0 -164 -40.5t-122 -139.5zM280 432q14 -130 52 -194q70 -115 230 -115
q250 0 308 309h-590z" />
    <glyph glyph-name="Gcaron" unicode="&#x1e6;" horiz-adv-x="1591" vert-adv-y="2457" 
d="M1267 270q-90 -151 -202.5 -219.5t-268.5 -68.5q-262 0 -437 177q-100 100 -155 245q-57 152 -57 327q0 311 168 523q185 233 495 233q240 0 390 -144q52 -49 87 -104.5t77 -155.5l-152 -57q-55 151 -124 219q-102 101 -275 101q-267 0 -396 -226q-90 -160 -90 -388
t89 -386q60 -106 158 -164q100 -59 227 -59q185 0 310 127q134 135 134 344v21h-398v141h564v-756h-111zM724 1604l-205 331h117l162 -198l161 198h113l-205 -331h-143z" />
    <glyph glyph-name="gcaron" unicode="&#x1e7;" horiz-adv-x="1149" vert-adv-y="2457" 
d="M397 90q-135 -69 -135 -178q0 -176 311 -176q336 0 336 201q0 149 -213 149h-231q-33 0 -68 4zM569 954q-100 0 -162 -45q-78 -57 -78 -167q0 -126 100 -183q62 -35 148 -35q113 0 175 55q61 55 61 158q0 108 -75 166q-67 51 -169 51zM766 1044l12 2l58 8l83 12l84 11
l58 9l12 1v-153h-160q70 -91 70 -205q0 -176 -131 -266q-109 -74 -274 -74q-106 0 -195 37q-55 -46 -55 -102q0 -52 34 -71.5t124 -19.5h211q192 0 289 -82q89 -76 89 -206q0 -176 -162 -268q-135 -77 -343 -77t-337 74q-137 79 -137 220q0 144 182 231q-104 57 -104 171
q0 115 117 183q-131 105 -131 262q0 165 124 264q106 84 270 84q109 0 212 -45zM511 1210l-205 332h117l162 -199l161 199h113l-205 -332h-143z" />
    <glyph glyph-name="uni01F4" unicode="&#x1f4;" horiz-adv-x="1591" vert-adv-y="2457" 
d="M1267 270q-90 -151 -202.5 -219.5t-268.5 -68.5q-262 0 -437 177q-100 100 -155 245q-57 152 -57 327q0 311 168 523q185 233 495 233q240 0 390 -144q52 -49 87 -104.5t77 -155.5l-152 -57q-55 151 -124 219q-102 101 -275 101q-267 0 -396 -226q-90 -160 -90 -388
t89 -386q60 -106 158 -164q100 -59 227 -59q185 0 310 127q134 135 134 344v21h-398v141h564v-756h-111zM743 1604l119 331h223l-225 -331h-117z" />
    <glyph glyph-name="uni01F5" unicode="&#x1f5;" horiz-adv-x="1149" vert-adv-y="2457" 
d="M397 90q-135 -69 -135 -178q0 -176 311 -176q336 0 336 201q0 149 -213 149h-231q-33 0 -68 4zM569 954q-100 0 -162 -45q-78 -57 -78 -167q0 -126 100 -183q62 -35 148 -35q113 0 175 55q61 55 61 158q0 108 -75 166q-67 51 -169 51zM766 1044l12 2l58 8l83 12l84 11
l58 9l12 1v-153h-160q70 -91 70 -205q0 -176 -131 -266q-109 -74 -274 -74q-106 0 -195 37q-55 -46 -55 -102q0 -52 34 -71.5t124 -19.5h211q192 0 289 -82q89 -76 89 -206q0 -176 -162 -268q-135 -77 -343 -77t-337 74q-137 79 -137 220q0 144 182 231q-104 57 -104 171
q0 115 117 183q-131 105 -131 262q0 165 124 264q106 84 270 84q109 0 212 -45zM526 1210l119 332h223l-225 -332h-117z" />
    <glyph glyph-name="Aringacute" unicode="&#x1fa;" horiz-adv-x="1288" vert-adv-y="2457" 
d="M722 1464h7l525 -1464h-175l-126 365h-626l-126 -365h-166l530 1464h2q-65 25 -102.5 79t-37.5 121q0 88 63.5 150.5t153.5 62.5t153.5 -62.5t63.5 -150.5q0 -66 -38.5 -121t-100.5 -79zM645 1779q-50 0 -83 -32.5t-33 -82.5q0 -49 32.5 -82t81.5 -33q50 0 83 32.5
t33 82.5q0 49 -33 82t-81 33zM376 506h528l-265 762zM296 1797l119 332h223l-225 -332h-117z" />
    <glyph glyph-name="aringacute" unicode="&#x1fb;" horiz-adv-x="1120" vert-adv-y="2457" 
d="M780 145q-136 -163 -330 -163q-161 0 -256 95q-81 81 -81 201q0 166 140 253q86 54 198 77.5t319 30.5v67q0 125 -51 183.5t-161 58.5q-83 0 -153.5 -30.5t-152.5 -102.5l-100 111q76 69 143 103q119 60 265 60q193 0 292 -109q88 -98 88 -274v-477q0 -57 25.5 -79
t95.5 -23v-133q-33 -2 -59 -2q-172 0 -222 153zM770 518q-178 -6 -283 -33q-204 -52 -204 -201q0 -79 51 -122t145 -43q129 0 210 66t81 169v164zM563 1599q88 0 151.5 -63t63.5 -150q0 -88 -63.5 -150.5t-153.5 -62.5t-153.5 62t-63.5 151t63.5 151t155.5 62zM562 1501
q-50 0 -83 -32.5t-33 -82.5q0 -49 32.5 -82t81.5 -33q50 0 83 32.5t33 82.5q0 49 -33 82t-81 33zM352 1616l119 332h223l-225 -332h-117z" />
    <glyph glyph-name="AEacute" unicode="&#x1fc;" horiz-adv-x="2007" vert-adv-y="2457" 
d="M403 342l-202 -342h-168l885 1464h954v-141h-729v-516h598v-137h-598v-529h766v-141h-936v342h-570zM487 483h486v820zM919 1604l119 331h223l-225 -331h-117z" />
    <glyph glyph-name="aeacute" unicode="&#x1fd;" horiz-adv-x="1796" vert-adv-y="2457" 
d="M854 201q-79 -117 -172.5 -168t-226.5 -51q-146 0 -240 75q-102 82 -102 221q0 226 266 308q130 41 391 45v76q0 241 -210 241q-175 0 -325 -155l-98 108q96 100 195.5 144t228.5 44q124 0 201.5 -44t126.5 -142q139 186 354 186q200 0 322 -138q125 -140 125 -392v-57
h-750q8 -119 32 -182q76 -197 291 -197q95 0 155 39.5t118 140.5l137 -78q-137 -243 -408 -243q-263 0 -411 219zM770 512q-189 -1 -307 -31q-184 -47 -184 -198q0 -79 51.5 -121.5t145.5 -42.5q129 0 212 66q82 66 82 169v158zM1515 639q-12 112 -35 164q-65 145 -232 145
q-245 0 -302 -309h569zM842 1210l119 332h223l-225 -332h-117z" />
    <glyph glyph-name="Oslashacute" unicode="&#x1fe;" horiz-adv-x="1649" vert-adv-y="2457" 
d="M291 254q-144 203 -144 478q0 346 215 562q188 188 462 188q259 0 446 -172l143 154h180l-235 -255q143 -202 143 -477q0 -346 -215 -561q-188 -189 -462 -189q-259 0 -444 171l-141 -153h-184zM402 374l765 824q-138 143 -343 143q-242 0 -383 -190q-122 -164 -122 -420
q0 -201 83 -357zM1246 1089l-763 -825q136 -141 341 -141q242 0 383 190q122 164 122 420q0 202 -83 356zM772 1604l119 331h223l-225 -331h-117z" />
    <glyph glyph-name="oslashacute" unicode="&#x1ff;" horiz-adv-x="1237" vert-adv-y="2457" 
d="M216 188q-102 148 -102 347q0 254 155 413q139 141 350 141q179 0 313 -107l81 89h178l-169 -187q103 -150 103 -347q0 -255 -156 -412q-141 -143 -351 -143q-176 0 -312 108l-82 -90h-178zM329 314l501 555q-88 79 -211 79q-180 0 -268 -152q-61 -105 -61 -261
q0 -126 39 -221zM907 757l-500 -555q88 -79 210 -79q182 0 271 153q61 106 61 260q0 123 -42 221zM559 1210l119 332h223l-225 -332h-117z" />
    <glyph glyph-name="Scommaaccent" unicode="&#x218;" horiz-adv-x="1350" vert-adv-y="2457" 
d="M1004 1108q-56 127 -136.5 180t-217.5 53q-135 0 -212 -57q-87 -65 -87 -179q0 -118 100 -176q43 -25 90.5 -40.5t163.5 -42.5q138 -31 220 -63.5t139 -77.5q136 -108 136 -299q0 -237 -196 -348q-135 -76 -318 -76q-220 0 -367 106t-200 303l162 29q86 -297 404 -297
q144 0 238 62q111 73 111 216q0 110 -71 172q-43 37 -106.5 61t-219.5 62q-127 31 -200.5 60t-127.5 70q-124 92 -124 267q0 187 136 293q124 96 326 96q243 0 382 -134q75 -72 126 -199zM559 -496v90q107 16 113 109q-111 5 -111 100q0 45 30 74t77 29q55 0 87.5 -41.5
t32.5 -111.5q0 -108 -59 -172t-170 -77z" />
    <glyph glyph-name="scommaaccent" unicode="&#x219;" horiz-adv-x="1042" vert-adv-y="2457" 
d="M774 821q-66 72 -122.5 99.5t-137.5 27.5t-132 -28q-66 -37 -66 -117q0 -71 54 -107q46 -30 192 -67q122 -30 179 -54t102 -65q85 -77 85 -209q0 -145 -103 -227q-115 -92 -301 -92q-280 0 -442 206l123 101q71 -95 138 -130.5t175 -35.5q244 0 244 165q0 79 -61 118
q-31 20 -67 32t-147 39q-151 36 -225 90q-112 81 -112 226q0 153 119 233q95 63 246 63q124 0 208.5 -35.5t161.5 -119.5zM411 -496v90q107 16 113 109q-111 5 -111 100q0 45 30 74t77 29q55 0 87.5 -41.5t32.5 -111.5q0 -108 -59 -172t-170 -77z" />
    <glyph glyph-name="uni021A" unicode="&#x21a;" horiz-adv-x="1192" vert-adv-y="2457" 
d="M512 0v1323h-455v141h1077v-141h-452v-1323h-170zM481 -496v90q107 16 113 109q-111 5 -111 100q0 45 30 74t77 29q55 0 87.5 -41.5t32.5 -111.5q0 -108 -59 -172t-170 -77z" />
    <glyph glyph-name="uni021B" unicode="&#x21b;" horiz-adv-x="793" vert-adv-y="2457" 
d="M74 930v141h164v278l170 41v-319h270v-141h-270v-653q0 -154 123 -154q78 0 145 51l66 -117q-99 -75 -221 -75q-144 0 -220 84q-63 69 -63 178v686h-164zM338 -496v90q107 16 113 109q-111 5 -111 100q0 45 30 74t77 29q55 0 87.5 -41.5t32.5 -111.5q0 -108 -59 -172
t-170 -77z" />
    <glyph glyph-name="uni0226" unicode="&#x226;" horiz-adv-x="1288" vert-adv-y="2457" 
d="M327 365l-126 -365h-166l530 1464h164l525 -1464h-175l-126 365h-626zM376 506h528l-265 762zM645 1829q43 0 75.5 -33t32.5 -76q0 -42 -32.5 -75t-75.5 -33q-44 0 -76.5 32.5t-32.5 75.5q0 44 33 76.5t76 32.5z" />
    <glyph glyph-name="uni0227" unicode="&#x227;" horiz-adv-x="1120" vert-adv-y="2457" 
d="M780 145q-136 -163 -330 -163q-161 0 -256 95q-81 81 -81 201q0 166 140 253q86 54 198 77.5t319 30.5v67q0 125 -51 183.5t-161 58.5q-83 0 -153.5 -30.5t-152.5 -102.5l-100 111q76 69 143 103q119 60 265 60q193 0 292 -109q88 -98 88 -274v-477q0 -57 25.5 -79
t95.5 -23v-133q-33 -2 -59 -2q-172 0 -222 153zM770 518q-178 -6 -283 -33q-204 -52 -204 -201q0 -79 51 -122t145 -43q129 0 210 66t81 169v164zM561 1493q43 0 75.5 -33t32.5 -76q0 -42 -32.5 -75t-75.5 -33q-44 0 -76.5 32.5t-32.5 75.5q0 44 33 76.5t76 32.5z" />
    <glyph glyph-name="uni0237" unicode="&#x237;" horiz-adv-x="571" vert-adv-y="2457" 
d="M371 1071v-1165q0 -156 -83 -231q-70 -64 -197 -64q-73 0 -136 33l39 129l12 -6q33 -15 69 -15q126 0 126 135v1184h170z" />
    <glyph glyph-name="uni0259" unicode="&#x259;" horiz-adv-x="1165" vert-adv-y="2457" 
d="M122 846q139 243 422 243q217 0 356 -140q152 -153 152 -411q0 -246 -136 -401q-135 -155 -353 -155q-216 0 -341 148q-116 137 -116 384v55h770q-7 119 -31 182q-75 197 -299 197q-100 0 -164 -40.5t-122 -139.5zM280 432q14 -130 52 -194q70 -115 230 -115
q250 0 308 309h-590z" />
    <glyph glyph-name="afii57929" unicode="&#x2bc;" horiz-adv-x="604" vert-adv-y="2457" 
d="M175 1026v96q120 37 129 181q-55 2 -87 25q-54 36 -54 105q0 57 36 93.5t92 36.5q68 0 106 -51.5t38 -144.5q0 -160 -75 -249q-61 -73 -185 -92z" />
    <glyph glyph-name="uni02C9" unicode="&#x2c9;" horiz-adv-x="1024" vert-adv-y="2457" 
d="M264 1321v129h496v-129h-496z" />
    <glyph glyph-name="uni0309" unicode="&#x309;" horiz-adv-x="1024" vert-adv-y="2457" 
d="M518 1543h-91v130q73 11 95 25.5t22 52.5q0 58 -63 58q-41 0 -72.5 -11t-96.5 -48l-42 67q122 81 210 81q73 0 121.5 -43.5t48.5 -109.5q0 -57 -29 -85t-103 -42v-75z" />
    <glyph glyph-name="uni037E" unicode="&#x37e;" horiz-adv-x="616" vert-adv-y="2457" 
d="M187 -283v97q120 37 129 180q-67 3 -104 37.5t-37 92.5q0 57 36 93.5t92 36.5q68 0 106 -51.5t38 -144.5q0 -160 -75 -249q-61 -72 -185 -92zM309 860q54 0 92 -38.5t38 -92.5t-38 -92.5t-93 -38.5t-93 38t-38 93t38.5 93t93.5 38z" />
    <glyph glyph-name="tonos" unicode="&#x384;" horiz-adv-x="1024" vert-adv-y="2457" 
d="M451 1205l-31 358h184l-30 -358h-123z" />
    <glyph glyph-name="dieresistonos" unicode="&#x385;" horiz-adv-x="1024" vert-adv-y="2457" 
d="M269 1493q43 0 75.5 -33t32.5 -76q0 -42 -32.5 -75t-75.5 -33q-44 0 -76.5 32.5t-32.5 75.5q0 44 33 76.5t76 32.5zM451 1205l-31 358h184l-30 -358h-123zM756 1493q43 0 75.5 -33t32.5 -76q0 -42 -32.5 -75t-75.5 -33q-44 0 -76.5 32.5t-32.5 75.5q0 44 33 76.5t76 32.5
z" />
    <glyph glyph-name="Alphatonos" unicode="&#x386;" horiz-adv-x="1288" vert-adv-y="2457" 
d="M1254 0h-175l-126 365h-626l-126 -365h-166l530 1464h164zM904 506l-265 762l-263 -762h528zM112 1044l-30 420h184l-31 -420h-123z" />
    <glyph glyph-name="uni0387" unicode="&#x387;" horiz-adv-x="616" vert-adv-y="2457" 
d="M309 801q54 0 92 -38.5t38 -92.5t-38 -92.5t-93 -38.5t-93 38t-38 93t38.5 93t93.5 38z" />
    <glyph glyph-name="Epsilontonos" unicode="&#x388;" horiz-adv-x="1391" vert-adv-y="2457" 
d="M319 0v1464h936v-141h-766v-516h635v-137h-635v-529h803v-141h-973zM31 1044l-31 420h184l-30 -420h-123z" />
    <glyph glyph-name="Etatonos" unicode="&#x389;" horiz-adv-x="1597" vert-adv-y="2457" 
d="M319 0v1464h170v-665h742v665h170v-1464h-170v652h-742v-652h-170zM31 1044l-31 420h184l-30 -420h-123z" />
    <glyph glyph-name="Iotatonos" unicode="&#x38a;" horiz-adv-x="715" vert-adv-y="2457" 
d="M319 0v1464h170v-1464h-170zM31 1044l-31 420h184l-30 -420h-123z" />
    <glyph glyph-name="Omicrontonos" unicode="&#x38c;" horiz-adv-x="1701" vert-adv-y="2457" 
d="M877 1482q273 0 461 -188q215 -216 215 -562t-215 -562q-188 -188 -461 -188q-274 0 -462 188q-215 215 -215 569q0 209 89 381q94 183 257 275q154 87 331 87zM877 1341q-130 0 -238 -63q-144 -85 -211 -263q-48 -127 -48 -277q0 -288 144 -455q138 -160 352 -160
q238 0 377 191q120 164 120 418q0 282 -144 449q-138 160 -352 160zM31 1044l-31 420h184l-30 -420h-123z" />
    <glyph glyph-name="Upsilontonos" unicode="&#x38e;" horiz-adv-x="1432" vert-adv-y="2457" 
d="M1452 1464l-489 -852v-612h-170v614l-516 850h192l410 -706l397 706h176zM31 1044l-31 420h184l-30 -420h-123z" />
    <glyph glyph-name="Omegatonos" unicode="&#x38f;" horiz-adv-x="1718" vert-adv-y="2457" 
d="M158 0v129h292q-105 91 -160 195q-89 166 -89 400q0 349 192 556q188 202 493 202t493 -202q192 -207 192 -556q0 -197 -60 -340t-189 -255h292v-129h-596v137q77 2 129 25.5t102 80.5q68 78 105 200t37 269q0 281 -119 445q-134 184 -386 184q-251 0 -385 -184
q-120 -164 -120 -445q0 -154 41 -280.5t115 -203.5q48 -49 96 -69t121 -22v-137h-596zM31 1044l-31 420h184l-30 -420h-123z" />
    <glyph glyph-name="iotadieresistonos" unicode="&#x390;" horiz-adv-x="578" vert-adv-y="2457" 
d="M201 1071h170v-815q0 -72 22.5 -99.5t80.5 -27.5q15 0 38 2v-131q-45 -8 -84 -8q-116 0 -171.5 68.5t-55.5 213.5v797zM15 1493q43 0 75.5 -33t32.5 -76q0 -42 -32.5 -75t-75.5 -33q-44 0 -76.5 32.5t-32.5 75.5q0 44 33 76.5t76 32.5zM225 1205l-30 358h184l-31 -358
h-123zM560 1493q43 0 75.5 -33t32.5 -76q0 -42 -33 -75t-75 -33q-44 0 -76.5 32.5t-32.5 75.5q0 44 33 76.5t76 32.5z" />
    <glyph glyph-name="Alpha" unicode="&#x391;" horiz-adv-x="1288" vert-adv-y="2457" 
d="M1254 0h-175l-126 365h-626l-126 -365h-166l530 1464h164zM904 506l-265 762l-263 -762h528z" />
    <glyph glyph-name="Beta" unicode="&#x392;" horiz-adv-x="1407" vert-adv-y="2457" 
d="M197 0v1464h555q475 0 475 -387q0 -111 -46 -182t-153 -124q124 -39 189 -104q92 -93 92 -252q0 -213 -156 -323q-132 -92 -346 -92h-610zM367 141h467q165 0 245 87q64 69 64 188q0 268 -328 268h-448v-543zM367 825h436q258 0 258 256q0 119 -66 178q-72 64 -231 64
h-397v-498z" />
    <glyph glyph-name="Gamma" unicode="&#x393;" horiz-adv-x="1085" vert-adv-y="2457" 
d="M197 0v1464h848v-141h-678v-1323h-170z" />
    <glyph glyph-name="uni0394" unicode="&#x394;" horiz-adv-x="1348" vert-adv-y="2457" 
d="M12 0l571 1464h187l565 -1464h-1323zM232 141h872l-437 1145z" />
    <glyph glyph-name="Epsilon" unicode="&#x395;" horiz-adv-x="1268" vert-adv-y="2457" 
d="M197 0v1464h936v-141h-766v-516h635v-137h-635v-529h803v-141h-973z" />
    <glyph glyph-name="Zeta" unicode="&#x396;" horiz-adv-x="1227" vert-adv-y="2457" 
d="M119 0v153l787 1170h-744v141h918v-170l-774 -1153h786v-141h-973z" />
    <glyph glyph-name="Eta" unicode="&#x397;" horiz-adv-x="1475" vert-adv-y="2457" 
d="M197 0v1464h170v-665h741v665h170v-1464h-170v652h-741v-652h-170z" />
    <glyph glyph-name="Theta" unicode="&#x398;" horiz-adv-x="1649" vert-adv-y="2457" 
d="M824 1482q274 0 462 -188q215 -216 215 -562q0 -215 -89 -388q-92 -179 -257 -275q-151 -87 -331 -87q-274 0 -462 188q-215 215 -215 569q0 209 89 381q95 183 257 275q154 87 331 87zM824 1341q-130 0 -238 -63q-143 -85 -211 -263q-48 -127 -48 -277q0 -288 144 -455
q138 -160 353 -160q238 0 377 191q120 164 120 418q0 282 -144 449q-138 160 -353 160zM505 670v137h637v-137h-637z" />
    <glyph glyph-name="Iota" unicode="&#x399;" horiz-adv-x="621" vert-adv-y="2457" 
d="M225 0v1464h170v-1464h-170z" />
    <glyph glyph-name="Kappa" unicode="&#x39a;" horiz-adv-x="1313" vert-adv-y="2457" 
d="M197 0v1464h170v-743l651 743h197l-539 -608l565 -856h-190l-483 735l-201 -227v-508h-170z" />
    <glyph glyph-name="Lambda" unicode="&#x39b;" horiz-adv-x="1243" vert-adv-y="2457" 
d="M35 0l522 1464h135l517 -1464h-175l-417 1216l-416 -1216h-166z" />
    <glyph glyph-name="Mu" unicode="&#x39c;" horiz-adv-x="1815" vert-adv-y="2457" 
d="M197 0v1464h266l450 -1255l441 1255h264v-1464h-170v1304l-460 -1304h-157l-474 1304v-1304h-160z" />
    <glyph glyph-name="Nu" unicode="&#x39d;" horiz-adv-x="1470" vert-adv-y="2457" 
d="M197 0v1464h231l686 -1284v1284h160v-1464h-244l-673 1259v-1259h-160z" />
    <glyph glyph-name="Xi" unicode="&#x39e;" horiz-adv-x="1194" vert-adv-y="2457" 
d="M111 0v141h973v-141h-973zM111 1323v141h973v-141h-973zM211 670v137h772v-137h-772z" />
    <glyph glyph-name="Omicron" unicode="&#x39f;" horiz-adv-x="1649" vert-adv-y="2457" 
d="M824 1482q274 0 462 -188q215 -216 215 -562q0 -215 -89 -388q-92 -179 -257 -275q-151 -87 -331 -87q-274 0 -462 188q-215 215 -215 569q0 209 89 381q95 183 257 275q154 87 331 87zM824 1341q-130 0 -238 -63q-143 -85 -211 -263q-48 -127 -48 -277q0 -288 144 -455
q138 -160 353 -160q238 0 377 191q120 164 120 418q0 282 -144 449q-138 160 -353 160z" />
    <glyph glyph-name="Pi" unicode="&#x3a0;" horiz-adv-x="1438" vert-adv-y="2457" 
d="M197 0v1317h-123v147h1290v-147h-123v-1317h-170v1317h-704v-1317h-170z" />
    <glyph glyph-name="Rho" unicode="&#x3a1;" horiz-adv-x="1341" vert-adv-y="2457" 
d="M197 0v1464h521q155 0 246 -32q263 -92 263 -396q0 -217 -145 -324q-123 -91 -332 -91h-383v-621h-170zM367 758h362q91 0 147.5 17t98.5 57q78 74 78 213q0 142 -76.5 210t-237.5 68h-372v-565z" />
    <glyph glyph-name="Sigma" unicode="&#x3a3;" horiz-adv-x="1227" vert-adv-y="2457" 
d="M115 0v153l438 588l-403 553v170h954v-141h-778l418 -571l-456 -611h878v-141h-1051z" />
    <glyph glyph-name="Tau" unicode="&#x3a4;" horiz-adv-x="1192" vert-adv-y="2457" 
d="M1134 1464v-147h-452v-1317h-170v1317h-455v147h1077z" />
    <glyph glyph-name="Upsilon" unicode="&#x3a5;" horiz-adv-x="1135" vert-adv-y="2457" 
d="M1155 1464l-489 -852v-612h-170v614l-516 850h192l410 -706l397 706h176z" />
    <glyph glyph-name="Phi" unicode="&#x3a6;" horiz-adv-x="1747" vert-adv-y="2457" 
d="M789 -41v140q-230 20 -393 141q-129 95 -193 233q-55 120 -55 259q0 258 177.5 433t463.5 200v140h170v-140q230 -20 393 -141q129 -95 193 -233q55 -120 55 -259q0 -258 -177.5 -433t-463.5 -200v-140h-170zM959 229q171 18 279 100q182 137 182 403q0 216 -121.5 348.5
t-339.5 154.5v-1006zM789 229v1006q-169 -17 -279 -100q-182 -137 -182 -403q0 -217 120.5 -348t340.5 -155z" />
    <glyph glyph-name="Chi" unicode="&#x3a7;" horiz-adv-x="1262" vert-adv-y="2457" 
d="M53 0l483 751l-450 713h194l365 -575l362 575h179l-455 -713l477 -751h-194l-392 616l-391 -616h-178z" />
    <glyph glyph-name="Psi" unicode="&#x3a8;" horiz-adv-x="1669" vert-adv-y="2457" 
d="M1546 1464v-539q0 -151 -21 -237.5t-74 -153.5q-69 -88 -167 -125.5t-259 -37.5h-105v-371h-170v371h-106q-193 0 -301 58q-121 64 -170.5 176t-49.5 320v539h170v-572q0 -208 88 -292t307 -84h62v948h170v-948h62q220 0 305 83q89 87 89 293v572h170z" />
    <glyph glyph-name="uni03A9" unicode="&#x3a9;" horiz-adv-x="1665" vert-adv-y="2457" 
d="M104 0v129h292q-105 91 -160 195q-89 166 -89 400q0 349 192 556q188 202 493 202t493 -202q192 -207 192 -556q0 -197 -60 -340t-189 -255h292v-129h-596v137q77 2 129 26t102 80q68 78 105 200.5t37 268.5q0 281 -120 445q-134 184 -385 184t-385 -184
q-120 -164 -120 -445q0 -154 41 -281t115 -203q48 -49 96.5 -69t120.5 -22v-137h-596z" />
    <glyph glyph-name="Iotadieresis" unicode="&#x3aa;" horiz-adv-x="621" vert-adv-y="2457" 
d="M226 0v1464h170v-1464h-170zM132 1829q43 0 75.5 -33t32.5 -76q0 -42 -32.5 -75t-75.5 -33q-44 0 -76.5 32.5t-32.5 75.5q0 44 33 76.5t76 32.5zM505 1829q43 0 75.5 -33t32.5 -76q0 -42 -32.5 -75t-75.5 -33q-44 0 -76.5 32.5t-32.5 75.5q0 44 33 76.5t76 32.5z" />
    <glyph glyph-name="Upsilondieresis" unicode="&#x3ab;" horiz-adv-x="1135" vert-adv-y="2457" 
d="M1155 1464l-489 -852v-612h-170v614l-516 850h192l410 -706l397 706h176zM771 1829q43 0 75.5 -33t32.5 -76q0 -42 -32.5 -75t-75.5 -33q-44 0 -76.5 32.5t-32.5 75.5q0 44 33 76.5t76 32.5zM398 1829q43 0 75.5 -33t32.5 -76q0 -42 -32.5 -75t-75.5 -33
q-44 0 -76.5 32.5t-32.5 75.5q0 44 33 76.5t76 32.5z" />
    <glyph glyph-name="alphatonos" unicode="&#x3ac;" horiz-adv-x="1247" vert-adv-y="2457" 
d="M1051 0h-170v172q-119 -190 -344 -190q-222 0 -331 172q-93 146 -93 375q0 235 100 384q119 176 335 176q214 0 333 -182v164h170v-1071zM577 948q-144 0 -217 -120q-67 -112 -67 -301q0 -404 267 -404q160 0 246 113q81 106 81 299q0 180 -72 286q-86 127 -238 127z
M539 1205l-31 358h184l-30 -358h-123z" />
    <glyph glyph-name="epsilontonos" unicode="&#x3ad;" horiz-adv-x="1107" vert-adv-y="2457" 
d="M1022 876l-135 -90q-66 92 -125 127t-149 35q-185 0 -269 -157q-40 -75 -51 -183h496v-137h-498q29 -348 332 -348q97 0 162.5 37.5t129.5 129.5l131 -82q-149 -226 -422 -226q-265 0 -407 198q-104 147 -104 354q0 271 159 427q132 128 340 128q264 0 410 -213z
M541 1205l-31 358h184l-30 -358h-123z" />
    <glyph glyph-name="etatonos" unicode="&#x3ae;" vert-adv-y="2457" 
d="M197 0v1071h170v-164q98 182 325 182q167 0 259 -104q96 -108 96 -321v-1037h-170v1049q0 138 -55 202t-172 64q-129 0 -206 -78t-77 -209v-655h-170zM574 1205l-31 358h184l-30 -358h-123z" />
    <glyph glyph-name="iotatonos" unicode="&#x3af;" horiz-adv-x="578" vert-adv-y="2457" 
d="M201 1071h170v-815q0 -72 22.5 -99.5t80.5 -27.5q15 0 38 2v-131q-45 -8 -84 -8q-117 0 -172 68.5t-55 213.5v797zM228 1205l-31 358h184l-30 -358h-123z" />
    <glyph glyph-name="upsilondieresistonos" unicode="&#x3b0;" horiz-adv-x="1202" vert-adv-y="2457" 
d="M184 1071h170v-583q0 -187 42 -261q55 -98 205 -98q164 0 216 120q31 73 31 239v583h170v-580q0 -277 -94 -389q-53 -64 -128.5 -92t-194.5 -28q-153 0 -235 46q-121 68 -158 226q-24 100 -24 237v580zM329 1493q43 0 75.5 -33t32.5 -76q0 -42 -33 -75t-75 -33
q-44 0 -76.5 32.5t-32.5 75.5q0 44 33 76.5t76 32.5zM539 1205l-30 358h184l-31 -358h-123zM874 1493q43 0 75.5 -33t32.5 -76q0 -42 -32.5 -75t-75.5 -33q-44 0 -76.5 32.5t-32.5 75.5q0 44 33 76.5t76 32.5z" />
    <glyph glyph-name="alpha" unicode="&#x3b1;" horiz-adv-x="1247" vert-adv-y="2457" 
d="M1051 0h-170v172q-119 -190 -344 -190q-222 0 -331 172q-93 146 -93 375q0 235 100 384q119 176 335 176q214 0 333 -182v164h170v-1071zM577 948q-144 0 -217 -120q-67 -112 -67 -301q0 -404 267 -404q160 0 246 113q81 106 81 299q0 180 -72 286q-86 127 -238 127z" />
    <glyph glyph-name="beta" unicode="&#x3b2;" horiz-adv-x="1284" vert-adv-y="2457" 
d="M197 -373v1402q0 129 16 208.5t55 142.5q114 184 368 184q187 0 300 -101q115 -102 115 -269q0 -117 -52.5 -192.5t-162.5 -116.5q102 -31 160 -73q176 -127 176 -370q0 -140 -51 -247q-102 -213 -362 -213q-101 0 -187 32v146q81 -37 168 -37q123 0 183 73q69 84 69 243
q0 243 -182 327q-69 33 -197 35v145q88 1 137 16.5t84 53.5q57 61 57 174q0 101 -48 156q-68 77 -207 77q-171 0 -230 -127q-39 -85 -39 -268v-1401h-170z" />
    <glyph glyph-name="gamma" unicode="&#x3b3;" horiz-adv-x="1014" vert-adv-y="2457" 
d="M608 -373h-170v373l-401 1071h184l305 -838l272 838h179l-369 -1071v-373z" />
    <glyph glyph-name="delta" unicode="&#x3b4;" horiz-adv-x="1211" vert-adv-y="2457" 
d="M427 1035q-135 82 -135 233q0 159 122 241q86 58 223 58q117 0 196.5 -36t158.5 -124l-96 -107q-105 129 -258 129q-77 0 -123 -32q-59 -41 -59 -124q0 -71 41.5 -110t153.5 -73q147 -44 211 -81q115 -65 175.5 -185t60.5 -281q0 -246 -133 -400q-139 -161 -360 -161
q-118 0 -219 50.5t-168 144.5q-105 147 -105 354q0 180 80 308.5t234 195.5zM607 950q-161 0 -244 -127q-74 -114 -74 -283q0 -173 71 -286q83 -131 247 -131q172 0 255 149q60 109 60 266q0 187 -87 301q-85 111 -228 111z" />
    <glyph glyph-name="epsilon" unicode="&#x3b5;" horiz-adv-x="1107" vert-adv-y="2457" 
d="M1022 876l-135 -90q-66 92 -125 127t-149 35q-185 0 -269 -157q-40 -75 -51 -183h496v-137h-498q29 -348 332 -348q97 0 162.5 37.5t129.5 129.5l131 -82q-149 -226 -422 -226q-265 0 -407 198q-104 147 -104 354q0 271 159 427q132 128 340 128q264 0 410 -213z" />
    <glyph glyph-name="zeta" unicode="&#x3b6;" horiz-adv-x="945" vert-adv-y="2457" 
d="M194 1401v141h672v-162q-203 -206 -285 -311q-127 -162 -195.5 -324t-68.5 -302q0 -298 210 -298h38q162 0 245 -101q79 -96 79 -251q0 -75 -27 -166h-160q27 82 27 146q0 115 -51.5 171t-157.5 56h-39q-142 0 -229 85q-116 113 -116 331q0 226 154 479q79 128 183 245
t270 261h-549z" />
    <glyph glyph-name="eta" unicode="&#x3b7;" vert-adv-y="2457" 
d="M197 0v1071h170v-164q98 182 325 182q167 0 259 -104q96 -108 96 -321v-1037h-170v1049q0 138 -55 202t-172 64q-129 0 -206 -78t-77 -209v-655h-170z" />
    <glyph glyph-name="theta" unicode="&#x3b8;" horiz-adv-x="1235" vert-adv-y="2457" 
d="M620 1560q236 0 372 -238q131 -228 131 -552q0 -322 -130 -549q-137 -239 -375 -239q-237 0 -374 236q-131 228 -131 560q0 312 128 539q137 243 379 243zM944 864q-12 195 -68 334q-89 221 -258 221q-137 0 -223.5 -147t-102.5 -408h652zM946 727h-656q8 -199 58 -344
q49 -140 126 -204q67 -56 144 -56q114 0 191 106q62 85 98 216t39 282z" />
    <glyph glyph-name="iota" unicode="&#x3b9;" horiz-adv-x="578" vert-adv-y="2457" 
d="M201 1071h170v-815q0 -72 22.5 -99.5t80.5 -27.5q15 0 38 2v-131q-45 -8 -84 -8q-117 0 -172 68.5t-55 213.5v797z" />
    <glyph glyph-name="kappa" unicode="&#x3ba;" horiz-adv-x="1143" vert-adv-y="2457" 
d="M197 0v1071h170v-548l465 548h201l-368 -415l421 -656h-193l-340 529l-186 -210v-319h-170z" />
    <glyph glyph-name="lambda" unicode="&#x3bb;" horiz-adv-x="1063" vert-adv-y="2457" 
d="M41 0l411 1075l-166 467h174l554 -1542h-178l-307 860l-314 -860h-174z" />
    <glyph glyph-name="uni03BC" unicode="&#x3bc;" horiz-adv-x="1243" vert-adv-y="2457" 
d="M197 -373v1444h170v-637q0 -96 9 -145t34 -82q57 -78 183 -78q129 0 207 78q77 78 77 209v655h170v-1071h-170v164q-99 -182 -325 -182q-104 0 -185 43v-398h-170z" />
    <glyph glyph-name="nu" unicode="&#x3bd;" horiz-adv-x="1010" vert-adv-y="2457" 
d="M408 0l-367 1071h184l287 -899l281 899h176l-361 -1071h-200z" />
    <glyph glyph-name="xi" unicode="&#x3be;" horiz-adv-x="975" vert-adv-y="2457" 
d="M158 1401v141h770v-141h-66q-197 0 -310 -45q-175 -71 -175 -228q0 -109 78.5 -168t224.5 -59h119v-137h-119q-103 0 -164 -14.5t-107 -50.5q-110 -85 -110 -269q0 -185 107 -250q32 -19 68.5 -26t115.5 -9q99 -3 160 -26t108 -75q86 -95 86 -253q0 -69 -24 -164h-160
q24 82 24 143q0 127 -69 183q-50 42 -171 46q-92 3 -144.5 15.5t-103.5 43.5q-173 105 -173 368q0 341 308 415q-96 27 -146 80q-74 77 -74 186q0 190 234 294h-287z" />
    <glyph glyph-name="omicron" unicode="&#x3bf;" horiz-adv-x="1237" vert-adv-y="2457" 
d="M619 1089q209 0 350 -142q156 -157 156 -411t-156 -412q-141 -142 -351 -142q-205 0 -345 139q-160 158 -160 419q0 247 155 406q140 143 351 143zM618 948q-179 0 -268 -152q-61 -105 -61 -261q0 -224 119 -334q84 -78 207 -78q185 0 273 153q61 105 61 260
q0 154 -61 258q-90 154 -270 154z" />
    <glyph glyph-name="rho" unicode="&#x3c1;" horiz-adv-x="1223" vert-adv-y="2457" 
d="M271 -373q-67 218 -105.5 446.5t-38.5 412.5q0 203 59 330q69 148 198 218q100 55 228 55q208 0 346 -142q152 -157 152 -411t-152 -412q-138 -142 -341 -142q-199 0 -319 164q86 -338 143 -519h-170zM615 948q-168 0 -251 -152q-57 -105 -57 -262q0 -184 80 -297
q81 -114 222 -114q178 0 263 153q58 105 58 260q0 154 -58 258q-86 154 -257 154z" />
    <glyph glyph-name="uni03C2" unicode="&#x3c2;" horiz-adv-x="989" vert-adv-y="2457" 
d="M835 -373h-150q27 85 27 187q0 96 -40 143q-30 36 -148 43q-123 7 -162 20q-125 43 -190 165q-59 113 -59 319q0 266 115 420q124 165 334 165q241 0 370 -233l-135 -90q-54 102 -104 142t-127 40q-132 0 -202.5 -111.5t-70.5 -321.5q0 -235 92 -315q33 -29 71 -40.5
t116 -16.5q95 -7 145.5 -28.5t86.5 -70.5q57 -79 57 -224q0 -96 -26 -193z" />
    <glyph glyph-name="sigma" unicode="&#x3c3;" horiz-adv-x="1212" vert-adv-y="2457" 
d="M1131 1071v-143l-254 9q182 -157 182 -405q0 -219 -113 -371q-134 -179 -357 -179q-153 0 -270 86q-99 72 -152.5 194t-53.5 276q0 255 146 412q130 139 345 139q54 0 144 -9q87 -9 119 -9h264zM585 952q-65 0 -123.5 -31.5t-95.5 -87.5q-77 -116 -77 -295
q0 -177 77 -294q37 -55 95.5 -87t124.5 -32q138 0 219 119q78 117 78 289q0 185 -78 300q-82 119 -220 119z" />
    <glyph glyph-name="tau" unicode="&#x3c4;" horiz-adv-x="858" vert-adv-y="2457" 
d="M344 0v930h-332v141h834v-141h-332v-930h-170z" />
    <glyph glyph-name="upsilon" unicode="&#x3c5;" horiz-adv-x="1202" vert-adv-y="2457" 
d="M184 1071h170v-583q0 -187 42 -261q55 -98 205 -98q164 0 216 120q31 73 31 239v583h170v-580q0 -277 -94 -389q-53 -64 -128.5 -92t-194.5 -28q-153 0 -235 46q-121 68 -158 226q-24 100 -24 237v580z" />
    <glyph glyph-name="phi" unicode="&#x3c6;" horiz-adv-x="1485" vert-adv-y="2457" 
d="M648 -373v360q-173 24 -293 103q-117 76 -179.5 189.5t-62.5 249.5q0 306 298 477l77 -113q-195 -123 -195 -359q0 -234 173 -348q74 -48 182 -68v961q68 6 111 6q258 0 432 -147q182 -155 182 -401q0 -184 -107 -325q-143 -189 -448 -225v-360h-170zM818 119
q147 22 230 86q145 113 145 329q0 173 -102 288.5t-273 135.5v-839z" />
    <glyph glyph-name="chi" unicode="&#x3c7;" horiz-adv-x="1016" vert-adv-y="2457" 
d="M4 -373l404 767l-353 677h186l279 -531l280 531h168l-362 -685l397 -759h-188l-321 613l-324 -613h-166z" />
    <glyph glyph-name="psi" unicode="&#x3c8;" horiz-adv-x="1632" vert-adv-y="2457" 
d="M1446 1071v-539q0 -150 -19.5 -237.5t-67.5 -154.5q-63 -88 -153 -125.5t-236 -37.5h-69v-350h-170v350h-69q-97 0 -158.5 13t-116.5 45q-110 64 -155.5 176.5t-45.5 320.5v539h170v-572q0 -209 78 -293t272 -84h25v949h170v-949h26q195 0 270 84q79 86 79 293v572h170z
" />
    <glyph glyph-name="omega" unicode="&#x3c9;" horiz-adv-x="1534" vert-adv-y="2457" 
d="M475 999q-172 -204 -172 -494q0 -193 65 -293q25 -40 69 -64.5t91 -24.5q98 0 135 105q19 55 19 204v369h170v-369q0 -161 25 -218q39 -91 129 -91q47 0 91 24.5t70 64.5q64 100 64 293q0 291 -172 494l105 88q95 -92 150 -188q97 -169 97 -384q0 -218 -86 -358
q-44 -72 -119 -119q-89 -56 -193 -56q-159 0 -246 183q-88 -183 -247 -183q-139 0 -246 97q-151 137 -151 436q0 173 59 310t188 262z" />
    <glyph glyph-name="iotadieresis" unicode="&#x3ca;" horiz-adv-x="578" vert-adv-y="2457" 
d="M201 1071h170v-815q0 -72 22.5 -99.5t80.5 -27.5q15 0 38 2v-131q-45 -8 -84 -8q-117 0 -172 68.5t-55 213.5v797zM476 1493q43 0 75.5 -33t32.5 -76q0 -42 -32.5 -75t-75.5 -33q-44 0 -76.5 32.5t-32.5 75.5q0 44 33 76.5t76 32.5zM103 1493q43 0 75.5 -33t32.5 -76
q0 -42 -32.5 -75t-75.5 -33q-44 0 -76.5 32.5t-32.5 75.5q0 44 33 76.5t76 32.5z" />
    <glyph glyph-name="upsilondieresis" unicode="&#x3cb;" horiz-adv-x="1202" vert-adv-y="2457" 
d="M184 1071h170v-583q0 -187 42 -261q55 -98 205 -98q164 0 216 120q31 73 31 239v583h170v-580q0 -277 -94 -389q-53 -64 -128.5 -92t-194.5 -28q-153 0 -235 46q-121 68 -158 226q-24 100 -24 237v580zM415 1493q43 0 75.5 -33t32.5 -76q0 -42 -32.5 -75t-75.5 -33
q-44 0 -76.5 32.5t-32.5 75.5q0 44 33 76.5t76 32.5zM788 1493q43 0 75.5 -33t32.5 -76q0 -42 -32.5 -75t-75.5 -33q-44 0 -76.5 32.5t-32.5 75.5q0 44 33 76.5t76 32.5z" />
    <glyph glyph-name="omicrontonos" unicode="&#x3cc;" horiz-adv-x="1237" vert-adv-y="2457" 
d="M619 1089q209 0 350 -142q156 -157 156 -411t-156 -412q-141 -142 -351 -142q-205 0 -345 139q-160 158 -160 419q0 247 155 406q140 143 351 143zM618 948q-179 0 -268 -152q-61 -105 -61 -261q0 -224 119 -334q84 -78 207 -78q185 0 273 153q61 105 61 260
q0 154 -61 258q-90 154 -270 154zM558 1205l-31 358h184l-30 -358h-123z" />
    <glyph glyph-name="upsilontonos" unicode="&#x3cd;" horiz-adv-x="1202" vert-adv-y="2457" 
d="M184 1071h170v-583q0 -187 42 -261q55 -98 205 -98q164 0 216 120q31 73 31 239v583h170v-580q0 -277 -94 -389q-53 -64 -128.5 -92t-194.5 -28q-153 0 -235 46q-121 68 -158 226q-24 100 -24 237v580zM540 1205l-31 358h184l-30 -358h-123z" />
    <glyph glyph-name="omegatonos" unicode="&#x3ce;" horiz-adv-x="1534" vert-adv-y="2457" 
d="M475 999q-172 -204 -172 -494q0 -193 65 -293q25 -40 69 -64.5t91 -24.5q98 0 135 105q19 55 19 204v369h170v-369q0 -161 25 -218q39 -91 129 -91q47 0 91 24.5t70 64.5q64 100 64 293q0 291 -172 494l105 88q95 -92 150 -188q97 -169 97 -384q0 -218 -86 -358
q-44 -72 -119 -119q-89 -56 -193 -56q-159 0 -246 183q-88 -183 -247 -183q-139 0 -246 97q-151 137 -151 436q0 173 59 310t188 262zM706 1205l-31 358h184l-30 -358h-123z" />
    <glyph glyph-name="phi1" unicode="&#x3d5;" horiz-adv-x="1485" vert-adv-y="2457" 
d="M650 1078v474h169v-469q156 -13 282 -83q140 -79 211 -214q60 -115 60 -249q0 -184 -107 -325q-141 -187 -447 -225v-360h-170v360q-173 24 -293 103q-117 76 -179.5 189.5t-62.5 249.5q0 216 145 364t392 185zM648 118v828q-108 -29 -165 -59.5t-101 -82.5
q-89 -106 -89 -270q0 -235 173 -348q74 -48 182 -68zM818 119q147 23 229 86q145 113 145 329q0 173 -101.5 288t-272.5 136v-839z" />
    <glyph glyph-name="uni0400" unicode="&#x400;" horiz-adv-x="1268" vert-adv-y="2457" 
d="M197 0v1464h936v-141h-766v-516h635v-137h-635v-529h803v-141h-973zM633 1604l-225 331h223l119 -331h-117z" />
    <glyph glyph-name="afii10023" unicode="&#x401;" horiz-adv-x="1268" vert-adv-y="2457" 
d="M197 0v1464h936v-141h-766v-516h635v-137h-635v-529h803v-141h-973zM869 1829q43 0 75.5 -33t32.5 -76q0 -42 -32.5 -75t-75.5 -33q-44 0 -76.5 32.5t-32.5 75.5q0 44 33 76.5t76 32.5zM496 1829q43 0 75.5 -33t32.5 -76q0 -42 -32.5 -75t-75.5 -33q-44 0 -76.5 32.5
t-32.5 75.5q0 44 33 76.5t76 32.5z" />
    <glyph glyph-name="afii10051" unicode="&#x402;" horiz-adv-x="1624" vert-adv-y="2457" 
d="M600 0h-170v1323h-430v141h1180v-141h-580v-548q140 183 410 183q237 0 342 -139.5t105 -455.5v-60q0 -279 -53 -423q-91 -250 -408 -254l-11 141q92 6 140 25t79 62q40 55 58 158.5t18 279.5v65q0 213 -47 314q-65 140 -256 140q-298 0 -377 -270v-541z" />
    <glyph glyph-name="afii10052" unicode="&#x403;" horiz-adv-x="1085" vert-adv-y="2457" 
d="M197 0v1464h848v-141h-678v-1323h-170zM545 1604l119 331h223l-225 -331h-117z" />
    <glyph glyph-name="afii10053" unicode="&#x404;" horiz-adv-x="1419" vert-adv-y="2457" 
d="M1350 1131l-148 -56q-43 105 -102 164q-109 107 -292 107q-210 0 -339 -144t-144 -395h705v-137h-706q9 -152 58 -266q120 -281 429 -281q297 0 401 274l149 -58q-157 -357 -570 -357q-268 0 -440 175q-204 210 -204 573q0 321 166 531q178 226 489 226q246 0 396 -134
q89 -79 152 -222z" />
    <glyph glyph-name="afii10054" unicode="&#x405;" horiz-adv-x="1350" vert-adv-y="2457" 
d="M119 391l162 29q24 -84 58 -135t91 -91q102 -71 254 -71q174 0 274 89q76 68 76 185q0 120 -78 182t-289 110q-138 32 -207.5 56t-126.5 61q-157 102 -157 295q0 182 141 286q127 95 331 95q191 0 313.5 -80.5t193.5 -252.5l-151 -41q-50 107 -112 158q-92 75 -251 75
q-150 0 -227.5 -58.5t-77.5 -170.5q0 -102 52 -148q43 -39 107.5 -63.5t200.5 -54.5q225 -49 330 -116q174 -111 174 -327q0 -206 -158 -320q-140 -101 -355 -101q-235 0 -389 122q-69 55 -110.5 121t-68.5 166z" />
    <glyph glyph-name="afii10055" unicode="&#x406;" horiz-adv-x="596" vert-adv-y="2457" 
d="M213 0v1464h170v-1464h-170z" />
    <glyph glyph-name="afii10056" unicode="&#x407;" horiz-adv-x="621" vert-adv-y="2457" 
d="M226 0v1464h170v-1464h-170zM132 1829q43 0 75.5 -33t32.5 -76q0 -42 -32.5 -75t-75.5 -33q-44 0 -76.5 32.5t-32.5 75.5q0 44 33 76.5t76 32.5zM505 1829q43 0 75.5 -33t32.5 -76q0 -42 -32.5 -75t-75.5 -33q-44 0 -76.5 32.5t-32.5 75.5q0 44 33 76.5t76 32.5z" />
    <glyph glyph-name="afii10057" unicode="&#x408;" horiz-adv-x="1149" vert-adv-y="2457" 
d="M962 1464v-981q0 -214 -80 -336q-109 -165 -350 -165q-198 0 -313 115t-115 312v107h170v-84q0 -313 252 -313q266 0 266 340v1005h170z" />
    <glyph glyph-name="afii10058" unicode="&#x409;" horiz-adv-x="2092" vert-adv-y="2457" 
d="M1007 0v1323h-599v-170q-8 -448 -53 -689q-24 -134 -58 -235.5t-99 -228.5h-194q67 101 103 185.5t62 200.5q66 287 73 802v276h935v-616h311q257 0 377 -86q160 -116 160 -337q0 -242 -185 -355q-115 -70 -352 -70h-481zM1177 141h346q336 0 336 284q0 282 -336 282
h-346v-566z" />
    <glyph glyph-name="afii10059" unicode="&#x40a;" horiz-adv-x="2124" vert-adv-y="2457" 
d="M197 0v1464h170v-616h672v616h170v-616h311q257 0 377 -86q160 -116 160 -337q0 -242 -185 -355q-115 -70 -352 -70h-481v701h-672v-701h-170zM1209 141h346q336 0 336 284q0 282 -336 282h-346v-566z" />
    <glyph glyph-name="afii10060" unicode="&#x40b;" horiz-adv-x="1624" vert-adv-y="2457" 
d="M600 0h-170v1323h-430v141h1180v-141h-580v-548q140 183 411 183q244 0 355 -144q94 -121 94 -330v-484h-170v398q0 200 -45 285q-68 128 -266 128q-154 0 -247 -66t-132 -204v-541z" />
    <glyph glyph-name="afii10061" unicode="&#x40c;" horiz-adv-x="1315" vert-adv-y="2457" 
d="M197 0v1464h170v-661h63q95 0 146.5 16t84.5 57q31 38 55.5 87t94.5 214q71 167 148.5 229t216.5 62q30 0 78 -4v-145q-32 3 -61 3q-109 0 -153.5 -47t-123.5 -247q-54 -135 -99.5 -186.5t-152.5 -98.5q93 -26 137 -55q99 -64 193 -215l293 -473h-207l-247 401
q-105 169 -176.5 224t-187.5 55h-102v-680h-170zM594 1604l119 331h223l-225 -331h-117z" />
    <glyph glyph-name="uni040D" unicode="&#x40d;" horiz-adv-x="1458" vert-adv-y="2457" 
d="M197 0v1464h160v-1076l745 937v139h160v-1464h-160v1092l-745 -937v-155h-160zM679 1604l-225 331h223l119 -331h-117z" />
    <glyph glyph-name="afii10062" unicode="&#x40e;" horiz-adv-x="1147" vert-adv-y="2457" 
d="M517 306l-501 1158h184l391 -943l326 943h180l-402 -1115q-54 -147 -76 -194.5t-55 -83.5q-86 -94 -246 -94q-75 0 -140 23l47 135q44 -17 90 -17q82 0 123.5 38.5t78.5 149.5zM264 1867h133q8 -161 176 -161q169 0 176 161h133q-1 -114 -55 -188q-75 -104 -254 -104
q-195 0 -268 125q-40 69 -41 167z" />
    <glyph glyph-name="afii10145" unicode="&#x40f;" horiz-adv-x="1409" vert-adv-y="2457" 
d="M197 0v1464h170v-1323h676v1323h170v-1464h-411l-29 -348h-136l-29 348h-411z" />
    <glyph glyph-name="afii10017" unicode="&#x410;" horiz-adv-x="1288" vert-adv-y="2457" 
d="M1254 0h-175l-126 365h-626l-126 -365h-166l530 1464h164zM904 506l-265 762l-263 -762h528z" />
    <glyph glyph-name="afii10018" unicode="&#x411;" horiz-adv-x="1307" vert-adv-y="2457" 
d="M197 0v1464h899v-141h-729v-436h335q256 0 375 -91q160 -122 160 -352q0 -253 -185 -370q-115 -74 -350 -74h-505zM367 141h369q335 0 335 302q0 303 -335 303h-369v-605z" />
    <glyph glyph-name="afii10019" unicode="&#x412;" horiz-adv-x="1407" vert-adv-y="2457" 
d="M197 0v1464h555q226 0 345 -90q130 -100 130 -296q0 -112 -46 -183t-153 -124q124 -39 189 -104q92 -93 92 -252q0 -213 -156 -323q-132 -92 -346 -92h-610zM367 141h467q165 0 245 87q64 69 64 188q0 268 -328 268h-448v-543zM367 825h436q258 0 258 257
q0 123 -72.5 182t-224.5 59h-397v-498z" />
    <glyph glyph-name="afii10020" unicode="&#x413;" horiz-adv-x="1085" vert-adv-y="2457" 
d="M197 0v1464h848v-141h-678v-1323h-170z" />
    <glyph glyph-name="afii10021" unicode="&#x414;" horiz-adv-x="1434" vert-adv-y="2457" 
d="M1204 0h-1077l-29 -348h-139v489h144q51 86 78.5 171.5t48.5 222.5q53 342 53 726v203h933v-1323h156v-489h-140zM1046 141v1182h-599v-97q-15 -772 -164 -1085h763z" />
    <glyph glyph-name="afii10022" unicode="&#x415;" horiz-adv-x="1268" vert-adv-y="2457" 
d="M197 0v1464h936v-141h-766v-516h635v-137h-635v-529h803v-141h-973z" />
    <glyph glyph-name="afii10024" unicode="&#x416;" horiz-adv-x="1825" vert-adv-y="2457" 
d="M829 0v680q-112 0 -159 -24q-94 -48 -213 -255l-230 -401h-207l274 473q71 122 136.5 180t170.5 90q-103 46 -144.5 104t-115.5 260q-48 131 -92.5 173t-135.5 42q-28 0 -60 -3v145q48 4 71 4q132 0 212 -64q40 -32 70.5 -84t78.5 -168q70 -172 97.5 -225t61.5 -81
q53 -43 185 -43v661h166v-661q132 0 185 43q34 28 61 80t98 226q47 115 78 167.5t71 84.5q80 64 212 64q23 0 71 -4v-145q-32 3 -61 3q-101 0 -141.5 -47t-114.5 -247q-50 -137 -93 -190t-138 -95q86 -27 127 -55q92 -63 180 -215l274 -473h-206l-232 401q-119 207 -212 255
q-47 24 -159 24v-680h-166z" />
    <glyph glyph-name="afii10025" unicode="&#x417;" horiz-adv-x="1360" vert-adv-y="2457" 
d="M57 383l160 35q84 -295 435 -295q160 0 262 58q118 69 118 223q0 140 -105 217q-101 74 -290 74h-209v145h200q168 0 261 63q100 67 100 187q0 108 -78 175q-90 76 -255 76q-147 0 -237 -60t-143 -194l-143 37q46 151 160 243q142 115 375 115t370 -116
q127 -107 127 -274q0 -214 -234 -315q281 -87 281 -365q0 -224 -182 -335q-155 -95 -382 -95q-294 0 -464 163q-95 91 -127 238z" />
    <glyph glyph-name="afii10026" unicode="&#x418;" horiz-adv-x="1458" vert-adv-y="2457" 
d="M197 0v1464h160v-1076l745 937v139h160v-1464h-160v1092l-745 -937v-155h-160z" />
    <glyph glyph-name="afii10027" unicode="&#x419;" horiz-adv-x="1458" vert-adv-y="2457" 
d="M197 0v1464h160v-1076l745 937v139h160v-1464h-160v1092l-745 -937v-155h-160zM428 1867h133q8 -161 176 -161q169 0 176 161h133q-1 -114 -55 -188q-75 -104 -254 -104q-195 0 -268 125q-40 69 -41 167z" />
    <glyph glyph-name="afii10028" unicode="&#x41a;" horiz-adv-x="1315" vert-adv-y="2457" 
d="M197 0v1464h170v-661h63q95 0 146.5 16t84.5 57q31 38 55.5 87t94.5 214q71 167 148.5 229t216.5 62q30 0 78 -4v-145q-32 3 -61 3q-109 0 -153.5 -47t-123.5 -247q-54 -135 -99.5 -186.5t-152.5 -98.5q93 -26 137 -55q99 -64 193 -215l293 -473h-207l-247 401
q-105 169 -176.5 224t-187.5 55h-102v-680h-170z" />
    <glyph glyph-name="afii10029" unicode="&#x41b;" horiz-adv-x="1373" vert-adv-y="2457" 
d="M1007 0v1323h-599v-170q-8 -448 -53 -689q-24 -133 -58 -234.5t-99 -229.5h-194q67 102 103 186t62 200q66 286 73 802v276h935v-1464h-170z" />
    <glyph glyph-name="afii10030" unicode="&#x41c;" horiz-adv-x="1815" vert-adv-y="2457" 
d="M197 0v1464h266l450 -1255l441 1255h264v-1464h-170v1304l-460 -1304h-157l-474 1304v-1304h-160z" />
    <glyph glyph-name="afii10031" unicode="&#x41d;" horiz-adv-x="1475" vert-adv-y="2457" 
d="M197 0v1464h170v-665h741v665h170v-1464h-170v652h-741v-652h-170z" />
    <glyph glyph-name="afii10032" unicode="&#x41e;" horiz-adv-x="1649" vert-adv-y="2457" 
d="M824 1482q274 0 462 -188q215 -216 215 -562q0 -215 -89 -388q-92 -179 -257 -275q-151 -87 -331 -87q-274 0 -462 188q-215 215 -215 569q0 209 89 381q95 183 257 275q154 87 331 87zM824 1341q-130 0 -238 -63q-143 -85 -211 -263q-48 -127 -48 -277q0 -288 144 -455
q138 -160 353 -160q238 0 377 191q120 164 120 418q0 282 -144 449q-138 160 -353 160z" />
    <glyph glyph-name="afii10033" unicode="&#x41f;" horiz-adv-x="1454" vert-adv-y="2457" 
d="M197 0v1464h1061v-1464h-170v1317h-721v-1317h-170z" />
    <glyph glyph-name="afii10034" unicode="&#x420;" horiz-adv-x="1341" vert-adv-y="2457" 
d="M197 0v1464h521q155 0 246 -32q263 -92 263 -396q0 -217 -145 -324q-123 -91 -332 -91h-383v-621h-170zM367 758h362q169 0 246 74q78 75 78 213q0 142 -76.5 210t-237.5 68h-372v-565z" />
    <glyph glyph-name="afii10035" unicode="&#x421;" horiz-adv-x="1487" vert-adv-y="2457" 
d="M1376 416q-57 -154 -125 -237q-161 -197 -452 -197q-270 0 -444 175q-208 209 -208 573q0 337 184 549q179 208 473 208q248 0 397 -149q52 -52 85.5 -110.5t72.5 -162.5l-149 -54q-51 151 -122 225q-105 110 -283 110q-262 0 -388 -222q-90 -160 -90 -394
q0 -229 87 -385q125 -222 394 -222q194 0 304 127q67 76 112 223z" />
    <glyph glyph-name="afii10036" unicode="&#x422;" horiz-adv-x="1192" vert-adv-y="2457" 
d="M1134 1464v-141h-452v-1323h-170v1323h-455v141h1077z" />
    <glyph glyph-name="afii10037" unicode="&#x423;" horiz-adv-x="1147" vert-adv-y="2457" 
d="M517 306l-501 1158h184l391 -943l326 943h180l-402 -1115q-54 -147 -76 -194.5t-55 -83.5q-86 -94 -246 -94q-75 0 -140 23l47 135q44 -17 90 -17q82 0 123.5 38.5t78.5 149.5z" />
    <glyph glyph-name="afii10038" unicode="&#x424;" horiz-adv-x="1772" vert-adv-y="2457" 
d="M802 -61v210q-249 16 -396 106q-140 85 -206 228q-53 113 -53 250q0 200 110 344q85 111 216 168.5t329 70.5v210h166v-210q249 -16 396 -106q140 -85 206 -228q53 -113 53 -249q0 -201 -110 -345q-85 -111 -216 -168.5t-329 -70.5v-210h-166zM802 279v907
q-183 -15 -292 -79q-183 -106 -183 -374q0 -269 183 -375q109 -64 292 -79zM968 279q183 15 292 79q183 106 183 375q0 268 -183 374q-109 64 -292 79v-907z" />
    <glyph glyph-name="afii10039" unicode="&#x425;" horiz-adv-x="1262" vert-adv-y="2457" 
d="M53 0l483 751l-450 713h194l365 -575l362 575h179l-455 -713l477 -751h-194l-392 616l-391 -616h-178z" />
    <glyph glyph-name="afii10040" unicode="&#x426;" horiz-adv-x="1430" vert-adv-y="2457" 
d="M197 0v1464h170v-1323h676v1323h170v-1323h155v-489h-139l-29 348h-1003z" />
    <glyph glyph-name="afii10041" unicode="&#x427;" horiz-adv-x="1369" vert-adv-y="2457" 
d="M1173 0h-170v577q-123 -165 -401 -165q-250 0 -357 149q-76 107 -76 276v627h170v-639q0 -145 83 -210q72 -56 219 -56q164 0 264 78q98 78 98 209v618h170v-1464z" />
    <glyph glyph-name="afii10042" unicode="&#x428;" horiz-adv-x="2079" vert-adv-y="2457" 
d="M197 0v1464h170v-1323h588v1323h170v-1323h588v1323h170v-1464h-1686z" />
    <glyph glyph-name="afii10043" unicode="&#x429;" horiz-adv-x="2099" vert-adv-y="2457" 
d="M197 0v1464h170v-1323h588v1323h170v-1323h588v1323h170v-1323h155v-489h-139l-29 348h-1673z" />
    <glyph glyph-name="afii10044" unicode="&#x42a;" horiz-adv-x="1476" vert-adv-y="2457" 
d="M391 0v1323h-379v141h549v-561h311q258 0 377 -93q160 -124 160 -358q0 -257 -185 -377q-115 -75 -352 -75h-481zM561 141h346q179 0 259 84q77 82 77 227q0 310 -336 310h-346v-621z" />
    <glyph glyph-name="afii10045" unicode="&#x42b;" horiz-adv-x="1800" vert-adv-y="2457" 
d="M197 0v1464h170v-561h311q258 0 377 -93q160 -124 160 -358q0 -257 -185 -377q-115 -75 -352 -75h-481zM367 141h346q179 0 259 84q77 82 77 227q0 310 -336 310h-346v-621zM1434 0v1464h170v-1464h-170z" />
    <glyph glyph-name="afii10046" unicode="&#x42c;" horiz-adv-x="1282" vert-adv-y="2457" 
d="M197 0v1464h170v-561h311q258 0 377 -93q160 -124 160 -358q0 -257 -185 -377q-115 -75 -352 -75h-481zM367 141h346q179 0 259 84q77 82 77 227q0 310 -336 310h-346v-621z" />
    <glyph glyph-name="afii10047" unicode="&#x42d;" horiz-adv-x="1402" vert-adv-y="2457" 
d="M363 670v137h714q-14 184 -76 310q-112 229 -372 229q-289 0 -413 -271l-147 56q71 146 168 227q156 129 394 129q323 0 489 -252q134 -202 134 -507q0 -370 -198 -573q-168 -173 -439 -173q-202 0 -338.5 87t-221.5 270l148 57q44 -102 102 -161q113 -112 302 -112
q211 0 332 141t137 406h-715z" />
    <glyph glyph-name="afii10048" unicode="&#x42e;" horiz-adv-x="2177" vert-adv-y="2457" 
d="M197 0v1464h170v-665h353q22 264 159 441q96 123 233 186q123 56 264 56q262 0 443 -185q103 -106 157 -253q54 -144 54 -310q0 -238 -103 -424q-88 -158 -231 -243q-142 -85 -314 -85q-263 0 -447 186.5t-214 483.5h-354v-652h-170zM1374 1341q-233 0 -366 -196
q-111 -164 -111 -413q0 -304 162 -473q130 -136 321 -136q264 0 386 226q84 157 84 372q0 278 -131 448q-131 172 -345 172z" />
    <glyph glyph-name="afii10049" unicode="&#x42f;" horiz-adv-x="1415" vert-adv-y="2457" 
d="M1218 0h-170v637h-291q-104 0 -166 -16t-106 -54q-44 -39 -65.5 -89.5t-49.5 -182.5q-41 -192 -106 -295h-170v10q76 113 129 387q25 121 83 185.5t175 102.5q-90 20 -138 48q-174 100 -174 326q0 201 134 314q58 50 139 70.5t215 20.5h561v-1464zM1048 774v549h-412
q-162 0 -230 -66q-71 -69 -71 -199q0 -284 324 -284h389z" />
    <glyph glyph-name="afii10065" unicode="&#x430;" horiz-adv-x="1120" vert-adv-y="2457" 
d="M780 145q-136 -163 -329 -163q-150 0 -244 83t-94 214q0 165 140 252q86 54 198 77.5t319 30.5v67q0 125 -51 183.5t-161 58.5q-83 0 -153.5 -30.5t-152.5 -102.5l-100 111q94 86 190.5 124.5t217.5 38.5q193 0 292 -109q88 -98 88 -274v-477q0 -57 25.5 -79t95.5 -23
v-133q-33 -2 -59 -2q-172 0 -222 153zM770 518q-178 -6 -283 -33q-204 -52 -204 -202q0 -78 51.5 -121t145.5 -43q127 0 208.5 66t81.5 169v164z" />
    <glyph glyph-name="afii10066" unicode="&#x431;" horiz-adv-x="1212" vert-adv-y="2457" 
d="M1011 1542l-28 -147h-259q-182 0 -264 -35q-91 -38 -130.5 -149t-41.5 -335q84 115 172.5 164t212.5 49q210 0 327 -170q99 -144 99 -372q0 -251 -129 -409q-127 -156 -344 -156q-183 0 -307 102q-105 87 -144.5 228.5t-39.5 430.5q0 461 105 621q81 124 224 156
q100 22 207 22h340zM627 948q-155 0 -243 -129q-75 -111 -75 -284q0 -154 60 -261q85 -151 258 -151q147 0 225 120q71 110 71 285q0 164 -54 268q-78 152 -242 152z" />
    <glyph glyph-name="afii10067" unicode="&#x432;" horiz-adv-x="1188" vert-adv-y="2457" 
d="M197 0v1071h464q208 0 297 -87q73 -72 73 -205q0 -75 -25.5 -124.5t-83.5 -86.5q88 -36 128 -96.5t40 -158.5q0 -153 -99 -233t-289 -80h-505zM363 137h358q93 0 148 47.5t55 128.5q0 80 -57.5 125.5t-158.5 45.5h-345v-347zM363 621h336q78 0 122 42.5t44 118.5
q0 152 -195 152h-307v-313z" />
    <glyph glyph-name="afii10068" unicode="&#x433;" horiz-adv-x="899" vert-adv-y="2457" 
d="M197 0v1071h662v-141h-492v-930h-170z" />
    <glyph glyph-name="afii10069" unicode="&#x434;" horiz-adv-x="1182" vert-adv-y="2457" 
d="M941 0h-809l-22 -307h-139v448h101q181 276 181 833v97h724v-930h125v-448h-139zM807 141v789h-401v-37q-14 -319 -59 -490q-34 -132 -100 -262h560z" />
    <glyph glyph-name="afii10070" unicode="&#x435;" horiz-adv-x="1165" vert-adv-y="2457" 
d="M1043 225q-139 -243 -422 -243q-217 0 -356 140q-152 153 -152 411q0 246 136 401q135 155 353 155q216 0 341 -148q116 -137 116 -384v-55h-770q8 -119 32 -182q75 -197 298 -197q100 0 164.5 40.5t122.5 139.5zM885 639q-14 130 -52 194q-70 115 -230 115
q-250 0 -308 -309h590z" />
    <glyph glyph-name="afii10072" unicode="&#x436;" horiz-adv-x="1549" vert-adv-y="2457" 
d="M692 0v496h-49q-70 0 -115.5 -35t-99.5 -129l-191 -332h-196l195 332q105 178 226 218q-81 39 -115 91q-24 36 -90 198q-24 60 -46 75.5t-85 15.5h-45v141h48q124 0 171 -32q31 -22 55 -60.5t67 -138.5q68 -155 102 -188.5t127 -33.5h41v453h166v-453h41q98 0 135 43
q30 33 93 179q44 100 67.5 138.5t54.5 60.5q47 32 172 32h48v-141h-45q-72 0 -91.5 -19.5t-66.5 -137.5q-46 -112 -76 -150t-102 -73q120 -40 225 -218l195 -332h-196l-190 332q-54 94 -100 129t-115 35h-49v-496h-166z" />
    <glyph glyph-name="afii10073" unicode="&#x437;" horiz-adv-x="1079" vert-adv-y="2457" 
d="M57 286l160 33q61 -196 308 -196q110 0 183 41q37 21 59.5 59.5t22.5 81.5q0 85 -74 135t-201 50h-174v141h168q118 0 185 42q71 44 71 114q0 71 -65.5 116t-168.5 45q-105 0 -169 -35.5t-103 -115.5l-144 51q84 241 419 241q192 0 298 -86q99 -80 99 -214
q0 -77 -32 -127t-108 -92q175 -73 175 -259q0 -176 -142 -259q-119 -70 -301 -70q-253 0 -379 127q-64 65 -87 177z" />
    <glyph glyph-name="afii10074" unicode="&#x438;" horiz-adv-x="1247" vert-adv-y="2457" 
d="M197 0v1071h170v-732l514 611v121h170v-1071h-170v743l-514 -610v-133h-170z" />
    <glyph glyph-name="afii10075" unicode="&#x439;" horiz-adv-x="1247" vert-adv-y="2457" 
d="M197 0v1071h170v-732l514 611v121h170v-1071h-170v743l-514 -610v-133h-170zM335 1538h133q7 -161 156 -161t155 161h134q-2 -114 -52 -188q-70 -104 -237 -104q-183 0 -251 126q-37 68 -38 166z" />
    <glyph glyph-name="afii10076" unicode="&#x43a;" horiz-adv-x="1132" vert-adv-y="2457" 
d="M197 0v1071h170v-457h78q100 0 136 33t105 188q46 102 71 141.5t58 61.5q50 33 181 33h48v-141h-45q-78 0 -99 -19.5t-73 -137.5q-36 -82 -53.5 -112t-45.5 -56q-29 -27 -94 -55q129 -40 241 -218l209 -332h-197l-194 316q-56 92 -108.5 127.5t-131.5 35.5h-86v-479h-170
z" />
    <glyph glyph-name="afii10077" unicode="&#x43b;" horiz-adv-x="1196" vert-adv-y="2457" 
d="M829 0v930h-403v-160q0 -497 -177 -770h-192q110 169 156 347q49 189 49 504v220h737v-1071h-170z" />
    <glyph glyph-name="afii10078" unicode="&#x43c;" horiz-adv-x="1522" vert-adv-y="2457" 
d="M197 0v1071h243l326 -849l321 849h238v-1071h-160v886l-337 -886h-127l-348 890v-890h-156z" />
    <glyph glyph-name="afii10079" unicode="&#x43d;" horiz-adv-x="1241" vert-adv-y="2457" 
d="M197 0v1071h170v-457h508v457h170v-1071h-170v473h-508v-473h-170z" />
    <glyph glyph-name="afii10080" unicode="&#x43e;" horiz-adv-x="1237" vert-adv-y="2457" 
d="M619 1089q209 0 350 -142q156 -157 156 -411t-156 -412q-141 -142 -351 -142q-205 0 -345 139q-160 158 -160 419q0 247 155 406q140 143 351 143zM618 948q-179 0 -268 -152q-61 -105 -61 -261q0 -224 119 -334q84 -78 207 -78q185 0 273 153q61 105 61 260
q0 154 -61 258q-90 154 -270 154z" />
    <glyph glyph-name="afii10081" unicode="&#x43f;" vert-adv-y="2457" 
d="M197 0v1071h840v-1071h-170v930h-500v-930h-170z" />
    <glyph glyph-name="afii10082" unicode="&#x440;" horiz-adv-x="1276" vert-adv-y="2457" 
d="M197 -373v1444h170v-176q122 194 348 194q180 0 301 -122q148 -150 148 -426q0 -283 -150 -437q-119 -122 -300 -122q-229 0 -347 190v-545h-170zM685 948q-144 0 -231 -102q-93 -109 -93 -312q0 -228 112 -333q83 -78 212 -78q303 0 303 402q0 242 -112 350
q-76 73 -191 73z" />
    <glyph glyph-name="afii10083" unicode="&#x441;" horiz-adv-x="1108" vert-adv-y="2457" 
d="M1047 229q-151 -247 -435 -247q-207 0 -345 140q-154 156 -154 413q0 266 155 421q132 133 338 133q270 0 416 -233l-135 -90q-66 103 -125.5 142.5t-152.5 39.5q-177 0 -260 -146q-60 -106 -60 -271q0 -229 114 -334q80 -74 209 -74q103 0 171 42t133 146z" />
    <glyph glyph-name="afii10084" unicode="&#x442;" horiz-adv-x="858" vert-adv-y="2457" 
d="M344 0v930h-332v141h834v-141h-332v-930h-170z" />
    <glyph glyph-name="afii10085" unicode="&#x443;" horiz-adv-x="1014" vert-adv-y="2457" 
d="M55 -322l62 123q66 -45 135 -45q113 0 151 127l39 129l-401 1059h184l301 -815l277 815h178l-444 -1239q-78 -217 -278 -217q-116 0 -204 63z" />
    <glyph glyph-name="afii10086" unicode="&#x444;" horiz-adv-x="1731" vert-adv-y="2457" 
d="M787 -373v533q-94 -178 -278 -178q-182 0 -292 159q-104 151 -104 400q0 243 103 390q111 158 293 158q180 0 278 -174v627h158v-627q97 174 277 174q90 0 168.5 -43.5t131.5 -123.5q97 -146 97 -381q0 -260 -112 -411q-110 -148 -284 -148q-185 0 -278 178v-533h-158z
M1193 948q-144 0 -209 -153q-45 -106 -45 -262q0 -158 44 -261q65 -149 216 -149q244 0 244 404q0 173 -49 280q-66 141 -201 141zM539 948q-119 0 -184.5 -110.5t-65.5 -309.5q0 -171 47 -275q60 -130 195 -130q153 0 218 149q44 103 44 262q0 165 -51 273
q-65 141 -203 141z" />
    <glyph glyph-name="afii10087" unicode="&#x445;" horiz-adv-x="1069" vert-adv-y="2457" 
d="M51 0l383 551l-358 520h198l262 -389l260 389h185l-355 -508l392 -563h-201l-289 432l-295 -432h-182z" />
    <glyph glyph-name="afii10088" unicode="&#x446;" horiz-adv-x="1214" vert-adv-y="2457" 
d="M197 0v1071h170v-930h473v930h170v-930h125v-448h-139l-22 307h-777z" />
    <glyph glyph-name="afii10089" unicode="&#x447;" horiz-adv-x="1167" vert-adv-y="2457" 
d="M147 1071h170v-445q0 -62 13.5 -96.5t46.5 -57.5q56 -40 166 -40q114 0 186 53q71 53 71 130v456h170v-1071h-170v388q-107 -97 -284 -97q-197 0 -290 94q-43 43 -61 99t-18 148v439z" />
    <glyph glyph-name="afii10090" unicode="&#x448;" horiz-adv-x="1747" vert-adv-y="2457" 
d="M197 0v1071h170v-930h422v930h170v-930h422v930h170v-1071h-1354z" />
    <glyph glyph-name="afii10091" unicode="&#x449;" horiz-adv-x="1755" vert-adv-y="2457" 
d="M197 0v1071h170v-929h422v929h170v-929h422v929h170v-929h125v-449h-139l-22 307h-1318z" />
    <glyph glyph-name="afii10092" unicode="&#x44a;" horiz-adv-x="1204" vert-adv-y="2457" 
d="M454 696h267q200 0 291 -68q122 -91 122 -280q0 -206 -141 -293q-88 -55 -272 -55h-433v930h-276v141h442v-375zM454 137h292q116 0 170 60q52 57 52 151q0 102 -57.5 156.5t-164.5 54.5h-292v-422z" />
    <glyph glyph-name="afii10093" unicode="&#x44b;" horiz-adv-x="1565" vert-adv-y="2457" 
d="M197 0v1071h166v-375h267q200 0 291 -68q122 -91 122 -280q0 -206 -141 -293q-88 -55 -272 -55h-433zM363 137h292q116 0 170 60q52 57 52 151q0 102 -57 156.5t-165 54.5h-292v-422zM1198 0v1071h170v-1071h-170z" />
    <glyph glyph-name="afii10094" unicode="&#x44c;" horiz-adv-x="1112" vert-adv-y="2457" 
d="M197 0v1071h166v-375h267q200 0 291 -68q122 -91 122 -280q0 -206 -141 -293q-88 -55 -272 -55h-433zM363 137h292q116 0 170 60q52 57 52 151q0 102 -57 156.5t-165 54.5h-292v-422z" />
    <glyph glyph-name="afii10095" unicode="&#x44d;" horiz-adv-x="1100" vert-adv-y="2457" 
d="M311 471v137h496q-8 90 -35 155q-74 185 -269 185q-94 0 -156 -34.5t-134 -127.5l-130 87q78 113 177 164.5t237 51.5q215 0 342 -133q148 -155 148 -422q0 -222 -115 -373q-136 -179 -386 -179q-143 0 -247 54t-182 169l128 85q48 -65 90 -97q90 -70 221 -70
q287 0 313 348h-498z" />
    <glyph glyph-name="afii10096" unicode="&#x44e;" horiz-adv-x="1710" vert-adv-y="2457" 
d="M197 0v1071h170v-469h248q19 182 114 305q142 182 376 182q204 0 341 -142q152 -157 152 -410q0 -254 -152 -412q-138 -143 -342 -143q-195 0 -329 131.5t-159 347.5h-249v-461h-170zM1102 948q-173 0 -257 -152q-58 -106 -58 -261q0 -222 113 -333q80 -79 198 -79
q178 0 262 153q58 108 58 260q0 153 -58 258q-85 154 -258 154z" />
    <glyph glyph-name="afii10097" unicode="&#x44f;" horiz-adv-x="1182" vert-adv-y="2457" 
d="M985 0h-166v438h-233q-120 0 -172 -46q-30 -25 -44 -58t-33 -121q-30 -138 -79 -213h-162v39q48 57 94 263q30 137 137 186q-176 75 -176 283q0 157 103 237q81 63 274 63h457v-1071zM819 575v359h-307q-195 0 -195 -165q0 -91 56 -142.5t156 -51.5h290z" />
    <glyph glyph-name="uni0450" unicode="&#x450;" horiz-adv-x="1165" vert-adv-y="2457" 
d="M1043 225q-140 -243 -423 -243q-216 0 -355 140q-152 153 -152 411q0 268 159 425q131 131 328 131q211 0 335 -140q124 -139 124 -392v-55h-770q8 -119 32 -182q75 -197 298 -197q100 0 164 40.5t123 139.5zM885 639q-11 102 -32 153q-64 156 -250 156q-153 0 -235 -116
q-50 -69 -73 -193h590zM528 1210l-225 332h223l119 -332h-117z" />
    <glyph glyph-name="afii10071" unicode="&#x451;" horiz-adv-x="1165" vert-adv-y="2457" 
d="M1043 225q-139 -243 -422 -243q-217 0 -356 140q-152 153 -152 411q0 246 136 401q135 155 353 155q216 0 341 -148q116 -137 116 -384v-55h-770q8 -119 32 -182q75 -197 298 -197q100 0 164.5 40.5t122.5 139.5zM885 639q-14 130 -52 194q-70 115 -230 115
q-250 0 -308 -309h590zM417 1493q43 0 75.5 -33t32.5 -76q0 -42 -32.5 -75t-75.5 -33q-44 0 -76.5 32.5t-32.5 75.5q0 44 33 76.5t76 32.5zM790 1493q43 0 75.5 -33t32.5 -76q0 -42 -32.5 -75t-75.5 -33q-44 0 -76.5 32.5t-32.5 75.5q0 44 33 76.5t76 32.5z" />
    <glyph glyph-name="afii10099" unicode="&#x452;" horiz-adv-x="1251" vert-adv-y="2457" 
d="M600 -257q92 5 139.5 24t80.5 62q32 42 47 89t22 134q8 93 8 208v416q0 138 -56 202t-177 64q-130 0 -210 -78q-79 -78 -79 -209v-655h-170v1227h-156v141h156v174h170v-174h264v-141h-264v-320q100 182 331 182q170 0 264 -104q97 -108 97 -321v-396q0 -279 -45 -401
q-93 -249 -412 -253z" />
    <glyph glyph-name="afii10100" unicode="&#x453;" horiz-adv-x="899" vert-adv-y="2457" 
d="M197 0v1071h662v-141h-492v-930h-170zM430 1210l119 332h223l-225 -332h-117z" />
    <glyph glyph-name="afii10101" unicode="&#x454;" horiz-adv-x="1107" vert-adv-y="2457" 
d="M1022 876l-135 -90q-66 92 -124 127t-145 35q-291 0 -325 -340h496v-137h-498q29 -348 332 -348q97 0 163 37.5t129 129.5l131 -82q-149 -226 -422 -226q-265 0 -407 198q-104 147 -104 354q0 267 155 422q132 133 344 133q264 0 410 -213z" />
    <glyph glyph-name="afii10102" unicode="&#x455;" horiz-adv-x="1042" vert-adv-y="2457" 
d="M774 821q-66 72 -122.5 99.5t-137.5 27.5t-132 -28q-66 -37 -66 -117q0 -71 54 -107q44 -29 192 -67q174 -44 236 -84q130 -86 130 -244q0 -187 -174 -272q-96 -47 -232 -47q-278 0 -440 206l123 101q71 -95 138 -130.5t175 -35.5q244 0 244 165q0 78 -61 118
q-32 21 -61.5 30.5t-152.5 40.5q-137 34 -202 74q-135 84 -135 242q0 153 119 233q95 63 246 63q124 0 208.5 -35.5t161.5 -119.5z" />
    <glyph glyph-name="afii10103" unicode="&#x456;" horiz-adv-x="571" vert-adv-y="2457" 
d="M201 0v1071h170v-1071h-170zM283 1496q46 0 79 -33.5t33 -79.5q0 -45 -33 -78.5t-79 -33.5q-47 0 -80 33t-33 79q0 47 33.5 80t79.5 33z" />
    <glyph glyph-name="afii10104" unicode="&#x457;" horiz-adv-x="571" vert-adv-y="2457" 
d="M201 0v1071h170v-1071h-170zM100 1493q43 0 75.5 -33t32.5 -76q0 -42 -32.5 -75t-75.5 -33q-44 0 -76.5 32.5t-32.5 75.5q0 44 33 76.5t76 32.5zM473 1493q43 0 75.5 -33t32.5 -76q0 -42 -32.5 -75t-75.5 -33q-44 0 -76.5 32.5t-32.5 75.5q0 44 33 76.5t76 32.5z" />
    <glyph glyph-name="afii10105" unicode="&#x458;" horiz-adv-x="571" vert-adv-y="2457" 
d="M371 1071v-1165q0 -144 -71.5 -219.5t-208.5 -75.5q-74 0 -136 33l39 129q48 -21 80 -21q127 0 127 135v1184h170zM283 1496q45 0 78.5 -33.5t33.5 -79.5q0 -45 -33.5 -78.5t-78.5 -33.5q-47 0 -80 33t-33 79q0 47 33 80t80 33z" />
    <glyph glyph-name="afii10106" unicode="&#x459;" horiz-adv-x="1745" vert-adv-y="2457" 
d="M830 0v930h-402v-160q-9 -509 -177 -770h-194q108 167 154 347q51 200 51 504v220h738v-387h263q200 0 291 -67q122 -89 122 -275q0 -203 -141 -288q-89 -54 -272 -54h-433zM1000 137h288q115 0 170 58q52 56 52 147q0 99 -57.5 152t-164.5 53h-288v-410z" />
    <glyph glyph-name="afii10107" unicode="&#x45a;" horiz-adv-x="1774" vert-adv-y="2457" 
d="M859 0v510h-492v-510h-170v1071h170v-420h492v420h166v-387h267q200 0 291 -67q122 -89 122 -275q0 -203 -141 -288q-88 -54 -272 -54h-433zM1025 137h292q115 0 170 58q52 56 52 147q0 99 -57.5 152t-164.5 53h-292v-410z" />
    <glyph glyph-name="afii10108" unicode="&#x45b;" horiz-adv-x="1241" vert-adv-y="2457" 
d="M205 0v1227h-156v141h156v174h170v-174h264v-141h-264v-320q98 182 325 182q167 0 259 -104q96 -108 96 -321v-664h-170v676q0 138 -55 202t-172 64q-128 0 -206 -78q-77 -78 -77 -209v-655h-170z" />
    <glyph glyph-name="afii10109" unicode="&#x45c;" horiz-adv-x="1132" vert-adv-y="2457" 
d="M197 0v1071h170v-457h78q100 0 136 33t105 188q46 102 71 141.5t58 61.5q50 33 181 33h48v-141h-45q-78 0 -99 -19.5t-73 -137.5q-36 -82 -53.5 -112t-45.5 -56q-29 -27 -94 -55q129 -40 241 -218l209 -332h-197l-194 316q-56 92 -108.5 127.5t-131.5 35.5h-86v-479h-170
zM518 1210l119 332h223l-225 -332h-117z" />
    <glyph glyph-name="uni045D" unicode="&#x45d;" horiz-adv-x="1247" vert-adv-y="2457" 
d="M197 0v1071h170v-732l514 611v121h170v-1071h-170v743l-514 -610v-133h-170zM566 1210l-225 332h223l119 -332h-117z" />
    <glyph glyph-name="afii10110" unicode="&#x45e;" horiz-adv-x="1014" vert-adv-y="2457" 
d="M55 -322l62 123q66 -45 135 -45q113 0 151 127l39 129l-401 1059h184l301 -815l277 815h178l-444 -1239q-78 -217 -278 -217q-116 0 -204 63zM218 1538h133q7 -161 156 -161t155 161h134q-2 -114 -52 -188q-70 -104 -237 -104q-183 0 -251 126q-37 68 -38 166z" />
    <glyph glyph-name="afii10193" unicode="&#x45f;" horiz-adv-x="1206" vert-adv-y="2457" 
d="M197 0v1071h170v-930h473v930h170v-1071h-317l-21 -307h-137l-22 307h-316z" />
    <glyph glyph-name="afii10050" unicode="&#x490;" horiz-adv-x="1085" vert-adv-y="2457" 
d="M197 0v1464h693l29 238h126v-379h-678v-1323h-170z" />
    <glyph glyph-name="afii10098" unicode="&#x491;" horiz-adv-x="899" vert-adv-y="2457" 
d="M197 0v1071h508l21 213h133v-354h-496v-930h-166z" />
    <glyph glyph-name="uni0492" unicode="&#x492;" horiz-adv-x="1085" vert-adv-y="2457" 
d="M197 670h-156v138h156v656h848v-141h-678v-515h442v-138h-442v-670h-170v670z" />
    <glyph glyph-name="uni0493" unicode="&#x493;" horiz-adv-x="899" vert-adv-y="2457" 
d="M197 553h-136v141h136v377h661v-141h-491v-236h356v-141h-356v-553h-170v553z" />
    <glyph glyph-name="uni0496" unicode="&#x496;" horiz-adv-x="1825" vert-adv-y="2457" 
d="M1721 142h135v-489h-140l-28 347h-90l-232 401q-119 207 -212 254q-48 24 -159 24v-679h-166v679q-111 0 -159 -24q-93 -47 -213 -254l-230 -401h-207l274 472q71 122 137 180.5t170 90.5q-103 46 -144.5 103.5t-115.5 260.5q-48 130 -92.5 172.5t-134.5 42.5
q-30 0 -61 -3v145q48 4 71 4q132 0 212 -64q40 -32 70.5 -84t78.5 -169q69 -170 97 -224t62 -81q53 -43 185 -44v662h166v-662q132 1 185 44q34 27 61.5 80.5t97.5 224.5q47 116 78 168.5t71 84.5q80 64 212 64q23 0 71 -4v-145q-31 3 -59 3q-102 0 -143 -46.5t-115 -247.5
q-50 -137 -93 -190t-138 -95q86 -27 127 -55q92 -64 180 -216z" />
    <glyph glyph-name="uni0497" unicode="&#x497;" horiz-adv-x="1549" vert-adv-y="2457" 
d="M1427 139h106v-449h-140l-21 310h-60l-190 332q-54 94 -100 129t-115 35h-49v-496h-166v496h-49q-70 0 -115.5 -35t-99.5 -129l-191 -332h-196l195 332q105 178 226 218q-81 39 -115 91q-24 35 -90 198q-24 60 -46 75.5t-85 15.5h-45v141h48q124 0 171 -32
q32 -22 55.5 -60.5t66.5 -138.5q68 -155 102 -188t127 -33h41v452h166v-452h41q98 0 135 42q30 33 93 179q44 100 67.5 138.5t54.5 60.5q47 32 172 32h48v-141h-45q-72 0 -91.5 -19.5t-66.5 -137.5q-46 -112 -76 -150t-102 -73q120 -40 225 -218z" />
    <glyph glyph-name="uni049A" unicode="&#x49a;" horiz-adv-x="1315" vert-adv-y="2457" 
d="M1199 142h125v-489h-139l-29 347h-76l-247 401q-105 169 -176.5 224t-187.5 55h-102v-680h-170v1464h170v-661h63q95 0 146.5 16t84.5 57q31 38 55.5 87t94.5 214q71 167 148.5 229t216.5 62q30 0 78 -4v-145q-32 3 -60 3q-110 0 -154.5 -47t-123.5 -247
q-54 -135 -99.5 -186.5t-152.5 -98.5q93 -26 137 -55q99 -64 193 -215z" />
    <glyph glyph-name="uni049B" unicode="&#x49b;" horiz-adv-x="1143" vert-adv-y="2457" 
d="M995 143h122v-449h-139l-22 306h-63l-340 530l-186 -210v-320h-170v1071h170v-547l465 547h201l-368 -415z" />
    <glyph glyph-name="uni049C" unicode="&#x49c;" horiz-adv-x="1315" vert-adv-y="2457" 
d="M459 680h-92v-680h-170v1464h170v-661h63h29v429h141v-403q52 26 87 83.5t123 264.5q72 168 149.5 229.5t216.5 61.5q30 0 78 -4v-145q-34 3 -60 3q-110 0 -154.5 -47t-124.5 -247q-54 -135 -99 -186.5t-152 -97.5q92 -27 136 -55q99 -65 194 -216l293 -473h-207
l-248 401q-132 213 -232 258v-370h-141v391z" />
    <glyph glyph-name="uni049D" unicode="&#x49d;" horiz-adv-x="1132" vert-adv-y="2457" 
d="M422 479h-55v-479h-170v1071h170v-456h55v287h149v-262q39 26 115 195q46 102 71 141.5t58 61.5q49 33 181 33h48v-141h-45q-78 0 -99 -19.5t-73 -137.5q-49 -112 -82 -150.5t-111 -72.5q129 -40 241 -218l209 -332h-197l-194 316q-63 102 -122 136v-262h-149v289z" />
    <glyph glyph-name="uni04A2" unicode="&#x4a2;" horiz-adv-x="1475" vert-adv-y="2457" 
d="M1278 141h119v-489h-140l-28 348h-121v652h-741v-652h-170v1464h170v-665h741v665h170v-1323z" />
    <glyph glyph-name="uni04A3" unicode="&#x4a3;" horiz-adv-x="1241" vert-adv-y="2457" 
d="M1180 141l-2 -450h-139l-22 309h-142v473h-508v-473h-170v1071h170v-457h508v457h170v-930h135z" />
    <glyph glyph-name="uni04AE" unicode="&#x4ae;" horiz-adv-x="1135" vert-adv-y="2457" 
d="M496 0v614l-516 850h192l410 -706l397 706h176l-489 -852v-612h-170z" />
    <glyph glyph-name="uni04AF" unicode="&#x4af;" horiz-adv-x="1014" vert-adv-y="2457" 
d="M442 12l-401 1059h184l301 -815l277 815h178l-380 -1059v-388h-159v388z" />
    <glyph glyph-name="uni04B0" unicode="&#x4b0;" horiz-adv-x="1135" vert-adv-y="2457" 
d="M496 287h-335v141h335v186l-516 850h193l409 -706l397 706h176l-489 -852v-184h335v-141h-335v-287h-170v287z" />
    <glyph glyph-name="uni04B1" unicode="&#x4b1;" horiz-adv-x="1014" vert-adv-y="2457" 
d="M601 -5h202v-141h-202v-230h-159v230h-217v141h217v17l-401 1059h184l301 -815l277 815h178l-380 -1059v-17z" />
    <glyph glyph-name="uni04B2" unicode="&#x4b2;" horiz-adv-x="1262" vert-adv-y="2457" 
d="M1118 142h119v-489h-139l-29 347h-55l-392 616l-391 -616h-178l483 751l-450 713h194l365 -576l362 576h179l-455 -713z" />
    <glyph glyph-name="uni04B3" unicode="&#x4b3;" horiz-adv-x="1069" vert-adv-y="2457" 
d="M879 0h-62l-289 433l-295 -433h-182l383 551l-359 520h199l262 -389l260 389h185l-355 -507l293 -421h121v-449h-139z" />
    <glyph glyph-name="uni04B6" unicode="&#x4b6;" horiz-adv-x="1359" vert-adv-y="2457" 
d="M1097 0h-105v577q-122 -166 -395 -166q-248 0 -353 149q-75 107 -75 277v627h170v-639q0 -146 81 -211q71 -56 216 -56q161 0 259 79q97 77 97 208v619h170v-1323h103v-489h-139z" />
    <glyph glyph-name="uni04B7" unicode="&#x4b7;" horiz-adv-x="1157" vert-adv-y="2457" 
d="M960 141h110v-399h-127l-29 258h-124v388q-106 -97 -279 -97q-194 0 -286 94q-43 43 -60.5 99t-17.5 148v439h170v-445q0 -112 59 -154q55 -40 162 -40q112 0 183 53q69 52 69 130v456h170v-930z" />
    <glyph glyph-name="uni04B8" unicode="&#x4b8;" horiz-adv-x="1369" vert-adv-y="2457" 
d="M724 422v-335h-141v325q-410 11 -414 426v626h170v-639q0 -124 59 -187.5t185 -75.5v389h141v-386q132 22 205.5 95.5t73.5 185.5v618h170v-1464h-170v578q-94 -127 -279 -156z" />
    <glyph glyph-name="uni04B9" unicode="&#x4b9;" horiz-adv-x="1157" vert-adv-y="2457" 
d="M458 441v286h170v-287q80 20 125.5 66.5t45.5 108.5v456h170v-1071h-170v388q-73 -68 -171 -87v-197h-170v189q-311 31 -302 339v439h170v-445q0 -85 29.5 -126t102.5 -59z" />
    <glyph glyph-name="uni04BA" unicode="&#x4ba;" horiz-adv-x="1369" vert-adv-y="2457" 
d="M169 1464h170v-577q122 166 401 166q251 0 357 -149q76 -108 76 -277v-627h-170v639q0 146 -83 210q-72 57 -219 57q-164 0 -263 -79q-99 -77 -99 -209v-618h-170v1464z" />
    <glyph glyph-name="uni04BB" unicode="&#x4bb;" vert-adv-y="2457" 
d="M197 0v1542h170v-635q98 182 325 182q167 0 259 -104q96 -108 96 -321v-664h-170v676q0 138 -55 202t-172 64q-129 0 -206 -78t-77 -209v-655h-170z" />
    <glyph glyph-name="uni04C0" unicode="&#x4c0;" horiz-adv-x="596" vert-adv-y="2457" 
d="M213 0v1464h170v-1464h-170z" />
    <glyph glyph-name="uni04CF" unicode="&#x4cf;" horiz-adv-x="596" vert-adv-y="2457" 
d="M213 0v1464h170v-1464h-170z" />
    <glyph glyph-name="uni04D8" unicode="&#x4d8;" horiz-adv-x="1649" vert-adv-y="2457" 
d="M1318 807q-13 153 -76 276q-73 144 -212 212q-95 46 -206 46q-148 0 -261 -77t-176 -220l-164 49q76 164 215 266q168 123 386 123q274 0 462 -188q104 -104 159.5 -249t55.5 -313q0 -214 -89 -388q-92 -179 -257 -275q-151 -87 -331 -87q-274 0 -462 189
q-120 119 -174 291q-41 129 -41 265q0 26 3 80h1168zM1318 670h-989q14 -167 76 -289q75 -144 213 -212q95 -46 206 -46q209 0 341.5 147t152.5 400z" />
    <glyph glyph-name="afii10846" unicode="&#x4d9;" horiz-adv-x="1165" vert-adv-y="2457" 
d="M122 846q139 243 422 243q217 0 356 -140q152 -153 152 -411q0 -246 -136 -401q-135 -155 -353 -155q-216 0 -341 148q-116 137 -116 384v55h770q-7 119 -31 182q-75 197 -299 197q-100 0 -164 -40.5t-122 -139.5zM280 432q14 -130 52 -194q70 -115 230 -115
q250 0 308 309h-590z" />
    <glyph glyph-name="uni04E2" unicode="&#x4e2;" horiz-adv-x="1458" vert-adv-y="2457" 
d="M197 0v1464h160v-1076l745 937v139h160v-1464h-160v1092l-745 -937v-155h-160zM482 1636v129h496v-129h-496z" />
    <glyph glyph-name="uni04E3" unicode="&#x4e3;" horiz-adv-x="1247" vert-adv-y="2457" 
d="M197 0v1071h170v-732l514 611v121h170v-1071h-170v743l-514 -610v-133h-170zM376 1321v129h496v-129h-496z" />
    <glyph glyph-name="uni04E8" unicode="&#x4e8;" horiz-adv-x="1649" vert-adv-y="2457" 
d="M824 1482q274 0 462 -188q215 -216 215 -562q0 -214 -89 -388q-92 -179 -257 -275q-151 -87 -331 -87q-274 0 -462 189q-215 215 -215 568q0 209 89 381q95 183 257 275q155 87 331 87zM330 807h988q-13 153 -76 276q-73 144 -212 212q-95 46 -206 46
q-205 0 -339.5 -145.5t-154.5 -388.5zM1318 670h-989q14 -167 76 -289q75 -144 213 -212q95 -46 206 -46q209 0 341.5 147t152.5 400z" />
    <glyph glyph-name="uni04E9" unicode="&#x4e9;" horiz-adv-x="1237" vert-adv-y="2457" 
d="M623 1089q205 0 346 -142q156 -157 156 -411t-156 -411q-141 -143 -351 -143q-205 0 -345 139q-160 159 -160 414q0 252 155 411q140 143 355 143zM945 603q-8 85 -38 152q-84 193 -289 193q-138 0 -221.5 -88.5t-104.5 -256.5h653zM293 466q10 -110 56 -191
q87 -152 268 -152q139 0 223.5 88.5t104.5 254.5h-652z" />
    <glyph glyph-name="uni04EE" unicode="&#x4ee;" horiz-adv-x="1147" vert-adv-y="2457" 
d="M517 306l-501 1158h184l391 -943l326 943h180l-402 -1115q-54 -147 -76 -194.5t-55 -83.5q-86 -94 -246 -94q-75 0 -140 23l47 135q44 -17 90 -17q82 0 123.5 38.5t78.5 149.5zM309 1636v129h496v-129h-496z" />
    <glyph glyph-name="uni04EF" unicode="&#x4ef;" horiz-adv-x="1014" vert-adv-y="2457" 
d="M55 -322l62 123q66 -45 135 -45q113 0 151 127l39 129l-401 1059h184l301 -815l277 815h178l-444 -1239q-78 -217 -278 -217q-116 0 -204 63zM263 1321v129h496v-129h-496z" />
    <glyph glyph-name="uni1E1E" unicode="&#x1e1e;" horiz-adv-x="1200" vert-adv-y="2457" 
d="M197 0v1464h918v-141h-748v-551h598v-137h-598v-635h-170zM658 1829q43 0 75.5 -33t32.5 -76q0 -42 -32.5 -75t-75.5 -33q-44 0 -76.5 32.5t-32.5 75.5q0 44 33 76.5t76 32.5z" />
    <glyph glyph-name="Wgrave" unicode="&#x1e80;" horiz-adv-x="1925" vert-adv-y="2457" 
d="M454 0l-395 1464h178l297 -1167l367 1167h135l358 -1171l310 1171h161l-395 -1464h-139l-365 1179l-375 -1179h-137zM912 1604l-225 331h223l119 -331h-117z" />
    <glyph glyph-name="wgrave" unicode="&#x1e81;" horiz-adv-x="1696" vert-adv-y="2457" 
d="M394 0l-322 1071h184l236 -862l276 862h185l258 -862l239 862h174l-325 -1071h-189l-252 858l-278 -858h-186zM791 1210l-225 332h223l119 -332h-117z" />
    <glyph glyph-name="Wacute" unicode="&#x1e82;" horiz-adv-x="1925" vert-adv-y="2457" 
d="M454 0l-395 1464h178l297 -1167l367 1167h135l358 -1171l310 1171h161l-395 -1464h-139l-365 1179l-375 -1179h-137zM910 1604l119 331h223l-225 -331h-117z" />
    <glyph glyph-name="wacute" unicode="&#x1e83;" horiz-adv-x="1696" vert-adv-y="2457" 
d="M394 0l-322 1071h184l236 -862l276 862h185l258 -862l239 862h174l-325 -1071h-189l-252 858l-278 -858h-186zM789 1210l119 332h223l-225 -332h-117z" />
    <glyph glyph-name="Wdieresis" unicode="&#x1e84;" horiz-adv-x="1925" vert-adv-y="2457" 
d="M454 0l-395 1464h178l297 -1167l367 1167h135l358 -1171l310 1171h161l-395 -1464h-139l-365 1179l-375 -1179h-137zM1149 1829q43 0 75.5 -33t32.5 -76q0 -42 -32.5 -75t-75.5 -33q-44 0 -76.5 32.5t-32.5 75.5q0 44 33 76.5t76 32.5zM776 1829q43 0 75.5 -33t32.5 -76
q0 -42 -32.5 -75t-75.5 -33q-44 0 -76.5 32.5t-32.5 75.5q0 44 33 76.5t76 32.5z" />
    <glyph glyph-name="wdieresis" unicode="&#x1e85;" horiz-adv-x="1696" vert-adv-y="2457" 
d="M394 0l-322 1071h184l236 -862l276 862h185l258 -862l239 862h174l-325 -1071h-189l-252 858l-278 -858h-186zM662 1493q43 0 75.5 -33t32.5 -76q0 -42 -32.5 -75t-75.5 -33q-44 0 -76.5 32.5t-32.5 75.5q0 44 33 76.5t76 32.5zM1035 1493q43 0 75.5 -33t32.5 -76
q0 -42 -32.5 -75t-75.5 -33q-44 0 -76.5 32.5t-32.5 75.5q0 44 33 76.5t76 32.5z" />
    <glyph glyph-name="uni1EA0" unicode="&#x1ea0;" horiz-adv-x="1288" vert-adv-y="2457" 
d="M327 365l-126 -365h-166l530 1464h164l525 -1464h-175l-126 365h-626zM376 506h528l-265 762zM669 -130q43 0 75.5 -33t32.5 -76t-32.5 -75.5t-75.5 -32.5q-44 0 -76.5 32.5t-32.5 75.5q0 44 33 76.5t76 32.5z" />
    <glyph glyph-name="uni1EA1" unicode="&#x1ea1;" horiz-adv-x="1120" vert-adv-y="2457" 
d="M780 145q-136 -163 -330 -163q-161 0 -256 95q-81 81 -81 201q0 166 140 253q86 54 198 77.5t319 30.5v67q0 125 -51 183.5t-161 58.5q-83 0 -153.5 -30.5t-152.5 -102.5l-100 111q76 69 143 103q119 60 265 60q193 0 292 -109q88 -98 88 -274v-477q0 -57 25.5 -79
t95.5 -23v-133q-33 -2 -59 -2q-172 0 -222 153zM770 518q-178 -6 -283 -33q-204 -52 -204 -201q0 -79 51 -122t145 -43q129 0 210 66t81 169v164zM588 -116q43 0 75.5 -33t32.5 -75q0 -43 -32.5 -76t-75.5 -33q-44 0 -76.5 32.5t-32.5 75.5q0 44 33 76.5t76 32.5z" />
    <glyph glyph-name="uni1EA2" unicode="&#x1ea2;" horiz-adv-x="1288" vert-adv-y="2457" 
d="M327 365l-126 -365h-166l530 1464h164l525 -1464h-175l-126 365h-626zM376 506h528l-265 762zM682 1543h-91v130q73 11 95 25.5t22 52.5q0 58 -63 58q-41 0 -72.5 -11t-96.5 -48l-42 67q122 81 210 81q73 0 121.5 -43.5t48.5 -109.5q0 -67 -48 -100q-22 -15 -84 -27v-75z
" />
    <glyph glyph-name="uni1EA3" unicode="&#x1ea3;" horiz-adv-x="1120" vert-adv-y="2457" 
d="M780 145q-136 -163 -330 -163q-161 0 -256 95q-81 81 -81 201q0 166 140 253q86 54 198 77.5t319 30.5v67q0 125 -51 183.5t-161 58.5q-83 0 -153.5 -30.5t-152.5 -102.5l-100 111q76 69 143 103q119 60 265 60q193 0 292 -109q88 -98 88 -274v-477q0 -57 25.5 -79
t95.5 -23v-133q-33 -2 -59 -2q-172 0 -222 153zM770 518q-178 -6 -283 -33q-204 -52 -204 -201q0 -79 51 -122t145 -43q129 0 210 66t81 169v164zM586 1161h-91v130q73 11 95 25.5t22 52.5q0 58 -63 58q-41 0 -73 -11t-96 -48l-42 68q126 80 210 80q73 0 121.5 -43.5
t48.5 -109.5q0 -57 -29.5 -85t-102.5 -42v-75z" />
    <glyph glyph-name="uni1EA4" unicode="&#x1ea4;" horiz-adv-x="1288" vert-adv-y="2457" 
d="M810 1719l90 253h224l-226 -332h-41l64 -106h-117l-162 186l-162 -186h-112l200 331h154zM327 365l-126 -365h-166l530 1464h164l525 -1464h-175l-126 365h-626zM376 506h528l-265 762z" />
    <glyph glyph-name="uni1EA5" unicode="&#x1ea5;" horiz-adv-x="1120" vert-adv-y="2457" 
d="M708 1427l97 269h223l-225 -332h-57l92 -154h-117l-162 186l-161 -186h-113l201 332h153zM780 145q-136 -163 -330 -163q-161 0 -256 95q-81 81 -81 201q0 166 140 253q86 54 198 77.5t319 30.5v67q0 125 -51 183.5t-161 58.5q-83 0 -153.5 -30.5t-152.5 -102.5l-100 111
q76 69 143 103q119 60 265 60q193 0 292 -109q88 -98 88 -274v-477q0 -57 25.5 -79t95.5 -23v-133q-33 -2 -59 -2q-172 0 -222 153zM770 518q-178 -6 -283 -33q-204 -52 -204 -201q0 -79 51 -122t145 -43q129 0 210 66t81 169v164z" />
    <glyph glyph-name="uni1EA6" unicode="&#x1ea6;" horiz-adv-x="1288" vert-adv-y="2457" 
d="M368 1510l200 331h154l199 -331h-117l-162 186l-162 -186h-112zM327 365l-126 -365h-166l530 1464h164l525 -1464h-175l-126 365h-626zM376 506h528l-265 762zM937 1661l-225 332h223l119 -332h-117z" />
    <glyph glyph-name="uni1EA7" unicode="&#x1ea7;" horiz-adv-x="1120" vert-adv-y="2457" 
d="M285 1210l201 332h153l199 -332h-117l-162 186l-161 -186h-113zM780 145q-136 -163 -330 -163q-161 0 -256 95q-81 81 -81 201q0 166 140 253q86 54 198 77.5t319 30.5v67q0 125 -51 183.5t-161 58.5q-83 0 -153.5 -30.5t-152.5 -102.5l-100 111q76 69 143 103
q119 60 265 60q193 0 292 -109q88 -98 88 -274v-477q0 -57 25.5 -79t95.5 -23v-133q-33 -2 -59 -2q-172 0 -222 153zM770 518q-178 -6 -283 -33q-204 -52 -204 -201q0 -79 51 -122t145 -43q129 0 210 66t81 169v164zM832 1398l-226 332h224l118 -332h-116z" />
    <glyph glyph-name="uni1EA8" unicode="&#x1ea8;" horiz-adv-x="1288" vert-adv-y="2457" 
d="M368 1502l200 332h154l199 -332h-117l-162 187l-162 -187h-112zM327 365l-126 -365h-166l530 1464h164l525 -1464h-175l-126 365h-626zM376 506h528l-265 762zM991 1644h-91v130q73 11 95 25.5t22 52.5q0 58 -63 58q-41 0 -72 -11t-97 -48l-42 67q122 81 210 81
q73 0 121.5 -43.5t48.5 -109.5q0 -67 -48 -100q-22 -15 -84 -27v-75z" />
    <glyph glyph-name="uni1EA9" unicode="&#x1ea9;" horiz-adv-x="1120" vert-adv-y="2457" 
d="M285 1210l201 332h153l199 -332h-117l-162 186l-161 -186h-113zM780 145q-136 -163 -330 -163q-161 0 -256 95q-81 81 -81 201q0 166 140 253q86 54 198 77.5t319 30.5v67q0 125 -51 183.5t-161 58.5q-83 0 -153.5 -30.5t-152.5 -102.5l-100 111q76 69 143 103
q119 60 265 60q193 0 292 -109q88 -98 88 -274v-477q0 -57 25.5 -79t95.5 -23v-133q-33 -2 -59 -2q-172 0 -222 153zM770 518q-178 -6 -283 -33q-204 -52 -204 -201q0 -79 51 -122t145 -43q129 0 210 66t81 169v164zM857 1424h-91v130q73 11 95 25.5t22 52.5q0 58 -63 58
q-41 0 -73 -11.5t-96 -48.5l-42 68q125 81 210 81q73 0 121.5 -43.5t48.5 -110.5q0 -57 -29.5 -85t-102.5 -41v-75z" />
    <glyph glyph-name="uni1EAA" unicode="&#x1eaa;" horiz-adv-x="1288" vert-adv-y="2457" 
d="M368 1473l200 302h154l199 -302h-117l-162 170l-162 -170h-112zM327 365l-126 -365h-166l530 1464h164l525 -1464h-175l-126 365h-626zM376 506h528l-265 762zM423 1796l-109 11q20 101 74 152q52 50 120 50q54 0 152 -49q68 -35 98 -35q62 0 79 87l108 -11
q-20 -100 -73 -151q-52 -50 -121 -50q-53 0 -151 49q-69 35 -98 35q-63 0 -79 -88z" />
    <glyph glyph-name="uni1EAB" unicode="&#x1eab;" horiz-adv-x="1120" vert-adv-y="2457" 
d="M285 1155l201 332h153l199 -332h-117l-162 186l-161 -186h-113zM780 145q-136 -163 -330 -163q-161 0 -256 95q-81 81 -81 201q0 166 140 253q86 54 198 77.5t319 30.5v67q0 125 -51 183.5t-161 58.5q-83 0 -153.5 -30.5t-152.5 -102.5l-100 111q76 69 143 103
q119 60 265 60q193 0 292 -109q88 -98 88 -274v-477q0 -57 25.5 -79t95.5 -23v-133q-33 -2 -59 -2q-172 0 -222 153zM770 518q-178 -6 -283 -33q-204 -52 -204 -201q0 -79 51 -122t145 -43q129 0 210 66t81 169v164zM342 1537l-109 12q20 109 74 166q52 55 120 55
q53 0 152 -54q68 -38 98 -38q62 0 79 96l108 -12q-20 -110 -73 -166q-52 -55 -121 -55q-54 0 -151 54q-69 38 -98 38q-63 0 -79 -96z" />
    <glyph glyph-name="uni1EAC" unicode="&#x1eac;" horiz-adv-x="1288" vert-adv-y="2457" 
d="M368 1604l200 331h154l199 -331h-117l-162 186l-162 -186h-112zM327 365l-126 -365h-166l530 1464h164l525 -1464h-175l-126 365h-626zM376 506h528l-265 762zM664 -130q43 0 75.5 -33t32.5 -76t-32.5 -75.5t-75.5 -32.5q-44 0 -76.5 32.5t-32.5 75.5q0 44 33 76.5
t76 32.5z" />
    <glyph glyph-name="uni1EAD" unicode="&#x1ead;" horiz-adv-x="1120" vert-adv-y="2457" 
d="M285 1210l201 332h153l199 -332h-117l-162 186l-161 -186h-113zM780 145q-136 -163 -330 -163q-161 0 -256 95q-81 81 -81 201q0 166 140 253q86 54 198 77.5t319 30.5v67q0 125 -51 183.5t-161 58.5q-83 0 -153.5 -30.5t-152.5 -102.5l-100 111q76 69 143 103
q119 60 265 60q193 0 292 -109q88 -98 88 -274v-477q0 -57 25.5 -79t95.5 -23v-133q-33 -2 -59 -2q-172 0 -222 153zM770 518q-178 -6 -283 -33q-204 -52 -204 -201q0 -79 51 -122t145 -43q129 0 210 66t81 169v164zM588 -116q43 0 75.5 -33t32.5 -75q0 -43 -32.5 -76
t-75.5 -33q-44 0 -76.5 32.5t-32.5 75.5q0 44 33 76.5t76 32.5z" />
    <glyph glyph-name="uni1EAE" unicode="&#x1eae;" horiz-adv-x="1288" vert-adv-y="2457" 
d="M919 1787q-13 -120 -84 -187q-79 -75 -194 -75q-112 0 -187 71q-72 68 -84 191h133q26 -131 143 -131q61 0 94.5 30.5t49.5 100.5h129zM327 365l-126 -365h-166l530 1464h164l525 -1464h-175l-126 365h-626zM376 506h528l-265 762zM570 1724l118 273h224l-226 -273h-116z
" />
    </font>
</defs>
</svg>
